G75*
G70*
%OFA0B0*%
%FSLAX24Y24*%
%IPPOS*%
%LPD*%
%AMOC8*
5,1,8,0,0,1.08239X$1,22.5*
%
%ADD10C,0.0000*%
%ADD11C,0.0060*%
%ADD12C,0.0070*%
%ADD13C,0.0050*%
%ADD14C,0.0020*%
%ADD15C,0.0100*%
%ADD16C,0.0080*%
D10*
X002080Y001033D02*
X002080Y022529D01*
X041950Y022529D01*
X041950Y001033D01*
X002080Y001033D01*
X002989Y002533D02*
X002991Y002581D01*
X002997Y002629D01*
X003007Y002676D01*
X003020Y002722D01*
X003038Y002767D01*
X003058Y002811D01*
X003083Y002853D01*
X003111Y002892D01*
X003141Y002929D01*
X003175Y002963D01*
X003212Y002995D01*
X003250Y003024D01*
X003291Y003049D01*
X003334Y003071D01*
X003379Y003089D01*
X003425Y003103D01*
X003472Y003114D01*
X003520Y003121D01*
X003568Y003124D01*
X003616Y003123D01*
X003664Y003118D01*
X003712Y003109D01*
X003758Y003097D01*
X003803Y003080D01*
X003847Y003060D01*
X003889Y003037D01*
X003929Y003010D01*
X003967Y002980D01*
X004002Y002947D01*
X004034Y002911D01*
X004064Y002873D01*
X004090Y002832D01*
X004112Y002789D01*
X004132Y002745D01*
X004147Y002700D01*
X004159Y002653D01*
X004167Y002605D01*
X004171Y002557D01*
X004171Y002509D01*
X004167Y002461D01*
X004159Y002413D01*
X004147Y002366D01*
X004132Y002321D01*
X004112Y002277D01*
X004090Y002234D01*
X004064Y002193D01*
X004034Y002155D01*
X004002Y002119D01*
X003967Y002086D01*
X003929Y002056D01*
X003889Y002029D01*
X003847Y002006D01*
X003803Y001986D01*
X003758Y001969D01*
X003712Y001957D01*
X003664Y001948D01*
X003616Y001943D01*
X003568Y001942D01*
X003520Y001945D01*
X003472Y001952D01*
X003425Y001963D01*
X003379Y001977D01*
X003334Y001995D01*
X003291Y002017D01*
X003250Y002042D01*
X003212Y002071D01*
X003175Y002103D01*
X003141Y002137D01*
X003111Y002174D01*
X003083Y002213D01*
X003058Y002255D01*
X003038Y002299D01*
X003020Y002344D01*
X003007Y002390D01*
X002997Y002437D01*
X002991Y002485D01*
X002989Y002533D01*
X002989Y021033D02*
X002991Y021081D01*
X002997Y021129D01*
X003007Y021176D01*
X003020Y021222D01*
X003038Y021267D01*
X003058Y021311D01*
X003083Y021353D01*
X003111Y021392D01*
X003141Y021429D01*
X003175Y021463D01*
X003212Y021495D01*
X003250Y021524D01*
X003291Y021549D01*
X003334Y021571D01*
X003379Y021589D01*
X003425Y021603D01*
X003472Y021614D01*
X003520Y021621D01*
X003568Y021624D01*
X003616Y021623D01*
X003664Y021618D01*
X003712Y021609D01*
X003758Y021597D01*
X003803Y021580D01*
X003847Y021560D01*
X003889Y021537D01*
X003929Y021510D01*
X003967Y021480D01*
X004002Y021447D01*
X004034Y021411D01*
X004064Y021373D01*
X004090Y021332D01*
X004112Y021289D01*
X004132Y021245D01*
X004147Y021200D01*
X004159Y021153D01*
X004167Y021105D01*
X004171Y021057D01*
X004171Y021009D01*
X004167Y020961D01*
X004159Y020913D01*
X004147Y020866D01*
X004132Y020821D01*
X004112Y020777D01*
X004090Y020734D01*
X004064Y020693D01*
X004034Y020655D01*
X004002Y020619D01*
X003967Y020586D01*
X003929Y020556D01*
X003889Y020529D01*
X003847Y020506D01*
X003803Y020486D01*
X003758Y020469D01*
X003712Y020457D01*
X003664Y020448D01*
X003616Y020443D01*
X003568Y020442D01*
X003520Y020445D01*
X003472Y020452D01*
X003425Y020463D01*
X003379Y020477D01*
X003334Y020495D01*
X003291Y020517D01*
X003250Y020542D01*
X003212Y020571D01*
X003175Y020603D01*
X003141Y020637D01*
X003111Y020674D01*
X003083Y020713D01*
X003058Y020755D01*
X003038Y020799D01*
X003020Y020844D01*
X003007Y020890D01*
X002997Y020937D01*
X002991Y020985D01*
X002989Y021033D01*
X039989Y021033D02*
X039991Y021081D01*
X039997Y021129D01*
X040007Y021176D01*
X040020Y021222D01*
X040038Y021267D01*
X040058Y021311D01*
X040083Y021353D01*
X040111Y021392D01*
X040141Y021429D01*
X040175Y021463D01*
X040212Y021495D01*
X040250Y021524D01*
X040291Y021549D01*
X040334Y021571D01*
X040379Y021589D01*
X040425Y021603D01*
X040472Y021614D01*
X040520Y021621D01*
X040568Y021624D01*
X040616Y021623D01*
X040664Y021618D01*
X040712Y021609D01*
X040758Y021597D01*
X040803Y021580D01*
X040847Y021560D01*
X040889Y021537D01*
X040929Y021510D01*
X040967Y021480D01*
X041002Y021447D01*
X041034Y021411D01*
X041064Y021373D01*
X041090Y021332D01*
X041112Y021289D01*
X041132Y021245D01*
X041147Y021200D01*
X041159Y021153D01*
X041167Y021105D01*
X041171Y021057D01*
X041171Y021009D01*
X041167Y020961D01*
X041159Y020913D01*
X041147Y020866D01*
X041132Y020821D01*
X041112Y020777D01*
X041090Y020734D01*
X041064Y020693D01*
X041034Y020655D01*
X041002Y020619D01*
X040967Y020586D01*
X040929Y020556D01*
X040889Y020529D01*
X040847Y020506D01*
X040803Y020486D01*
X040758Y020469D01*
X040712Y020457D01*
X040664Y020448D01*
X040616Y020443D01*
X040568Y020442D01*
X040520Y020445D01*
X040472Y020452D01*
X040425Y020463D01*
X040379Y020477D01*
X040334Y020495D01*
X040291Y020517D01*
X040250Y020542D01*
X040212Y020571D01*
X040175Y020603D01*
X040141Y020637D01*
X040111Y020674D01*
X040083Y020713D01*
X040058Y020755D01*
X040038Y020799D01*
X040020Y020844D01*
X040007Y020890D01*
X039997Y020937D01*
X039991Y020985D01*
X039989Y021033D01*
X039989Y002533D02*
X039991Y002581D01*
X039997Y002629D01*
X040007Y002676D01*
X040020Y002722D01*
X040038Y002767D01*
X040058Y002811D01*
X040083Y002853D01*
X040111Y002892D01*
X040141Y002929D01*
X040175Y002963D01*
X040212Y002995D01*
X040250Y003024D01*
X040291Y003049D01*
X040334Y003071D01*
X040379Y003089D01*
X040425Y003103D01*
X040472Y003114D01*
X040520Y003121D01*
X040568Y003124D01*
X040616Y003123D01*
X040664Y003118D01*
X040712Y003109D01*
X040758Y003097D01*
X040803Y003080D01*
X040847Y003060D01*
X040889Y003037D01*
X040929Y003010D01*
X040967Y002980D01*
X041002Y002947D01*
X041034Y002911D01*
X041064Y002873D01*
X041090Y002832D01*
X041112Y002789D01*
X041132Y002745D01*
X041147Y002700D01*
X041159Y002653D01*
X041167Y002605D01*
X041171Y002557D01*
X041171Y002509D01*
X041167Y002461D01*
X041159Y002413D01*
X041147Y002366D01*
X041132Y002321D01*
X041112Y002277D01*
X041090Y002234D01*
X041064Y002193D01*
X041034Y002155D01*
X041002Y002119D01*
X040967Y002086D01*
X040929Y002056D01*
X040889Y002029D01*
X040847Y002006D01*
X040803Y001986D01*
X040758Y001969D01*
X040712Y001957D01*
X040664Y001948D01*
X040616Y001943D01*
X040568Y001942D01*
X040520Y001945D01*
X040472Y001952D01*
X040425Y001963D01*
X040379Y001977D01*
X040334Y001995D01*
X040291Y002017D01*
X040250Y002042D01*
X040212Y002071D01*
X040175Y002103D01*
X040141Y002137D01*
X040111Y002174D01*
X040083Y002213D01*
X040058Y002255D01*
X040038Y002299D01*
X040020Y002344D01*
X040007Y002390D01*
X039997Y002437D01*
X039991Y002485D01*
X039989Y002533D01*
D11*
X039230Y002533D02*
X039232Y002606D01*
X039238Y002679D01*
X039248Y002751D01*
X039262Y002823D01*
X039279Y002894D01*
X039301Y002964D01*
X039326Y003033D01*
X039355Y003100D01*
X039387Y003165D01*
X039423Y003229D01*
X039463Y003291D01*
X039505Y003350D01*
X039551Y003407D01*
X039600Y003461D01*
X039652Y003513D01*
X039706Y003562D01*
X039763Y003608D01*
X039822Y003650D01*
X039884Y003690D01*
X039948Y003726D01*
X040013Y003758D01*
X040080Y003787D01*
X040149Y003812D01*
X040219Y003834D01*
X040290Y003851D01*
X040362Y003865D01*
X040434Y003875D01*
X040507Y003881D01*
X040580Y003883D01*
X040653Y003881D01*
X040726Y003875D01*
X040798Y003865D01*
X040870Y003851D01*
X040941Y003834D01*
X041011Y003812D01*
X041080Y003787D01*
X041147Y003758D01*
X041212Y003726D01*
X041276Y003690D01*
X041338Y003650D01*
X041397Y003608D01*
X041454Y003562D01*
X041508Y003513D01*
X041560Y003461D01*
X041609Y003407D01*
X041655Y003350D01*
X041697Y003291D01*
X041737Y003229D01*
X041773Y003165D01*
X041805Y003100D01*
X041834Y003033D01*
X041859Y002964D01*
X041881Y002894D01*
X041898Y002823D01*
X041912Y002751D01*
X041922Y002679D01*
X041928Y002606D01*
X041930Y002533D01*
X041928Y002460D01*
X041922Y002387D01*
X041912Y002315D01*
X041898Y002243D01*
X041881Y002172D01*
X041859Y002102D01*
X041834Y002033D01*
X041805Y001966D01*
X041773Y001901D01*
X041737Y001837D01*
X041697Y001775D01*
X041655Y001716D01*
X041609Y001659D01*
X041560Y001605D01*
X041508Y001553D01*
X041454Y001504D01*
X041397Y001458D01*
X041338Y001416D01*
X041276Y001376D01*
X041212Y001340D01*
X041147Y001308D01*
X041080Y001279D01*
X041011Y001254D01*
X040941Y001232D01*
X040870Y001215D01*
X040798Y001201D01*
X040726Y001191D01*
X040653Y001185D01*
X040580Y001183D01*
X040507Y001185D01*
X040434Y001191D01*
X040362Y001201D01*
X040290Y001215D01*
X040219Y001232D01*
X040149Y001254D01*
X040080Y001279D01*
X040013Y001308D01*
X039948Y001340D01*
X039884Y001376D01*
X039822Y001416D01*
X039763Y001458D01*
X039706Y001504D01*
X039652Y001553D01*
X039600Y001605D01*
X039551Y001659D01*
X039505Y001716D01*
X039463Y001775D01*
X039423Y001837D01*
X039387Y001901D01*
X039355Y001966D01*
X039326Y002033D01*
X039301Y002102D01*
X039279Y002172D01*
X039262Y002243D01*
X039248Y002315D01*
X039238Y002387D01*
X039232Y002460D01*
X039230Y002533D01*
X036080Y001283D02*
X036080Y004783D01*
X034330Y004783D01*
X034330Y004733D01*
X033830Y004733D01*
X033830Y004783D01*
X032880Y004783D01*
X032880Y004383D01*
X032880Y004283D01*
X035580Y004283D01*
X035580Y001783D01*
X028580Y001783D01*
X028580Y004283D01*
X030280Y004283D01*
X030880Y004283D01*
X031280Y004283D01*
X031280Y004383D01*
X031280Y004783D01*
X032880Y004783D01*
X032880Y004283D02*
X032880Y003983D01*
X031280Y003983D01*
X031280Y004283D01*
X031080Y004583D02*
X030880Y004583D01*
X030280Y004583D01*
X030280Y004383D01*
X030280Y004283D01*
X030280Y004583D02*
X030080Y004583D01*
X029930Y004783D01*
X028080Y004783D01*
X028080Y001283D01*
X028580Y001283D01*
X028580Y001183D01*
X029080Y001183D01*
X029080Y001283D01*
X031830Y001283D01*
X031830Y001183D01*
X032330Y001183D01*
X032330Y001283D01*
X035080Y001283D01*
X035080Y001183D01*
X035580Y001183D01*
X035580Y001283D01*
X036080Y001283D01*
X030880Y004283D02*
X030880Y004383D01*
X030880Y004583D01*
X031080Y004583D02*
X031230Y004783D01*
X031280Y004783D01*
X031680Y006033D02*
X031580Y006133D01*
X031580Y006933D01*
X031680Y007033D01*
X031580Y007133D01*
X031580Y007933D01*
X031680Y008033D01*
X031580Y008133D01*
X031580Y008933D01*
X031680Y009033D01*
X032480Y009033D01*
X032580Y008933D01*
X032580Y008133D01*
X032480Y008033D01*
X032580Y007933D01*
X032580Y007133D01*
X032480Y007033D01*
X032580Y006933D01*
X032580Y006133D01*
X032480Y006033D01*
X031680Y006033D01*
X031080Y006533D02*
X017130Y006533D01*
X017080Y006533D02*
X017080Y007033D01*
X017124Y007035D01*
X017167Y007041D01*
X017209Y007050D01*
X017251Y007063D01*
X017291Y007080D01*
X017330Y007100D01*
X017367Y007123D01*
X017401Y007150D01*
X017434Y007179D01*
X017463Y007212D01*
X017490Y007246D01*
X017513Y007283D01*
X017533Y007322D01*
X017550Y007362D01*
X017563Y007404D01*
X017572Y007446D01*
X017578Y007489D01*
X017580Y007533D01*
X017578Y007577D01*
X017572Y007620D01*
X017563Y007662D01*
X017550Y007704D01*
X017533Y007744D01*
X017513Y007783D01*
X017490Y007820D01*
X017463Y007854D01*
X017434Y007887D01*
X017401Y007916D01*
X017367Y007943D01*
X017330Y007966D01*
X017291Y007986D01*
X017251Y008003D01*
X017209Y008016D01*
X017167Y008025D01*
X017124Y008031D01*
X017080Y008033D01*
X017080Y008533D01*
X031080Y008533D01*
X031080Y006533D01*
X033580Y006933D02*
X033580Y006133D01*
X033680Y006033D01*
X034480Y006033D01*
X034580Y006133D01*
X034580Y006933D01*
X034480Y007033D01*
X034580Y007133D01*
X034580Y007933D01*
X034480Y008033D01*
X034580Y008133D01*
X034580Y008933D01*
X034480Y009033D01*
X033680Y009033D01*
X033580Y008933D01*
X033580Y008133D01*
X033680Y008033D01*
X033580Y007933D01*
X033580Y007133D01*
X033680Y007033D01*
X033580Y006933D01*
X035580Y006933D02*
X035580Y006133D01*
X035680Y006033D01*
X036480Y006033D01*
X036580Y006133D01*
X036580Y006933D01*
X036480Y007033D01*
X036580Y007133D01*
X036580Y007933D01*
X036480Y008033D01*
X036580Y008133D01*
X036580Y008933D01*
X036480Y009033D01*
X035680Y009033D01*
X035580Y008933D01*
X035580Y008133D01*
X035680Y008033D01*
X035580Y007933D01*
X035580Y007133D01*
X035680Y007033D01*
X035580Y006933D01*
X027030Y004933D02*
X027030Y004133D01*
X027028Y004116D01*
X027024Y004099D01*
X027017Y004083D01*
X027007Y004069D01*
X026994Y004056D01*
X026980Y004046D01*
X026964Y004039D01*
X026947Y004035D01*
X026930Y004033D01*
X025230Y004033D01*
X025213Y004035D01*
X025196Y004039D01*
X025180Y004046D01*
X025166Y004056D01*
X025153Y004069D01*
X025143Y004083D01*
X025136Y004099D01*
X025132Y004116D01*
X025130Y004133D01*
X025130Y004933D01*
X025132Y004950D01*
X025136Y004967D01*
X025143Y004983D01*
X025153Y004997D01*
X025166Y005010D01*
X025180Y005020D01*
X025196Y005027D01*
X025213Y005031D01*
X025230Y005033D01*
X026930Y005033D01*
X026947Y005031D01*
X026964Y005027D01*
X026980Y005020D01*
X026994Y005010D01*
X027007Y004997D01*
X027017Y004983D01*
X027024Y004967D01*
X027028Y004950D01*
X027030Y004933D01*
X026230Y004533D02*
X026180Y004533D01*
X025980Y004533D02*
X025930Y004533D01*
X025526Y003647D02*
X025526Y003220D01*
X025632Y003113D01*
X025849Y003113D02*
X026169Y003113D01*
X026276Y003220D01*
X026169Y003327D01*
X025955Y003327D01*
X025849Y003434D01*
X025955Y003540D01*
X026276Y003540D01*
X025632Y003540D02*
X025419Y003540D01*
X025201Y003434D02*
X025201Y003113D01*
X025201Y003434D02*
X025095Y003540D01*
X024881Y003540D01*
X024774Y003434D01*
X024557Y003540D02*
X024237Y003540D01*
X024130Y003434D01*
X024130Y003220D01*
X024237Y003113D01*
X024557Y003113D01*
X024774Y003113D02*
X024774Y003754D01*
X023912Y003434D02*
X023912Y003327D01*
X023485Y003327D01*
X023485Y003434D02*
X023592Y003540D01*
X023805Y003540D01*
X023912Y003434D01*
X023805Y003113D02*
X023592Y003113D01*
X023485Y003220D01*
X023485Y003434D01*
X023268Y003540D02*
X023162Y003540D01*
X022948Y003327D01*
X022948Y003540D02*
X022948Y003113D01*
X022731Y003220D02*
X022731Y003434D01*
X022624Y003540D01*
X022304Y003540D01*
X022304Y003754D02*
X022304Y003113D01*
X022624Y003113D01*
X022731Y003220D01*
X022086Y003327D02*
X021659Y003327D01*
X021659Y003434D02*
X021766Y003540D01*
X021979Y003540D01*
X022086Y003434D01*
X022086Y003327D01*
X021979Y003113D02*
X021766Y003113D01*
X021659Y003220D01*
X021659Y003434D01*
X021441Y003327D02*
X021441Y003220D01*
X021335Y003113D01*
X021121Y003113D01*
X021014Y003220D01*
X021121Y003434D02*
X021335Y003434D01*
X021441Y003327D01*
X021441Y003647D02*
X021335Y003754D01*
X021121Y003754D01*
X021014Y003647D01*
X021014Y003540D01*
X021121Y003434D01*
X020152Y003434D02*
X020152Y003113D01*
X020152Y003434D02*
X020046Y003540D01*
X019725Y003540D01*
X019725Y003113D01*
X019509Y003007D02*
X019509Y003540D01*
X019509Y003754D02*
X019509Y003861D01*
X019508Y004063D02*
X019188Y004063D01*
X019188Y003850D02*
X019188Y004490D01*
X019508Y004490D01*
X019615Y004384D01*
X019615Y004170D01*
X019508Y004063D01*
X018972Y004063D02*
X018758Y004063D01*
X018865Y004063D02*
X018865Y004490D01*
X018758Y004490D01*
X018865Y004704D02*
X018865Y004811D01*
X018436Y004704D02*
X018436Y004063D01*
X018542Y004063D02*
X018329Y004063D01*
X018113Y004063D02*
X017899Y004063D01*
X018006Y004063D02*
X018006Y004490D01*
X017899Y004490D01*
X018006Y004704D02*
X018006Y004811D01*
X018329Y004704D02*
X018436Y004704D01*
X017682Y004384D02*
X017682Y004063D01*
X017682Y004384D02*
X017575Y004490D01*
X017361Y004490D01*
X017255Y004384D01*
X017037Y004384D02*
X017037Y004597D01*
X016930Y004704D01*
X016610Y004704D01*
X016610Y004063D01*
X016610Y004277D02*
X016930Y004277D01*
X017037Y004384D01*
X017255Y004704D02*
X017255Y004063D01*
X017037Y003754D02*
X017037Y003113D01*
X017255Y003220D02*
X017255Y003434D01*
X017361Y003540D01*
X017575Y003540D01*
X017682Y003434D01*
X017682Y003327D01*
X017255Y003327D01*
X017255Y003220D02*
X017361Y003113D01*
X017575Y003113D01*
X017899Y003113D02*
X017899Y003540D01*
X017899Y003327D02*
X018113Y003540D01*
X018219Y003540D01*
X018436Y003754D02*
X018543Y003754D01*
X018543Y003113D01*
X018436Y003113D02*
X018650Y003113D01*
X018866Y003113D02*
X019079Y003113D01*
X018973Y003113D02*
X018973Y003540D01*
X018866Y003540D01*
X018973Y003754D02*
X018973Y003861D01*
X020477Y004277D02*
X020477Y004704D01*
X020477Y004277D02*
X020691Y004063D01*
X020904Y004277D01*
X020904Y004704D01*
X021229Y004490D02*
X021442Y004490D01*
X021549Y004384D01*
X021549Y004063D01*
X021229Y004063D01*
X021122Y004170D01*
X021229Y004277D01*
X021549Y004277D01*
X021766Y004490D02*
X022087Y004490D01*
X022193Y004384D01*
X022193Y004063D01*
X022411Y004063D02*
X022624Y004063D01*
X022518Y004063D02*
X022518Y004704D01*
X022411Y004704D01*
X022841Y004384D02*
X022841Y004170D01*
X022947Y004063D01*
X023161Y004063D01*
X023268Y004170D01*
X023268Y004384D01*
X023161Y004490D01*
X022947Y004490D01*
X022841Y004384D01*
X023485Y004384D02*
X023485Y004170D01*
X023592Y004063D01*
X023805Y004063D01*
X023912Y004170D01*
X023912Y004384D01*
X023805Y004490D01*
X023592Y004490D01*
X023485Y004384D01*
X021766Y004490D02*
X021766Y004063D01*
X019509Y003007D02*
X019402Y002900D01*
X019296Y002900D01*
X019400Y002704D02*
X019400Y002277D01*
X019187Y002063D01*
X018973Y002277D01*
X018973Y002704D01*
X019725Y002490D02*
X019938Y002490D01*
X020045Y002384D01*
X020045Y002063D01*
X019725Y002063D01*
X019618Y002170D01*
X019725Y002277D01*
X020045Y002277D01*
X020262Y002063D02*
X020262Y002490D01*
X020583Y002490D01*
X020689Y002384D01*
X020689Y002063D01*
X021552Y002063D02*
X021552Y002704D01*
X021658Y002384D02*
X021979Y002063D01*
X022196Y002170D02*
X022196Y002384D01*
X022303Y002490D01*
X022516Y002490D01*
X022623Y002384D01*
X022623Y002277D01*
X022196Y002277D01*
X022196Y002170D02*
X022303Y002063D01*
X022516Y002063D01*
X022841Y002170D02*
X022841Y002490D01*
X022841Y002170D02*
X022947Y002063D01*
X023268Y002063D01*
X023268Y001957D02*
X023161Y001850D01*
X023054Y001850D01*
X023268Y001957D02*
X023268Y002490D01*
X023485Y002490D02*
X023592Y002490D01*
X023699Y002384D01*
X023805Y002490D01*
X023912Y002384D01*
X023912Y002063D01*
X023699Y002063D02*
X023699Y002384D01*
X023485Y002490D02*
X023485Y002063D01*
X024130Y002170D02*
X024130Y002384D01*
X024237Y002490D01*
X024450Y002490D01*
X024557Y002384D01*
X024557Y002277D01*
X024130Y002277D01*
X024130Y002170D02*
X024237Y002063D01*
X024450Y002063D01*
X024774Y002170D02*
X024881Y002063D01*
X025201Y002063D01*
X025201Y002490D01*
X025419Y002704D02*
X025526Y002704D01*
X025526Y002063D01*
X025632Y002063D02*
X025419Y002063D01*
X025849Y002170D02*
X025849Y002384D01*
X025955Y002490D01*
X026169Y002490D01*
X026276Y002384D01*
X026276Y002277D01*
X025849Y002277D01*
X025849Y002170D02*
X025955Y002063D01*
X026169Y002063D01*
X026493Y002063D02*
X026493Y002490D01*
X026813Y002490D01*
X026920Y002384D01*
X026920Y002063D01*
X024774Y002170D02*
X024774Y002490D01*
X021979Y002704D02*
X021552Y002277D01*
X018111Y002170D02*
X018005Y002277D01*
X017791Y002277D01*
X017684Y002384D01*
X017791Y002490D01*
X018111Y002490D01*
X018111Y002170D02*
X018005Y002063D01*
X017684Y002063D01*
X017468Y002063D02*
X017255Y002063D01*
X017361Y002063D02*
X017361Y002704D01*
X017255Y002704D01*
X017037Y002704D02*
X016610Y002704D01*
X016610Y002063D01*
X017037Y002063D01*
X016824Y002384D02*
X016610Y002384D01*
X015955Y002097D02*
X015955Y001990D01*
X015849Y001884D01*
X015955Y001777D01*
X015955Y001670D01*
X015849Y001563D01*
X015635Y001563D01*
X015528Y001670D01*
X015311Y001670D02*
X015204Y001563D01*
X014990Y001563D01*
X014884Y001670D01*
X015311Y002097D01*
X015311Y001670D01*
X014884Y001670D02*
X014884Y002097D01*
X014990Y002204D01*
X015204Y002204D01*
X015311Y002097D01*
X015528Y002097D02*
X015635Y002204D01*
X015849Y002204D01*
X015955Y002097D01*
X015849Y001884D02*
X015742Y001884D01*
X014666Y001563D02*
X014239Y001563D01*
X014453Y001563D02*
X014453Y002204D01*
X014239Y001990D01*
X014022Y002097D02*
X014022Y001670D01*
X013915Y001563D01*
X013701Y001563D01*
X013595Y001670D01*
X014022Y002097D01*
X013915Y002204D01*
X013701Y002204D01*
X013595Y002097D01*
X013595Y001670D01*
X013377Y001670D02*
X013270Y001563D01*
X013057Y001563D01*
X012950Y001670D01*
X012733Y001563D02*
X012305Y001563D01*
X012519Y001563D02*
X012519Y002204D01*
X012305Y001990D01*
X012088Y002097D02*
X011661Y001670D01*
X011768Y001563D01*
X011981Y001563D01*
X012088Y001670D01*
X012088Y002097D01*
X011981Y002204D01*
X011768Y002204D01*
X011661Y002097D01*
X011661Y001670D01*
X011443Y001563D02*
X011016Y001563D01*
X011443Y001990D01*
X011443Y002097D01*
X011337Y002204D01*
X011123Y002204D01*
X011016Y002097D01*
X011338Y002563D02*
X011231Y002670D01*
X011231Y002884D01*
X011338Y002990D01*
X011658Y002990D01*
X011658Y003204D02*
X011658Y002563D01*
X011338Y002563D01*
X011876Y002563D02*
X011876Y002990D01*
X011876Y002777D02*
X012089Y002990D01*
X012196Y002990D01*
X012413Y002990D02*
X012520Y002990D01*
X012520Y002563D01*
X012626Y002563D02*
X012413Y002563D01*
X012843Y002990D02*
X013056Y002563D01*
X013270Y002990D01*
X013487Y002884D02*
X013594Y002990D01*
X013807Y002990D01*
X013914Y002884D01*
X013914Y002777D01*
X013487Y002777D01*
X013487Y002670D02*
X013487Y002884D01*
X013487Y002670D02*
X013594Y002563D01*
X013807Y002563D01*
X014132Y002563D02*
X014132Y002990D01*
X014132Y002777D02*
X014345Y002990D01*
X014452Y002990D01*
X013377Y002097D02*
X013377Y001990D01*
X013270Y001884D01*
X013377Y001777D01*
X013377Y001670D01*
X013270Y001884D02*
X013164Y001884D01*
X013377Y002097D02*
X013270Y002204D01*
X013057Y002204D01*
X012950Y002097D01*
X012520Y003204D02*
X012520Y003311D01*
X010369Y002884D02*
X010369Y002670D01*
X010262Y002563D01*
X009942Y002563D01*
X009942Y002350D02*
X009942Y002990D01*
X010262Y002990D01*
X010369Y002884D01*
X009725Y002884D02*
X009725Y002563D01*
X009404Y002563D01*
X009298Y002670D01*
X009404Y002777D01*
X009725Y002777D01*
X009725Y002884D02*
X009618Y002990D01*
X009404Y002990D01*
X008975Y003204D02*
X008975Y002563D01*
X009081Y002563D02*
X008868Y002563D01*
X008545Y002563D02*
X008545Y003097D01*
X008652Y003204D01*
X008868Y003204D02*
X008975Y003204D01*
X008652Y002884D02*
X008438Y002884D01*
X008222Y002990D02*
X008008Y002990D01*
X008115Y003097D02*
X008115Y002670D01*
X008222Y002563D01*
X007792Y002563D02*
X007579Y002563D01*
X007686Y002563D02*
X007686Y002990D01*
X007579Y002990D01*
X007686Y003204D02*
X007686Y003311D01*
X007256Y003204D02*
X007256Y002563D01*
X007149Y002563D02*
X007363Y002563D01*
X006932Y002670D02*
X006932Y002884D01*
X006825Y002990D01*
X006505Y002990D01*
X006505Y002350D01*
X006505Y002563D02*
X006825Y002563D01*
X006932Y002670D01*
X007149Y003204D02*
X007256Y003204D01*
X006287Y003097D02*
X006180Y003204D01*
X005967Y003204D01*
X005860Y003097D01*
X005860Y002990D01*
X005967Y002884D01*
X006180Y002884D01*
X006287Y002777D01*
X006287Y002670D01*
X006180Y002563D01*
X005967Y002563D01*
X005860Y002670D01*
X005860Y002204D02*
X006180Y002204D01*
X006287Y002097D01*
X006287Y001884D01*
X006180Y001777D01*
X005860Y001777D01*
X006074Y001777D02*
X006287Y001563D01*
X006505Y001670D02*
X006505Y001884D01*
X006611Y001990D01*
X006825Y001990D01*
X006932Y001884D01*
X006932Y001777D01*
X006505Y001777D01*
X006505Y001670D02*
X006611Y001563D01*
X006825Y001563D01*
X007149Y001990D02*
X007363Y001563D01*
X007576Y001990D01*
X008438Y001990D02*
X008652Y002204D01*
X008652Y001563D01*
X008865Y001563D02*
X008438Y001563D01*
X009727Y001884D02*
X010154Y001884D01*
X005860Y001563D02*
X005860Y002204D01*
X002230Y002533D02*
X002232Y002606D01*
X002238Y002679D01*
X002248Y002751D01*
X002262Y002823D01*
X002279Y002894D01*
X002301Y002964D01*
X002326Y003033D01*
X002355Y003100D01*
X002387Y003165D01*
X002423Y003229D01*
X002463Y003291D01*
X002505Y003350D01*
X002551Y003407D01*
X002600Y003461D01*
X002652Y003513D01*
X002706Y003562D01*
X002763Y003608D01*
X002822Y003650D01*
X002884Y003690D01*
X002948Y003726D01*
X003013Y003758D01*
X003080Y003787D01*
X003149Y003812D01*
X003219Y003834D01*
X003290Y003851D01*
X003362Y003865D01*
X003434Y003875D01*
X003507Y003881D01*
X003580Y003883D01*
X003653Y003881D01*
X003726Y003875D01*
X003798Y003865D01*
X003870Y003851D01*
X003941Y003834D01*
X004011Y003812D01*
X004080Y003787D01*
X004147Y003758D01*
X004212Y003726D01*
X004276Y003690D01*
X004338Y003650D01*
X004397Y003608D01*
X004454Y003562D01*
X004508Y003513D01*
X004560Y003461D01*
X004609Y003407D01*
X004655Y003350D01*
X004697Y003291D01*
X004737Y003229D01*
X004773Y003165D01*
X004805Y003100D01*
X004834Y003033D01*
X004859Y002964D01*
X004881Y002894D01*
X004898Y002823D01*
X004912Y002751D01*
X004922Y002679D01*
X004928Y002606D01*
X004930Y002533D01*
X004928Y002460D01*
X004922Y002387D01*
X004912Y002315D01*
X004898Y002243D01*
X004881Y002172D01*
X004859Y002102D01*
X004834Y002033D01*
X004805Y001966D01*
X004773Y001901D01*
X004737Y001837D01*
X004697Y001775D01*
X004655Y001716D01*
X004609Y001659D01*
X004560Y001605D01*
X004508Y001553D01*
X004454Y001504D01*
X004397Y001458D01*
X004338Y001416D01*
X004276Y001376D01*
X004212Y001340D01*
X004147Y001308D01*
X004080Y001279D01*
X004011Y001254D01*
X003941Y001232D01*
X003870Y001215D01*
X003798Y001201D01*
X003726Y001191D01*
X003653Y001185D01*
X003580Y001183D01*
X003507Y001185D01*
X003434Y001191D01*
X003362Y001201D01*
X003290Y001215D01*
X003219Y001232D01*
X003149Y001254D01*
X003080Y001279D01*
X003013Y001308D01*
X002948Y001340D01*
X002884Y001376D01*
X002822Y001416D01*
X002763Y001458D01*
X002706Y001504D01*
X002652Y001553D01*
X002600Y001605D01*
X002551Y001659D01*
X002505Y001716D01*
X002463Y001775D01*
X002423Y001837D01*
X002387Y001901D01*
X002355Y001966D01*
X002326Y002033D01*
X002301Y002102D01*
X002279Y002172D01*
X002262Y002243D01*
X002248Y002315D01*
X002238Y002387D01*
X002232Y002460D01*
X002230Y002533D01*
X001330Y005133D02*
X000130Y005133D01*
X000130Y006183D01*
X000630Y006333D01*
X000630Y006733D01*
X000130Y006883D01*
X000130Y006183D01*
X000130Y006883D02*
X000130Y008183D01*
X000630Y008333D01*
X000630Y008733D01*
X000130Y008883D01*
X000130Y008183D01*
X000130Y008883D02*
X000130Y010183D01*
X000130Y010883D01*
X000630Y010733D01*
X000630Y010333D01*
X000130Y010183D01*
X000130Y010883D02*
X000130Y012183D01*
X000130Y012883D01*
X000630Y012733D01*
X000630Y012333D01*
X000130Y012183D01*
X000130Y012883D02*
X000130Y013933D01*
X001330Y013933D01*
X001330Y005133D01*
X004880Y005133D01*
X004880Y006283D01*
X004880Y006783D02*
X004880Y008283D01*
X004880Y008783D02*
X004880Y010283D01*
X004880Y010783D02*
X004880Y012283D01*
X004880Y012783D02*
X004880Y013933D01*
X001330Y013933D01*
X004580Y015883D02*
X004580Y016633D01*
X004619Y016635D01*
X004658Y016641D01*
X004696Y016650D01*
X004733Y016663D01*
X004769Y016680D01*
X004802Y016700D01*
X004834Y016724D01*
X004863Y016750D01*
X004889Y016779D01*
X004913Y016811D01*
X004933Y016844D01*
X004950Y016880D01*
X004963Y016917D01*
X004972Y016955D01*
X004978Y016994D01*
X004980Y017033D01*
X004978Y017072D01*
X004972Y017111D01*
X004963Y017149D01*
X004950Y017186D01*
X004933Y017222D01*
X004913Y017255D01*
X004889Y017287D01*
X004863Y017316D01*
X004834Y017342D01*
X004802Y017366D01*
X004769Y017386D01*
X004733Y017403D01*
X004696Y017416D01*
X004658Y017425D01*
X004619Y017431D01*
X004580Y017433D01*
X004580Y018183D01*
X012580Y018183D01*
X012580Y019883D01*
X012582Y019900D01*
X012586Y019917D01*
X012593Y019933D01*
X012603Y019947D01*
X012616Y019960D01*
X012630Y019970D01*
X012646Y019977D01*
X012663Y019981D01*
X012680Y019983D01*
X013480Y019983D01*
X013497Y019981D01*
X013514Y019977D01*
X013530Y019970D01*
X013544Y019960D01*
X013557Y019947D01*
X013567Y019933D01*
X013574Y019917D01*
X013578Y019900D01*
X013580Y019883D01*
X013580Y018183D01*
X013580Y017433D01*
X013619Y017431D01*
X013658Y017425D01*
X013696Y017416D01*
X013733Y017403D01*
X013769Y017386D01*
X013802Y017366D01*
X013834Y017342D01*
X013863Y017316D01*
X013889Y017287D01*
X013913Y017255D01*
X013933Y017222D01*
X013950Y017186D01*
X013963Y017149D01*
X013972Y017111D01*
X013978Y017072D01*
X013980Y017033D01*
X013978Y016994D01*
X013972Y016955D01*
X013963Y016917D01*
X013950Y016880D01*
X013933Y016844D01*
X013913Y016811D01*
X013889Y016779D01*
X013863Y016750D01*
X013834Y016724D01*
X013802Y016700D01*
X013769Y016680D01*
X013733Y016663D01*
X013696Y016650D01*
X013658Y016641D01*
X013619Y016635D01*
X013580Y016633D01*
X013580Y015883D01*
X021580Y015883D01*
X021580Y018183D01*
X021580Y019883D01*
X021582Y019900D01*
X021586Y019917D01*
X021593Y019933D01*
X021603Y019947D01*
X021616Y019960D01*
X021630Y019970D01*
X021646Y019977D01*
X021663Y019981D01*
X021680Y019983D01*
X022480Y019983D01*
X022497Y019981D01*
X022514Y019977D01*
X022530Y019970D01*
X022544Y019960D01*
X022557Y019947D01*
X022567Y019933D01*
X022574Y019917D01*
X022578Y019900D01*
X022580Y019883D01*
X022580Y018183D01*
X022580Y017433D01*
X022619Y017431D01*
X022658Y017425D01*
X022696Y017416D01*
X022733Y017403D01*
X022769Y017386D01*
X022802Y017366D01*
X022834Y017342D01*
X022863Y017316D01*
X022889Y017287D01*
X022913Y017255D01*
X022933Y017222D01*
X022950Y017186D01*
X022963Y017149D01*
X022972Y017111D01*
X022978Y017072D01*
X022980Y017033D01*
X022978Y016994D01*
X022972Y016955D01*
X022963Y016917D01*
X022950Y016880D01*
X022933Y016844D01*
X022913Y016811D01*
X022889Y016779D01*
X022863Y016750D01*
X022834Y016724D01*
X022802Y016700D01*
X022769Y016680D01*
X022733Y016663D01*
X022696Y016650D01*
X022658Y016641D01*
X022619Y016635D01*
X022580Y016633D01*
X022580Y015883D01*
X030580Y015883D01*
X030580Y018183D01*
X030580Y019883D01*
X030582Y019900D01*
X030586Y019917D01*
X030593Y019933D01*
X030603Y019947D01*
X030616Y019960D01*
X030630Y019970D01*
X030646Y019977D01*
X030663Y019981D01*
X030680Y019983D01*
X031480Y019983D01*
X031497Y019981D01*
X031514Y019977D01*
X031530Y019970D01*
X031544Y019960D01*
X031557Y019947D01*
X031567Y019933D01*
X031574Y019917D01*
X031578Y019900D01*
X031580Y019883D01*
X031580Y018183D01*
X031580Y017433D01*
X031619Y017431D01*
X031658Y017425D01*
X031696Y017416D01*
X031733Y017403D01*
X031769Y017386D01*
X031802Y017366D01*
X031834Y017342D01*
X031863Y017316D01*
X031889Y017287D01*
X031913Y017255D01*
X031933Y017222D01*
X031950Y017186D01*
X031963Y017149D01*
X031972Y017111D01*
X031978Y017072D01*
X031980Y017033D01*
X031978Y016994D01*
X031972Y016955D01*
X031963Y016917D01*
X031950Y016880D01*
X031933Y016844D01*
X031913Y016811D01*
X031889Y016779D01*
X031863Y016750D01*
X031834Y016724D01*
X031802Y016700D01*
X031769Y016680D01*
X031733Y016663D01*
X031696Y016650D01*
X031658Y016641D01*
X031619Y016635D01*
X031580Y016633D01*
X031580Y015883D01*
X039580Y015883D01*
X039580Y018183D01*
X031580Y018183D01*
X031578Y018166D01*
X031574Y018149D01*
X031567Y018133D01*
X031557Y018119D01*
X031544Y018106D01*
X031530Y018096D01*
X031514Y018089D01*
X031497Y018085D01*
X031480Y018083D01*
X030680Y018083D01*
X030663Y018085D01*
X030646Y018089D01*
X030630Y018096D01*
X030616Y018106D01*
X030603Y018119D01*
X030593Y018133D01*
X030586Y018149D01*
X030582Y018166D01*
X030580Y018183D01*
X022580Y018183D01*
X022578Y018166D01*
X022574Y018149D01*
X022567Y018133D01*
X022557Y018119D01*
X022544Y018106D01*
X022530Y018096D01*
X022514Y018089D01*
X022497Y018085D01*
X022480Y018083D01*
X021680Y018083D01*
X021663Y018085D01*
X021646Y018089D01*
X021630Y018096D01*
X021616Y018106D01*
X021603Y018119D01*
X021593Y018133D01*
X021586Y018149D01*
X021582Y018166D01*
X021580Y018183D01*
X013580Y018183D01*
X013578Y018166D01*
X013574Y018149D01*
X013567Y018133D01*
X013557Y018119D01*
X013544Y018106D01*
X013530Y018096D01*
X013514Y018089D01*
X013497Y018085D01*
X013480Y018083D01*
X012680Y018083D01*
X012663Y018085D01*
X012646Y018089D01*
X012630Y018096D01*
X012616Y018106D01*
X012603Y018119D01*
X012593Y018133D01*
X012586Y018149D01*
X012582Y018166D01*
X012580Y018183D01*
X012580Y015883D01*
X004580Y015883D01*
X009630Y012433D02*
X009630Y011633D01*
X009632Y011616D01*
X009636Y011599D01*
X009643Y011583D01*
X009653Y011569D01*
X009666Y011556D01*
X009680Y011546D01*
X009696Y011539D01*
X009713Y011535D01*
X009730Y011533D01*
X011430Y011533D01*
X011447Y011535D01*
X011464Y011539D01*
X011480Y011546D01*
X011494Y011556D01*
X011507Y011569D01*
X011517Y011583D01*
X011524Y011599D01*
X011528Y011616D01*
X011530Y011633D01*
X011530Y012433D01*
X011528Y012450D01*
X011524Y012467D01*
X011517Y012483D01*
X011507Y012497D01*
X011494Y012510D01*
X011480Y012520D01*
X011464Y012527D01*
X011447Y012531D01*
X011430Y012533D01*
X009730Y012533D01*
X009713Y012531D01*
X009696Y012527D01*
X009680Y012520D01*
X009666Y012510D01*
X009653Y012497D01*
X009643Y012483D01*
X009636Y012467D01*
X009632Y012450D01*
X009630Y012433D01*
X010430Y012033D02*
X010480Y012033D01*
X010680Y012033D02*
X010730Y012033D01*
X009080Y010383D02*
X009080Y008683D01*
X009078Y008666D01*
X009074Y008649D01*
X009067Y008633D01*
X009057Y008619D01*
X009044Y008606D01*
X009030Y008596D01*
X009014Y008589D01*
X008997Y008585D01*
X008980Y008583D01*
X008180Y008583D01*
X008163Y008585D01*
X008146Y008589D01*
X008130Y008596D01*
X008116Y008606D01*
X008103Y008619D01*
X008093Y008633D01*
X008086Y008649D01*
X008082Y008666D01*
X008080Y008683D01*
X008080Y010383D01*
X008082Y010400D01*
X008086Y010417D01*
X008093Y010433D01*
X008103Y010447D01*
X008116Y010460D01*
X008130Y010470D01*
X008146Y010477D01*
X008163Y010481D01*
X008180Y010483D01*
X008980Y010483D01*
X008997Y010481D01*
X009014Y010477D01*
X009030Y010470D01*
X009044Y010460D01*
X009057Y010447D01*
X009067Y010433D01*
X009074Y010417D01*
X009078Y010400D01*
X009080Y010383D01*
X008580Y009683D02*
X008580Y009633D01*
X008580Y009433D02*
X008580Y009383D01*
X012680Y015083D02*
X013480Y015083D01*
X013497Y015085D01*
X013514Y015089D01*
X013530Y015096D01*
X013544Y015106D01*
X013557Y015119D01*
X013567Y015133D01*
X013574Y015149D01*
X013578Y015166D01*
X013580Y015183D01*
X013580Y016883D01*
X013578Y016900D01*
X013574Y016917D01*
X013567Y016933D01*
X013557Y016947D01*
X013544Y016960D01*
X013530Y016970D01*
X013514Y016977D01*
X013497Y016981D01*
X013480Y016983D01*
X012680Y016983D01*
X012663Y016981D01*
X012646Y016977D01*
X012630Y016970D01*
X012616Y016960D01*
X012603Y016947D01*
X012593Y016933D01*
X012586Y016917D01*
X012582Y016900D01*
X012580Y016883D01*
X012580Y015183D01*
X012582Y015166D01*
X012586Y015149D01*
X012593Y015133D01*
X012603Y015119D01*
X012616Y015106D01*
X012630Y015096D01*
X012646Y015089D01*
X012663Y015085D01*
X012680Y015083D01*
X013080Y015883D02*
X013080Y015933D01*
X013080Y016133D02*
X013080Y016183D01*
X013080Y018883D02*
X013080Y018933D01*
X013080Y019133D02*
X013080Y019183D01*
X012830Y020233D02*
X014330Y020233D01*
X014830Y020233D02*
X016330Y020233D01*
X016830Y020233D02*
X018330Y020233D01*
X018830Y020233D02*
X020330Y020233D01*
X020830Y020233D02*
X021980Y020233D01*
X021980Y023783D01*
X021980Y024983D01*
X020930Y024983D01*
X020230Y024983D01*
X018930Y024983D01*
X018230Y024983D01*
X016930Y024983D01*
X016780Y024483D01*
X016380Y024483D01*
X016230Y024983D01*
X014930Y024983D01*
X014780Y024483D01*
X014380Y024483D01*
X014230Y024983D01*
X012930Y024983D01*
X012780Y024483D01*
X012380Y024483D01*
X012230Y024983D01*
X010930Y024983D01*
X010780Y024483D01*
X010380Y024483D01*
X010230Y024983D01*
X008930Y024983D01*
X008780Y024483D01*
X008380Y024483D01*
X008230Y024983D01*
X006930Y024983D01*
X006780Y024483D01*
X006380Y024483D01*
X006230Y024983D01*
X005180Y024983D01*
X005180Y023783D01*
X005180Y020233D01*
X006330Y020233D01*
X006830Y020233D02*
X008330Y020233D01*
X008830Y020233D02*
X010330Y020233D01*
X010830Y020233D02*
X012330Y020233D01*
X005180Y023783D02*
X021980Y023783D01*
X022180Y023783D02*
X022180Y024983D01*
X023230Y024983D01*
X023380Y024483D01*
X023780Y024483D01*
X023930Y024983D01*
X023230Y024983D01*
X023930Y024983D02*
X025230Y024983D01*
X025380Y024483D01*
X025780Y024483D01*
X025930Y024983D01*
X025230Y024983D01*
X025930Y024983D02*
X027230Y024983D01*
X027380Y024483D01*
X027780Y024483D01*
X027930Y024983D01*
X027230Y024983D01*
X027930Y024983D02*
X029230Y024983D01*
X029380Y024483D01*
X029780Y024483D01*
X029930Y024983D01*
X029230Y024983D01*
X029930Y024983D02*
X031230Y024983D01*
X031380Y024483D01*
X031780Y024483D01*
X031930Y024983D01*
X031230Y024983D01*
X031930Y024983D02*
X033230Y024983D01*
X033380Y024483D01*
X033780Y024483D01*
X033930Y024983D01*
X033230Y024983D01*
X033930Y024983D02*
X035230Y024983D01*
X035930Y024983D01*
X035780Y024483D01*
X035380Y024483D01*
X035230Y024983D01*
X035930Y024983D02*
X037230Y024983D01*
X037930Y024983D01*
X037780Y024483D01*
X037380Y024483D01*
X037230Y024983D01*
X037930Y024983D02*
X038980Y024983D01*
X038980Y023783D01*
X022180Y023783D01*
X022180Y020233D01*
X023330Y020233D01*
X023830Y020233D02*
X025330Y020233D01*
X025830Y020233D02*
X027330Y020233D01*
X027830Y020233D02*
X029330Y020233D01*
X029830Y020233D02*
X031330Y020233D01*
X031830Y020233D02*
X033330Y020233D01*
X033830Y020233D02*
X035330Y020233D01*
X035830Y020233D02*
X037330Y020233D01*
X037830Y020233D02*
X038980Y020233D01*
X038980Y023783D01*
X039230Y021033D02*
X039232Y021106D01*
X039238Y021179D01*
X039248Y021251D01*
X039262Y021323D01*
X039279Y021394D01*
X039301Y021464D01*
X039326Y021533D01*
X039355Y021600D01*
X039387Y021665D01*
X039423Y021729D01*
X039463Y021791D01*
X039505Y021850D01*
X039551Y021907D01*
X039600Y021961D01*
X039652Y022013D01*
X039706Y022062D01*
X039763Y022108D01*
X039822Y022150D01*
X039884Y022190D01*
X039948Y022226D01*
X040013Y022258D01*
X040080Y022287D01*
X040149Y022312D01*
X040219Y022334D01*
X040290Y022351D01*
X040362Y022365D01*
X040434Y022375D01*
X040507Y022381D01*
X040580Y022383D01*
X040653Y022381D01*
X040726Y022375D01*
X040798Y022365D01*
X040870Y022351D01*
X040941Y022334D01*
X041011Y022312D01*
X041080Y022287D01*
X041147Y022258D01*
X041212Y022226D01*
X041276Y022190D01*
X041338Y022150D01*
X041397Y022108D01*
X041454Y022062D01*
X041508Y022013D01*
X041560Y021961D01*
X041609Y021907D01*
X041655Y021850D01*
X041697Y021791D01*
X041737Y021729D01*
X041773Y021665D01*
X041805Y021600D01*
X041834Y021533D01*
X041859Y021464D01*
X041881Y021394D01*
X041898Y021323D01*
X041912Y021251D01*
X041922Y021179D01*
X041928Y021106D01*
X041930Y021033D01*
X041928Y020960D01*
X041922Y020887D01*
X041912Y020815D01*
X041898Y020743D01*
X041881Y020672D01*
X041859Y020602D01*
X041834Y020533D01*
X041805Y020466D01*
X041773Y020401D01*
X041737Y020337D01*
X041697Y020275D01*
X041655Y020216D01*
X041609Y020159D01*
X041560Y020105D01*
X041508Y020053D01*
X041454Y020004D01*
X041397Y019958D01*
X041338Y019916D01*
X041276Y019876D01*
X041212Y019840D01*
X041147Y019808D01*
X041080Y019779D01*
X041011Y019754D01*
X040941Y019732D01*
X040870Y019715D01*
X040798Y019701D01*
X040726Y019691D01*
X040653Y019685D01*
X040580Y019683D01*
X040507Y019685D01*
X040434Y019691D01*
X040362Y019701D01*
X040290Y019715D01*
X040219Y019732D01*
X040149Y019754D01*
X040080Y019779D01*
X040013Y019808D01*
X039948Y019840D01*
X039884Y019876D01*
X039822Y019916D01*
X039763Y019958D01*
X039706Y020004D01*
X039652Y020053D01*
X039600Y020105D01*
X039551Y020159D01*
X039505Y020216D01*
X039463Y020275D01*
X039423Y020337D01*
X039387Y020401D01*
X039355Y020466D01*
X039326Y020533D01*
X039301Y020602D01*
X039279Y020672D01*
X039262Y020743D01*
X039248Y020815D01*
X039238Y020887D01*
X039232Y020960D01*
X039230Y021033D01*
X039680Y019483D02*
X040480Y019483D01*
X040497Y019481D01*
X040514Y019477D01*
X040530Y019470D01*
X040544Y019460D01*
X040557Y019447D01*
X040567Y019433D01*
X040574Y019417D01*
X040578Y019400D01*
X040580Y019383D01*
X040580Y017683D01*
X040578Y017666D01*
X040574Y017649D01*
X040567Y017633D01*
X040557Y017619D01*
X040544Y017606D01*
X040530Y017596D01*
X040514Y017589D01*
X040497Y017585D01*
X040480Y017583D01*
X039680Y017583D01*
X039663Y017585D01*
X039646Y017589D01*
X039630Y017596D01*
X039616Y017606D01*
X039603Y017619D01*
X039593Y017633D01*
X039586Y017649D01*
X039582Y017666D01*
X039580Y017683D01*
X039580Y019383D01*
X039582Y019400D01*
X039586Y019417D01*
X039593Y019433D01*
X039603Y019447D01*
X039616Y019460D01*
X039630Y019470D01*
X039646Y019477D01*
X039663Y019481D01*
X039680Y019483D01*
X040080Y018683D02*
X040080Y018633D01*
X040080Y018433D02*
X040080Y018383D01*
X039480Y014483D02*
X038680Y014483D01*
X038663Y014481D01*
X038646Y014477D01*
X038630Y014470D01*
X038616Y014460D01*
X038603Y014447D01*
X038593Y014433D01*
X038586Y014417D01*
X038582Y014400D01*
X038580Y014383D01*
X038580Y012683D01*
X038582Y012666D01*
X038586Y012649D01*
X038593Y012633D01*
X038603Y012619D01*
X038616Y012606D01*
X038630Y012596D01*
X038646Y012589D01*
X038663Y012585D01*
X038680Y012583D01*
X039480Y012583D01*
X039497Y012585D01*
X039514Y012589D01*
X039530Y012596D01*
X039544Y012606D01*
X039557Y012619D01*
X039567Y012633D01*
X039574Y012649D01*
X039578Y012666D01*
X039580Y012683D01*
X039580Y014383D01*
X039578Y014400D01*
X039574Y014417D01*
X039567Y014433D01*
X039557Y014447D01*
X039544Y014460D01*
X039530Y014470D01*
X039514Y014477D01*
X039497Y014481D01*
X039480Y014483D01*
X039080Y013683D02*
X039080Y013633D01*
X039080Y013433D02*
X039080Y013383D01*
X031580Y015183D02*
X031580Y016883D01*
X031578Y016900D01*
X031574Y016917D01*
X031567Y016933D01*
X031557Y016947D01*
X031544Y016960D01*
X031530Y016970D01*
X031514Y016977D01*
X031497Y016981D01*
X031480Y016983D01*
X030680Y016983D01*
X030663Y016981D01*
X030646Y016977D01*
X030630Y016970D01*
X030616Y016960D01*
X030603Y016947D01*
X030593Y016933D01*
X030586Y016917D01*
X030582Y016900D01*
X030580Y016883D01*
X030580Y015183D01*
X030582Y015166D01*
X030586Y015149D01*
X030593Y015133D01*
X030603Y015119D01*
X030616Y015106D01*
X030630Y015096D01*
X030646Y015089D01*
X030663Y015085D01*
X030680Y015083D01*
X031480Y015083D01*
X031497Y015085D01*
X031514Y015089D01*
X031530Y015096D01*
X031544Y015106D01*
X031557Y015119D01*
X031567Y015133D01*
X031574Y015149D01*
X031578Y015166D01*
X031580Y015183D01*
X031080Y015883D02*
X031080Y015933D01*
X031080Y016133D02*
X031080Y016183D01*
X031080Y018883D02*
X031080Y018933D01*
X031080Y019133D02*
X031080Y019183D01*
X022580Y016883D02*
X022580Y015183D01*
X022578Y015166D01*
X022574Y015149D01*
X022567Y015133D01*
X022557Y015119D01*
X022544Y015106D01*
X022530Y015096D01*
X022514Y015089D01*
X022497Y015085D01*
X022480Y015083D01*
X021680Y015083D01*
X021663Y015085D01*
X021646Y015089D01*
X021630Y015096D01*
X021616Y015106D01*
X021603Y015119D01*
X021593Y015133D01*
X021586Y015149D01*
X021582Y015166D01*
X021580Y015183D01*
X021580Y016883D01*
X021582Y016900D01*
X021586Y016917D01*
X021593Y016933D01*
X021603Y016947D01*
X021616Y016960D01*
X021630Y016970D01*
X021646Y016977D01*
X021663Y016981D01*
X021680Y016983D01*
X022480Y016983D01*
X022497Y016981D01*
X022514Y016977D01*
X022530Y016970D01*
X022544Y016960D01*
X022557Y016947D01*
X022567Y016933D01*
X022574Y016917D01*
X022578Y016900D01*
X022580Y016883D01*
X022080Y016183D02*
X022080Y016133D01*
X022080Y015933D02*
X022080Y015883D01*
X022080Y018883D02*
X022080Y018933D01*
X022080Y019133D02*
X022080Y019183D01*
X020780Y024483D02*
X020380Y024483D01*
X020230Y024983D01*
X020930Y024983D02*
X020780Y024483D01*
X018930Y024983D02*
X018780Y024483D01*
X018380Y024483D01*
X018230Y024983D01*
X016930Y024983D02*
X016230Y024983D01*
X014930Y024983D02*
X014230Y024983D01*
X012930Y024983D02*
X012230Y024983D01*
X010930Y024983D02*
X010230Y024983D01*
X008930Y024983D02*
X008230Y024983D01*
X006930Y024983D02*
X006230Y024983D01*
X002230Y021033D02*
X002232Y021106D01*
X002238Y021179D01*
X002248Y021251D01*
X002262Y021323D01*
X002279Y021394D01*
X002301Y021464D01*
X002326Y021533D01*
X002355Y021600D01*
X002387Y021665D01*
X002423Y021729D01*
X002463Y021791D01*
X002505Y021850D01*
X002551Y021907D01*
X002600Y021961D01*
X002652Y022013D01*
X002706Y022062D01*
X002763Y022108D01*
X002822Y022150D01*
X002884Y022190D01*
X002948Y022226D01*
X003013Y022258D01*
X003080Y022287D01*
X003149Y022312D01*
X003219Y022334D01*
X003290Y022351D01*
X003362Y022365D01*
X003434Y022375D01*
X003507Y022381D01*
X003580Y022383D01*
X003653Y022381D01*
X003726Y022375D01*
X003798Y022365D01*
X003870Y022351D01*
X003941Y022334D01*
X004011Y022312D01*
X004080Y022287D01*
X004147Y022258D01*
X004212Y022226D01*
X004276Y022190D01*
X004338Y022150D01*
X004397Y022108D01*
X004454Y022062D01*
X004508Y022013D01*
X004560Y021961D01*
X004609Y021907D01*
X004655Y021850D01*
X004697Y021791D01*
X004737Y021729D01*
X004773Y021665D01*
X004805Y021600D01*
X004834Y021533D01*
X004859Y021464D01*
X004881Y021394D01*
X004898Y021323D01*
X004912Y021251D01*
X004922Y021179D01*
X004928Y021106D01*
X004930Y021033D01*
X004928Y020960D01*
X004922Y020887D01*
X004912Y020815D01*
X004898Y020743D01*
X004881Y020672D01*
X004859Y020602D01*
X004834Y020533D01*
X004805Y020466D01*
X004773Y020401D01*
X004737Y020337D01*
X004697Y020275D01*
X004655Y020216D01*
X004609Y020159D01*
X004560Y020105D01*
X004508Y020053D01*
X004454Y020004D01*
X004397Y019958D01*
X004338Y019916D01*
X004276Y019876D01*
X004212Y019840D01*
X004147Y019808D01*
X004080Y019779D01*
X004011Y019754D01*
X003941Y019732D01*
X003870Y019715D01*
X003798Y019701D01*
X003726Y019691D01*
X003653Y019685D01*
X003580Y019683D01*
X003507Y019685D01*
X003434Y019691D01*
X003362Y019701D01*
X003290Y019715D01*
X003219Y019732D01*
X003149Y019754D01*
X003080Y019779D01*
X003013Y019808D01*
X002948Y019840D01*
X002884Y019876D01*
X002822Y019916D01*
X002763Y019958D01*
X002706Y020004D01*
X002652Y020053D01*
X002600Y020105D01*
X002551Y020159D01*
X002505Y020216D01*
X002463Y020275D01*
X002423Y020337D01*
X002387Y020401D01*
X002355Y020466D01*
X002326Y020533D01*
X002301Y020602D01*
X002279Y020672D01*
X002262Y020743D01*
X002248Y020815D01*
X002238Y020887D01*
X002232Y020960D01*
X002230Y021033D01*
X016610Y003754D02*
X016824Y003540D01*
X017037Y003754D01*
X016610Y003754D02*
X016610Y003113D01*
D12*
X016364Y006568D02*
X016364Y006779D01*
X016364Y006673D02*
X016995Y006673D01*
X016995Y006568D02*
X016995Y006779D01*
X016890Y006998D02*
X016470Y006998D01*
X016364Y007103D01*
X016364Y007313D01*
X016470Y007418D01*
X016575Y007643D02*
X016364Y007853D01*
X016995Y007853D01*
X016995Y007643D02*
X016995Y008063D01*
X016890Y007418D02*
X016995Y007313D01*
X016995Y007103D01*
X016890Y006998D01*
X005745Y012679D02*
X005114Y013100D01*
X005220Y013324D02*
X005114Y013429D01*
X005114Y013639D01*
X005220Y013744D01*
X005325Y013744D01*
X005430Y013639D01*
X005535Y013744D01*
X005640Y013744D01*
X005745Y013639D01*
X005745Y013429D01*
X005640Y013324D01*
X005745Y013100D02*
X005114Y012679D01*
X005430Y013534D02*
X005430Y013639D01*
X005370Y019368D02*
X005791Y019789D01*
X005791Y019894D01*
X005686Y019999D01*
X005476Y019999D01*
X005370Y019894D01*
X005146Y019999D02*
X004726Y019368D01*
X005146Y019368D02*
X004726Y019999D01*
X005370Y019368D02*
X005791Y019368D01*
X034181Y000894D02*
X034181Y000789D01*
X034286Y000684D01*
X034497Y000684D01*
X034602Y000579D01*
X034602Y000473D01*
X034497Y000368D01*
X034286Y000368D01*
X034181Y000473D01*
X034181Y000894D02*
X034286Y000999D01*
X034497Y000999D01*
X034602Y000894D01*
X034826Y000999D02*
X034826Y000579D01*
X035036Y000368D01*
X035246Y000579D01*
X035246Y000999D01*
X035470Y000789D02*
X035681Y000999D01*
X035681Y000368D01*
X035891Y000368D02*
X035470Y000368D01*
X037726Y019368D02*
X038146Y019999D01*
X038370Y019789D02*
X038581Y019999D01*
X038581Y019368D01*
X038791Y019368D02*
X038370Y019368D01*
X038146Y019368D02*
X037726Y019999D01*
D13*
X037945Y020808D02*
X038245Y020808D01*
X038095Y020808D02*
X038095Y021259D01*
X037945Y021109D01*
X036345Y021109D02*
X036045Y020808D01*
X036345Y020808D01*
X036345Y021109D02*
X036345Y021184D01*
X036270Y021259D01*
X036120Y021259D01*
X036045Y021184D01*
X034345Y021184D02*
X034345Y021109D01*
X034270Y021034D01*
X034345Y020958D01*
X034345Y020883D01*
X034270Y020808D01*
X034120Y020808D01*
X034045Y020883D01*
X034195Y021034D02*
X034270Y021034D01*
X034345Y021184D02*
X034270Y021259D01*
X034120Y021259D01*
X034045Y021184D01*
X032345Y021034D02*
X032045Y021034D01*
X032270Y021259D01*
X032270Y020808D01*
X032080Y019798D02*
X032005Y019798D01*
X031930Y019723D01*
X031930Y019498D01*
X032080Y019498D01*
X032155Y019573D01*
X032155Y019723D01*
X032080Y019798D01*
X031780Y019648D02*
X031930Y019498D01*
X031780Y019648D02*
X031705Y019798D01*
X031780Y019338D02*
X031705Y019263D01*
X031705Y019113D01*
X031780Y019038D01*
X032080Y019038D01*
X032155Y019113D01*
X032155Y019263D01*
X032080Y019338D01*
X030345Y020883D02*
X030270Y020808D01*
X030120Y020808D01*
X030045Y020883D01*
X030045Y021034D02*
X030195Y021109D01*
X030270Y021109D01*
X030345Y021034D01*
X030345Y020883D01*
X030045Y021034D02*
X030045Y021259D01*
X030345Y021259D01*
X028345Y021259D02*
X028195Y021184D01*
X028045Y021034D01*
X028270Y021034D01*
X028345Y020958D01*
X028345Y020883D01*
X028270Y020808D01*
X028120Y020808D01*
X028045Y020883D01*
X028045Y021034D01*
X026345Y021184D02*
X026045Y020883D01*
X026045Y020808D01*
X026045Y021259D02*
X026345Y021259D01*
X026345Y021184D01*
X024345Y021184D02*
X024345Y021109D01*
X024270Y021034D01*
X024120Y021034D01*
X024045Y021109D01*
X024045Y021184D01*
X024120Y021259D01*
X024270Y021259D01*
X024345Y021184D01*
X024270Y021034D02*
X024345Y020958D01*
X024345Y020883D01*
X024270Y020808D01*
X024120Y020808D01*
X024045Y020883D01*
X024045Y020958D01*
X024120Y021034D01*
X022780Y019798D02*
X023080Y019498D01*
X023155Y019498D01*
X023080Y019338D02*
X023155Y019263D01*
X023155Y019113D01*
X023080Y019038D01*
X022780Y019038D01*
X022705Y019113D01*
X022705Y019263D01*
X022780Y019338D01*
X022705Y019498D02*
X022705Y019798D01*
X022780Y019798D01*
X021245Y020808D02*
X020945Y020808D01*
X021095Y020808D02*
X021095Y021259D01*
X020945Y021109D01*
X019345Y021109D02*
X019345Y021184D01*
X019270Y021259D01*
X019120Y021259D01*
X019045Y021184D01*
X019345Y021109D02*
X019045Y020808D01*
X019345Y020808D01*
X017345Y020883D02*
X017270Y020808D01*
X017120Y020808D01*
X017045Y020883D01*
X017195Y021034D02*
X017270Y021034D01*
X017345Y020958D01*
X017345Y020883D01*
X017270Y021034D02*
X017345Y021109D01*
X017345Y021184D01*
X017270Y021259D01*
X017120Y021259D01*
X017045Y021184D01*
X015345Y021034D02*
X015045Y021034D01*
X015270Y021259D01*
X015270Y020808D01*
X014466Y020034D02*
X014391Y020109D01*
X014240Y020109D01*
X014165Y020034D01*
X014165Y019959D01*
X014240Y019884D01*
X014466Y019884D01*
X014466Y020034D02*
X014466Y019733D01*
X014391Y019658D01*
X014240Y019658D01*
X014165Y019733D01*
X014005Y019733D02*
X013930Y019658D01*
X013780Y019658D01*
X013705Y019733D01*
X013705Y020034D01*
X013780Y020109D01*
X013930Y020109D01*
X014005Y020034D01*
X013270Y020808D02*
X013120Y020808D01*
X013045Y020883D01*
X013045Y021034D02*
X013195Y021109D01*
X013270Y021109D01*
X013345Y021034D01*
X013345Y020883D01*
X013270Y020808D01*
X013045Y021034D02*
X013045Y021259D01*
X013345Y021259D01*
X011345Y021259D02*
X011195Y021184D01*
X011045Y021034D01*
X011270Y021034D01*
X011345Y020958D01*
X011345Y020883D01*
X011270Y020808D01*
X011120Y020808D01*
X011045Y020883D01*
X011045Y021034D01*
X009345Y021184D02*
X009045Y020883D01*
X009045Y020808D01*
X009045Y021259D02*
X009345Y021259D01*
X009345Y021184D01*
X007345Y021184D02*
X007345Y021109D01*
X007270Y021034D01*
X007120Y021034D01*
X007045Y021109D01*
X007045Y021184D01*
X007120Y021259D01*
X007270Y021259D01*
X007345Y021184D01*
X007270Y021034D02*
X007345Y020958D01*
X007345Y020883D01*
X007270Y020808D01*
X007120Y020808D01*
X007045Y020883D01*
X007045Y020958D01*
X007120Y021034D01*
X012659Y014909D02*
X012584Y014834D01*
X012584Y014533D01*
X012659Y014458D01*
X012809Y014458D01*
X012884Y014533D01*
X013045Y014458D02*
X013345Y014759D01*
X013345Y014834D01*
X013270Y014909D01*
X013120Y014909D01*
X013045Y014834D01*
X012884Y014834D02*
X012809Y014909D01*
X012659Y014909D01*
X013045Y014458D02*
X013345Y014458D01*
X013955Y014659D02*
X014105Y014659D01*
X014030Y014659D02*
X014030Y014208D01*
X013955Y014208D02*
X014105Y014208D01*
X014262Y014283D02*
X014337Y014208D01*
X014487Y014208D01*
X014562Y014283D01*
X014722Y014283D02*
X014797Y014208D01*
X014948Y014208D01*
X015023Y014283D01*
X015023Y014358D01*
X014948Y014434D01*
X014872Y014434D01*
X014948Y014434D02*
X015023Y014509D01*
X015023Y014584D01*
X014948Y014659D01*
X014797Y014659D01*
X014722Y014584D01*
X014562Y014584D02*
X014487Y014659D01*
X014337Y014659D01*
X014262Y014584D01*
X014262Y014283D01*
X011195Y011409D02*
X011195Y010958D01*
X011045Y010958D02*
X011345Y010958D01*
X011045Y011259D02*
X011195Y011409D01*
X010734Y011409D02*
X010734Y010958D01*
X010584Y010958D02*
X010884Y010958D01*
X010584Y011259D02*
X010734Y011409D01*
X010424Y011334D02*
X010349Y011409D01*
X010199Y011409D01*
X010124Y011334D01*
X010124Y011033D01*
X010199Y010958D01*
X010349Y010958D01*
X010424Y011033D01*
X008695Y008409D02*
X008695Y007958D01*
X008545Y007958D02*
X008845Y007958D01*
X008545Y008259D02*
X008695Y008409D01*
X008384Y008334D02*
X008309Y008409D01*
X008159Y008409D01*
X008084Y008334D01*
X008084Y008033D01*
X008159Y007958D01*
X008309Y007958D01*
X008384Y008033D01*
X004305Y007223D02*
X003855Y007223D01*
X004080Y006998D01*
X004080Y007298D01*
X004230Y008998D02*
X004305Y009073D01*
X004305Y009223D01*
X004230Y009298D01*
X004155Y009298D01*
X004080Y009223D01*
X004080Y009148D01*
X004080Y009223D02*
X004005Y009298D01*
X003930Y009298D01*
X003855Y009223D01*
X003855Y009073D01*
X003930Y008998D01*
X003930Y010998D02*
X003855Y011073D01*
X003855Y011223D01*
X003930Y011298D01*
X004005Y011298D01*
X004305Y010998D01*
X004305Y011298D01*
X004305Y012898D02*
X004305Y013198D01*
X004305Y013048D02*
X003855Y013048D01*
X004005Y012898D01*
X004955Y014208D02*
X005105Y014208D01*
X005030Y014208D02*
X005030Y014659D01*
X004955Y014659D02*
X005105Y014659D01*
X005262Y014584D02*
X005262Y014283D01*
X005337Y014208D01*
X005487Y014208D01*
X005562Y014283D01*
X005722Y014208D02*
X006023Y014509D01*
X006023Y014584D01*
X005948Y014659D01*
X005797Y014659D01*
X005722Y014584D01*
X005562Y014584D02*
X005487Y014659D01*
X005337Y014659D01*
X005262Y014584D01*
X005722Y014208D02*
X006023Y014208D01*
X021584Y014533D02*
X021659Y014458D01*
X021809Y014458D01*
X021884Y014533D01*
X022045Y014533D02*
X022120Y014458D01*
X022270Y014458D01*
X022345Y014533D01*
X022345Y014608D01*
X022270Y014684D01*
X022195Y014684D01*
X022270Y014684D02*
X022345Y014759D01*
X022345Y014834D01*
X022270Y014909D01*
X022120Y014909D01*
X022045Y014834D01*
X021884Y014834D02*
X021809Y014909D01*
X021659Y014909D01*
X021584Y014834D01*
X021584Y014533D01*
X022955Y014659D02*
X023105Y014659D01*
X023030Y014659D02*
X023030Y014208D01*
X022955Y014208D02*
X023105Y014208D01*
X023262Y014283D02*
X023337Y014208D01*
X023487Y014208D01*
X023562Y014283D01*
X023722Y014434D02*
X024023Y014434D01*
X023948Y014659D02*
X023948Y014208D01*
X023722Y014434D02*
X023948Y014659D01*
X023562Y014584D02*
X023487Y014659D01*
X023337Y014659D01*
X023262Y014584D01*
X023262Y014283D01*
X030584Y014533D02*
X030659Y014458D01*
X030809Y014458D01*
X030884Y014533D01*
X031045Y014684D02*
X031345Y014684D01*
X031270Y014909D02*
X031270Y014458D01*
X031045Y014684D02*
X031270Y014909D01*
X030884Y014834D02*
X030809Y014909D01*
X030659Y014909D01*
X030584Y014834D01*
X030584Y014533D01*
X031955Y014659D02*
X032105Y014659D01*
X032030Y014659D02*
X032030Y014208D01*
X031955Y014208D02*
X032105Y014208D01*
X032262Y014283D02*
X032337Y014208D01*
X032487Y014208D01*
X032562Y014283D01*
X032722Y014283D02*
X032797Y014208D01*
X032948Y014208D01*
X033023Y014283D01*
X033023Y014434D01*
X032948Y014509D01*
X032872Y014509D01*
X032722Y014434D01*
X032722Y014659D01*
X033023Y014659D01*
X032562Y014584D02*
X032487Y014659D01*
X032337Y014659D01*
X032262Y014584D01*
X032262Y014283D01*
X032255Y010379D02*
X032330Y010379D01*
X032405Y010304D01*
X032405Y010154D01*
X032330Y010079D01*
X032180Y010229D02*
X032180Y010304D01*
X032255Y010379D01*
X032180Y010304D02*
X032105Y010379D01*
X032030Y010379D01*
X031955Y010304D01*
X031955Y010154D01*
X032030Y010079D01*
X032030Y009919D02*
X032180Y009919D01*
X032255Y009844D01*
X032255Y009619D01*
X032405Y009619D02*
X031955Y009619D01*
X031955Y009844D01*
X032030Y009919D01*
X031955Y009459D02*
X031955Y009308D01*
X031955Y009384D02*
X032330Y009384D01*
X032405Y009308D01*
X032405Y009233D01*
X032330Y009158D01*
X032765Y008728D02*
X032821Y008785D01*
X032878Y008785D01*
X032935Y008728D01*
X032992Y008785D01*
X033048Y008785D01*
X033105Y008728D01*
X033105Y008615D01*
X033048Y008558D01*
X032935Y008672D02*
X032935Y008728D01*
X032765Y008728D02*
X032765Y008615D01*
X032821Y008558D01*
X032821Y007785D02*
X032765Y007728D01*
X032765Y007615D01*
X032821Y007558D01*
X032821Y007785D02*
X032878Y007785D01*
X033105Y007558D01*
X033105Y007785D01*
X033105Y006785D02*
X033105Y006558D01*
X033105Y006672D02*
X032765Y006672D01*
X032878Y006558D01*
X034765Y006672D02*
X035105Y006672D01*
X035105Y006785D02*
X035105Y006558D01*
X034878Y006558D02*
X034765Y006672D01*
X034821Y007558D02*
X034765Y007615D01*
X034765Y007728D01*
X034821Y007785D01*
X034878Y007785D01*
X035105Y007558D01*
X035105Y007785D01*
X036765Y007728D02*
X036765Y007615D01*
X036821Y007558D01*
X036765Y007728D02*
X036821Y007785D01*
X036878Y007785D01*
X037105Y007558D01*
X037105Y007785D01*
X037105Y006785D02*
X037105Y006558D01*
X037105Y006672D02*
X036765Y006672D01*
X036878Y006558D01*
X036821Y008558D02*
X036765Y008615D01*
X036765Y008728D01*
X036821Y008785D01*
X036878Y008785D01*
X036935Y008728D01*
X036992Y008785D01*
X037048Y008785D01*
X037105Y008728D01*
X037105Y008615D01*
X037048Y008558D01*
X036935Y008672D02*
X036935Y008728D01*
X036405Y009233D02*
X036330Y009158D01*
X036405Y009233D02*
X036405Y009308D01*
X036330Y009384D01*
X035955Y009384D01*
X035955Y009459D02*
X035955Y009308D01*
X035955Y009619D02*
X035955Y009844D01*
X036030Y009919D01*
X036180Y009919D01*
X036255Y009844D01*
X036255Y009619D01*
X036405Y009619D02*
X035955Y009619D01*
X036105Y010079D02*
X035955Y010229D01*
X036405Y010229D01*
X036405Y010079D02*
X036405Y010379D01*
X034405Y010379D02*
X034405Y010079D01*
X034105Y010379D01*
X034030Y010379D01*
X033955Y010304D01*
X033955Y010154D01*
X034030Y010079D01*
X034030Y009919D02*
X034180Y009919D01*
X034255Y009844D01*
X034255Y009619D01*
X034405Y009619D02*
X033955Y009619D01*
X033955Y009844D01*
X034030Y009919D01*
X033955Y009459D02*
X033955Y009308D01*
X033955Y009384D02*
X034330Y009384D01*
X034405Y009308D01*
X034405Y009233D01*
X034330Y009158D01*
X034765Y008728D02*
X034821Y008785D01*
X034878Y008785D01*
X034935Y008728D01*
X034992Y008785D01*
X035048Y008785D01*
X035105Y008728D01*
X035105Y008615D01*
X035048Y008558D01*
X034935Y008672D02*
X034935Y008728D01*
X034765Y008728D02*
X034765Y008615D01*
X034821Y008558D01*
X032270Y004609D02*
X032345Y004534D01*
X032045Y004233D01*
X032120Y004158D01*
X032270Y004158D01*
X032345Y004233D01*
X032345Y004534D01*
X032270Y004609D02*
X032120Y004609D01*
X032045Y004534D01*
X032045Y004233D01*
X031884Y004158D02*
X031584Y004158D01*
X031734Y004158D02*
X031734Y004609D01*
X031584Y004459D01*
X034645Y003609D02*
X034795Y003759D01*
X034795Y003308D01*
X034645Y003308D02*
X034945Y003308D01*
X034870Y002759D02*
X034720Y002759D01*
X034645Y002684D01*
X034870Y002759D02*
X034945Y002684D01*
X034945Y002609D01*
X034645Y002308D01*
X034945Y002308D01*
X024845Y004033D02*
X024770Y003958D01*
X024620Y003958D01*
X024545Y004033D01*
X024545Y004108D01*
X024620Y004184D01*
X024770Y004184D01*
X024845Y004108D01*
X024845Y004033D01*
X024770Y004184D02*
X024845Y004259D01*
X024845Y004334D01*
X024770Y004409D01*
X024620Y004409D01*
X024545Y004334D01*
X024545Y004259D01*
X024620Y004184D01*
X024384Y004334D02*
X024309Y004409D01*
X024159Y004409D01*
X024084Y004334D01*
X024084Y004033D01*
X024159Y003958D01*
X024309Y003958D01*
X024384Y004033D01*
X039705Y013152D02*
X039780Y013077D01*
X040080Y013077D01*
X040155Y013152D01*
X040155Y013302D01*
X040080Y013377D01*
X040155Y013538D02*
X040155Y013838D01*
X040155Y013688D02*
X039705Y013688D01*
X039855Y013538D01*
X039780Y013377D02*
X039705Y013302D01*
X039705Y013152D01*
X039780Y013998D02*
X039705Y014073D01*
X039705Y014223D01*
X039780Y014298D01*
X040080Y013998D01*
X040155Y014073D01*
X040155Y014223D01*
X040080Y014298D01*
X039780Y014298D01*
X039780Y013998D02*
X040080Y013998D01*
X040780Y018538D02*
X041080Y018538D01*
X041155Y018613D01*
X041155Y018763D01*
X041080Y018838D01*
X041080Y018998D02*
X041155Y019073D01*
X041155Y019223D01*
X041080Y019298D01*
X040930Y019298D01*
X040855Y019223D01*
X040855Y019148D01*
X040930Y018998D01*
X040705Y018998D01*
X040705Y019298D01*
X040780Y018838D02*
X040705Y018763D01*
X040705Y018613D01*
X040780Y018538D01*
D14*
X035680Y004383D02*
X032880Y004383D01*
X031280Y004383D02*
X030880Y004383D01*
X030280Y004383D02*
X028480Y004383D01*
X028480Y001683D01*
X035680Y001683D01*
X035680Y004383D01*
D15*
X026180Y004533D02*
X026180Y004233D01*
X025980Y004233D02*
X025980Y004533D01*
X025980Y004833D01*
X026180Y004833D02*
X026180Y004533D01*
X038780Y013433D02*
X039080Y013433D01*
X039380Y013433D01*
X039380Y013633D02*
X039080Y013633D01*
X038780Y013633D01*
X031380Y015933D02*
X031080Y015933D01*
X030780Y015933D01*
X030780Y016133D02*
X031080Y016133D01*
X031380Y016133D01*
X031380Y018933D02*
X031080Y018933D01*
X030780Y018933D01*
X030780Y019133D02*
X031080Y019133D01*
X031380Y019133D01*
X039780Y018633D02*
X040080Y018633D01*
X040380Y018633D01*
X040380Y018433D02*
X040080Y018433D01*
X039780Y018433D01*
X022380Y018933D02*
X022080Y018933D01*
X021780Y018933D01*
X021780Y019133D02*
X022080Y019133D01*
X022380Y019133D01*
X022380Y016133D02*
X022080Y016133D01*
X021780Y016133D01*
X021780Y015933D02*
X022080Y015933D01*
X022380Y015933D01*
X013380Y015933D02*
X013080Y015933D01*
X012780Y015933D01*
X012780Y016133D02*
X013080Y016133D01*
X013380Y016133D01*
X013380Y018933D02*
X013080Y018933D01*
X012780Y018933D01*
X012780Y019133D02*
X013080Y019133D01*
X013380Y019133D01*
X010680Y012333D02*
X010680Y012033D01*
X010680Y011733D01*
X010480Y011733D02*
X010480Y012033D01*
X010480Y012333D01*
X008880Y009633D02*
X008580Y009633D01*
X008280Y009633D01*
X008280Y009433D02*
X008580Y009433D01*
X008880Y009433D01*
D16*
X002950Y002533D02*
X002952Y002583D01*
X002958Y002633D01*
X002968Y002682D01*
X002982Y002730D01*
X002999Y002777D01*
X003020Y002822D01*
X003045Y002866D01*
X003073Y002907D01*
X003105Y002946D01*
X003139Y002983D01*
X003176Y003017D01*
X003216Y003047D01*
X003258Y003074D01*
X003302Y003098D01*
X003348Y003119D01*
X003395Y003135D01*
X003443Y003148D01*
X003493Y003157D01*
X003542Y003162D01*
X003593Y003163D01*
X003643Y003160D01*
X003692Y003153D01*
X003741Y003142D01*
X003789Y003127D01*
X003835Y003109D01*
X003880Y003087D01*
X003923Y003061D01*
X003964Y003032D01*
X004003Y003000D01*
X004039Y002965D01*
X004071Y002927D01*
X004101Y002887D01*
X004128Y002844D01*
X004151Y002800D01*
X004170Y002754D01*
X004186Y002706D01*
X004198Y002657D01*
X004206Y002608D01*
X004210Y002558D01*
X004210Y002508D01*
X004206Y002458D01*
X004198Y002409D01*
X004186Y002360D01*
X004170Y002312D01*
X004151Y002266D01*
X004128Y002222D01*
X004101Y002179D01*
X004071Y002139D01*
X004039Y002101D01*
X004003Y002066D01*
X003964Y002034D01*
X003923Y002005D01*
X003880Y001979D01*
X003835Y001957D01*
X003789Y001939D01*
X003741Y001924D01*
X003692Y001913D01*
X003643Y001906D01*
X003593Y001903D01*
X003542Y001904D01*
X003493Y001909D01*
X003443Y001918D01*
X003395Y001931D01*
X003348Y001947D01*
X003302Y001968D01*
X003258Y001992D01*
X003216Y002019D01*
X003176Y002049D01*
X003139Y002083D01*
X003105Y002120D01*
X003073Y002159D01*
X003045Y002200D01*
X003020Y002244D01*
X002999Y002289D01*
X002982Y002336D01*
X002968Y002384D01*
X002958Y002433D01*
X002952Y002483D01*
X002950Y002533D01*
X002950Y021033D02*
X002952Y021083D01*
X002958Y021133D01*
X002968Y021182D01*
X002982Y021230D01*
X002999Y021277D01*
X003020Y021322D01*
X003045Y021366D01*
X003073Y021407D01*
X003105Y021446D01*
X003139Y021483D01*
X003176Y021517D01*
X003216Y021547D01*
X003258Y021574D01*
X003302Y021598D01*
X003348Y021619D01*
X003395Y021635D01*
X003443Y021648D01*
X003493Y021657D01*
X003542Y021662D01*
X003593Y021663D01*
X003643Y021660D01*
X003692Y021653D01*
X003741Y021642D01*
X003789Y021627D01*
X003835Y021609D01*
X003880Y021587D01*
X003923Y021561D01*
X003964Y021532D01*
X004003Y021500D01*
X004039Y021465D01*
X004071Y021427D01*
X004101Y021387D01*
X004128Y021344D01*
X004151Y021300D01*
X004170Y021254D01*
X004186Y021206D01*
X004198Y021157D01*
X004206Y021108D01*
X004210Y021058D01*
X004210Y021008D01*
X004206Y020958D01*
X004198Y020909D01*
X004186Y020860D01*
X004170Y020812D01*
X004151Y020766D01*
X004128Y020722D01*
X004101Y020679D01*
X004071Y020639D01*
X004039Y020601D01*
X004003Y020566D01*
X003964Y020534D01*
X003923Y020505D01*
X003880Y020479D01*
X003835Y020457D01*
X003789Y020439D01*
X003741Y020424D01*
X003692Y020413D01*
X003643Y020406D01*
X003593Y020403D01*
X003542Y020404D01*
X003493Y020409D01*
X003443Y020418D01*
X003395Y020431D01*
X003348Y020447D01*
X003302Y020468D01*
X003258Y020492D01*
X003216Y020519D01*
X003176Y020549D01*
X003139Y020583D01*
X003105Y020620D01*
X003073Y020659D01*
X003045Y020700D01*
X003020Y020744D01*
X002999Y020789D01*
X002982Y020836D01*
X002968Y020884D01*
X002958Y020933D01*
X002952Y020983D01*
X002950Y021033D01*
X039950Y021033D02*
X039952Y021083D01*
X039958Y021133D01*
X039968Y021182D01*
X039982Y021230D01*
X039999Y021277D01*
X040020Y021322D01*
X040045Y021366D01*
X040073Y021407D01*
X040105Y021446D01*
X040139Y021483D01*
X040176Y021517D01*
X040216Y021547D01*
X040258Y021574D01*
X040302Y021598D01*
X040348Y021619D01*
X040395Y021635D01*
X040443Y021648D01*
X040493Y021657D01*
X040542Y021662D01*
X040593Y021663D01*
X040643Y021660D01*
X040692Y021653D01*
X040741Y021642D01*
X040789Y021627D01*
X040835Y021609D01*
X040880Y021587D01*
X040923Y021561D01*
X040964Y021532D01*
X041003Y021500D01*
X041039Y021465D01*
X041071Y021427D01*
X041101Y021387D01*
X041128Y021344D01*
X041151Y021300D01*
X041170Y021254D01*
X041186Y021206D01*
X041198Y021157D01*
X041206Y021108D01*
X041210Y021058D01*
X041210Y021008D01*
X041206Y020958D01*
X041198Y020909D01*
X041186Y020860D01*
X041170Y020812D01*
X041151Y020766D01*
X041128Y020722D01*
X041101Y020679D01*
X041071Y020639D01*
X041039Y020601D01*
X041003Y020566D01*
X040964Y020534D01*
X040923Y020505D01*
X040880Y020479D01*
X040835Y020457D01*
X040789Y020439D01*
X040741Y020424D01*
X040692Y020413D01*
X040643Y020406D01*
X040593Y020403D01*
X040542Y020404D01*
X040493Y020409D01*
X040443Y020418D01*
X040395Y020431D01*
X040348Y020447D01*
X040302Y020468D01*
X040258Y020492D01*
X040216Y020519D01*
X040176Y020549D01*
X040139Y020583D01*
X040105Y020620D01*
X040073Y020659D01*
X040045Y020700D01*
X040020Y020744D01*
X039999Y020789D01*
X039982Y020836D01*
X039968Y020884D01*
X039958Y020933D01*
X039952Y020983D01*
X039950Y021033D01*
X039950Y002533D02*
X039952Y002583D01*
X039958Y002633D01*
X039968Y002682D01*
X039982Y002730D01*
X039999Y002777D01*
X040020Y002822D01*
X040045Y002866D01*
X040073Y002907D01*
X040105Y002946D01*
X040139Y002983D01*
X040176Y003017D01*
X040216Y003047D01*
X040258Y003074D01*
X040302Y003098D01*
X040348Y003119D01*
X040395Y003135D01*
X040443Y003148D01*
X040493Y003157D01*
X040542Y003162D01*
X040593Y003163D01*
X040643Y003160D01*
X040692Y003153D01*
X040741Y003142D01*
X040789Y003127D01*
X040835Y003109D01*
X040880Y003087D01*
X040923Y003061D01*
X040964Y003032D01*
X041003Y003000D01*
X041039Y002965D01*
X041071Y002927D01*
X041101Y002887D01*
X041128Y002844D01*
X041151Y002800D01*
X041170Y002754D01*
X041186Y002706D01*
X041198Y002657D01*
X041206Y002608D01*
X041210Y002558D01*
X041210Y002508D01*
X041206Y002458D01*
X041198Y002409D01*
X041186Y002360D01*
X041170Y002312D01*
X041151Y002266D01*
X041128Y002222D01*
X041101Y002179D01*
X041071Y002139D01*
X041039Y002101D01*
X041003Y002066D01*
X040964Y002034D01*
X040923Y002005D01*
X040880Y001979D01*
X040835Y001957D01*
X040789Y001939D01*
X040741Y001924D01*
X040692Y001913D01*
X040643Y001906D01*
X040593Y001903D01*
X040542Y001904D01*
X040493Y001909D01*
X040443Y001918D01*
X040395Y001931D01*
X040348Y001947D01*
X040302Y001968D01*
X040258Y001992D01*
X040216Y002019D01*
X040176Y002049D01*
X040139Y002083D01*
X040105Y002120D01*
X040073Y002159D01*
X040045Y002200D01*
X040020Y002244D01*
X039999Y002289D01*
X039982Y002336D01*
X039968Y002384D01*
X039958Y002433D01*
X039952Y002483D01*
X039950Y002533D01*
M02*
