%
M48
M72
T01C0.0276
T02C0.0320
T03C0.0360
T04C0.0550
T05C0.1181
%
T01
X7330Y5783
X9330Y6283
X11830Y4783
X12330Y4783
X11580Y3783
X14580Y3783
X13080Y5783
X32080Y13033
T02
X32080Y15533
X33080Y15533
X34080Y15533
X35080Y15533
X36080Y15533
X37080Y15533
X38080Y15533
X39080Y15533
X39080Y14033
X39080Y13033
X31080Y15533
X30080Y15533
X29080Y15533
X28080Y15533
X27080Y15533
X26080Y15533
X25080Y15533
X24080Y15533
X23080Y15533
X22080Y15533
X21080Y15533
X20080Y15533
X19080Y15533
X18080Y15533
X17080Y15533
X16080Y15533
X15080Y15533
X14080Y15533
X13080Y15533
X12080Y15533
X11080Y15533
X10080Y15533
X9080Y15533
X8080Y15533
X7080Y15533
X6080Y15533
X5080Y15533
X5080Y18533
X6080Y18533
X7080Y18533
X8080Y18533
X9080Y18533
X10080Y18533
X11080Y18533
X12080Y18533
X13080Y18533
X14080Y18533
X15080Y18533
X16080Y18533
X17080Y18533
X18080Y18533
X19080Y18533
X20080Y18533
X21080Y18533
X22080Y18533
X23080Y18533
X24080Y18533
X25080Y18533
X26080Y18533
X27080Y18533
X28080Y18533
X29080Y18533
X30080Y18533
X31080Y18533
X32080Y18533
X33080Y18533
X34080Y18533
X35080Y18533
X36080Y18533
X37080Y18533
X38080Y18533
X39080Y18533
X40080Y18033
X40080Y19033
X31080Y19533
X31080Y16533
X22080Y16533
X22080Y19533
X13080Y19533
X13080Y16533
X11080Y12033
X10080Y12033
X8580Y10033
X8580Y9033
X17580Y9033
X18580Y9033
X19580Y9033
X20580Y9033
X21580Y9033
X22580Y9033
X23580Y9033
X24580Y9033
X25580Y9033
X26580Y9033
X27580Y9033
X28580Y9033
X29580Y9033
X30580Y9033
X30580Y6033
X29580Y6033
X28580Y6033
X27580Y6033
X26580Y6033
X25580Y6033
X24580Y6033
X23580Y6033
X22580Y6033
X21580Y6033
X20580Y6033
X19580Y6033
X18580Y6033
X17580Y6033
X25580Y4533
X26580Y4533
T03
X30080Y3533
X31080Y3533
X32080Y3533
X33080Y3533
X34080Y3533
X34080Y2533
X33080Y2533
X32080Y2533
X31080Y2533
X30080Y2533
X32080Y6533
X32080Y7533
X32080Y8533
X34080Y8533
X34080Y7533
X34080Y6533
X36080Y6533
X36080Y7533
X36080Y8533
T04
X35580Y21033
X37580Y21033
X33580Y21033
X31580Y21033
X29580Y21033
X27580Y21033
X25580Y21033
X23580Y21033
X20580Y21033
X18580Y21033
X16580Y21033
X14580Y21033
X12580Y21033
X10580Y21033
X8580Y21033
X6580Y21033
X4080Y12533
X4080Y10533
X4080Y8533
X4080Y6533
T05
X3580Y2533
X3580Y21033
X40580Y21033
X40580Y2533
M30
