G75*
G70*
%OFA0B0*%
%FSLAX24Y24*%
%IPPOS*%
%LPD*%
%AMOC8*
5,1,8,0,0,1.08239X$1,22.5*
%
%ADD10C,0.0520*%
%ADD11C,0.0825*%
%ADD12C,0.0560*%
%ADD13OC8,0.0560*%
%ADD14OC8,0.0520*%
%ADD15C,0.0500*%
%ADD16C,0.0160*%
%ADD17C,0.0320*%
%ADD18OC8,0.0436*%
D10*
X017580Y005773D02*
X017580Y006293D01*
X018580Y006293D02*
X018580Y005773D01*
X019580Y005773D02*
X019580Y006293D01*
X020580Y006293D02*
X020580Y005773D01*
X021580Y005773D02*
X021580Y006293D01*
X022580Y006293D02*
X022580Y005773D01*
X023580Y005773D02*
X023580Y006293D01*
X024580Y006293D02*
X024580Y005773D01*
X025580Y005773D02*
X025580Y006293D01*
X026580Y006293D02*
X026580Y005773D01*
X027580Y005773D02*
X027580Y006293D01*
X028580Y006293D02*
X028580Y005773D01*
X029580Y005773D02*
X029580Y006293D01*
X030580Y006293D02*
X030580Y005773D01*
X030580Y008773D02*
X030580Y009293D01*
X029580Y009293D02*
X029580Y008773D01*
X028580Y008773D02*
X028580Y009293D01*
X027580Y009293D02*
X027580Y008773D01*
X026580Y008773D02*
X026580Y009293D01*
X025580Y009293D02*
X025580Y008773D01*
X024580Y008773D02*
X024580Y009293D01*
X023580Y009293D02*
X023580Y008773D01*
X022580Y008773D02*
X022580Y009293D01*
X021580Y009293D02*
X021580Y008773D01*
X020580Y008773D02*
X020580Y009293D01*
X019580Y009293D02*
X019580Y008773D01*
X018580Y008773D02*
X018580Y009293D01*
X017580Y009293D02*
X017580Y008773D01*
X017080Y015273D02*
X017080Y015793D01*
X016080Y015793D02*
X016080Y015273D01*
X015080Y015273D02*
X015080Y015793D01*
X014080Y015793D02*
X014080Y015273D01*
X012080Y015273D02*
X012080Y015793D01*
X011080Y015793D02*
X011080Y015273D01*
X010080Y015273D02*
X010080Y015793D01*
X009080Y015793D02*
X009080Y015273D01*
X008080Y015273D02*
X008080Y015793D01*
X007080Y015793D02*
X007080Y015273D01*
X006080Y015273D02*
X006080Y015793D01*
X005080Y015793D02*
X005080Y015273D01*
X005080Y018273D02*
X005080Y018793D01*
X006080Y018793D02*
X006080Y018273D01*
X007080Y018273D02*
X007080Y018793D01*
X008080Y018793D02*
X008080Y018273D01*
X009080Y018273D02*
X009080Y018793D01*
X010080Y018793D02*
X010080Y018273D01*
X011080Y018273D02*
X011080Y018793D01*
X012080Y018793D02*
X012080Y018273D01*
X014080Y018273D02*
X014080Y018793D01*
X015080Y018793D02*
X015080Y018273D01*
X016080Y018273D02*
X016080Y018793D01*
X017080Y018793D02*
X017080Y018273D01*
X018080Y018273D02*
X018080Y018793D01*
X019080Y018793D02*
X019080Y018273D01*
X020080Y018273D02*
X020080Y018793D01*
X021080Y018793D02*
X021080Y018273D01*
X023080Y018273D02*
X023080Y018793D01*
X024080Y018793D02*
X024080Y018273D01*
X025080Y018273D02*
X025080Y018793D01*
X026080Y018793D02*
X026080Y018273D01*
X027080Y018273D02*
X027080Y018793D01*
X028080Y018793D02*
X028080Y018273D01*
X029080Y018273D02*
X029080Y018793D01*
X030080Y018793D02*
X030080Y018273D01*
X032080Y018273D02*
X032080Y018793D01*
X033080Y018793D02*
X033080Y018273D01*
X034080Y018273D02*
X034080Y018793D01*
X035080Y018793D02*
X035080Y018273D01*
X036080Y018273D02*
X036080Y018793D01*
X037080Y018793D02*
X037080Y018273D01*
X038080Y018273D02*
X038080Y018793D01*
X039080Y018793D02*
X039080Y018273D01*
X039080Y015793D02*
X039080Y015273D01*
X038080Y015273D02*
X038080Y015793D01*
X037080Y015793D02*
X037080Y015273D01*
X036080Y015273D02*
X036080Y015793D01*
X035080Y015793D02*
X035080Y015273D01*
X034080Y015273D02*
X034080Y015793D01*
X033080Y015793D02*
X033080Y015273D01*
X032080Y015273D02*
X032080Y015793D01*
X030080Y015793D02*
X030080Y015273D01*
X029080Y015273D02*
X029080Y015793D01*
X028080Y015793D02*
X028080Y015273D01*
X027080Y015273D02*
X027080Y015793D01*
X026080Y015793D02*
X026080Y015273D01*
X025080Y015273D02*
X025080Y015793D01*
X024080Y015793D02*
X024080Y015273D01*
X023080Y015273D02*
X023080Y015793D01*
X021080Y015793D02*
X021080Y015273D01*
X020080Y015273D02*
X020080Y015793D01*
X019080Y015793D02*
X019080Y015273D01*
X018080Y015273D02*
X018080Y015793D01*
D11*
X018580Y020621D02*
X018580Y021446D01*
X016580Y021446D02*
X016580Y020621D01*
X014580Y020621D02*
X014580Y021446D01*
X012580Y021446D02*
X012580Y020621D01*
X010580Y020621D02*
X010580Y021446D01*
X008580Y021446D02*
X008580Y020621D01*
X006580Y020621D02*
X006580Y021446D01*
X020580Y021446D02*
X020580Y020621D01*
X023580Y020621D02*
X023580Y021446D01*
X025580Y021446D02*
X025580Y020621D01*
X027580Y020621D02*
X027580Y021446D01*
X029580Y021446D02*
X029580Y020621D01*
X031580Y020621D02*
X031580Y021446D01*
X033580Y021446D02*
X033580Y020621D01*
X035580Y020621D02*
X035580Y021446D01*
X037580Y021446D02*
X037580Y020621D01*
X004493Y012533D02*
X003668Y012533D01*
X003668Y010533D02*
X004493Y010533D01*
X004493Y008533D02*
X003668Y008533D01*
X003668Y006533D02*
X004493Y006533D01*
D12*
X031800Y006533D02*
X032360Y006533D01*
X032360Y007533D02*
X031800Y007533D01*
X031800Y008533D02*
X032360Y008533D01*
X033800Y008533D02*
X034360Y008533D01*
X035800Y008533D02*
X036360Y008533D01*
X036360Y007533D02*
X035800Y007533D01*
X035800Y006533D02*
X036360Y006533D01*
X034360Y006533D02*
X033800Y006533D01*
X033800Y007533D02*
X034360Y007533D01*
D13*
X034080Y003533D03*
X033080Y003533D03*
X032080Y003533D03*
X031080Y003533D03*
X030080Y003533D03*
X030080Y002533D03*
X031080Y002533D03*
X032080Y002533D03*
X033080Y002533D03*
X034080Y002533D03*
D14*
X026580Y004533D03*
X025580Y004533D03*
X039080Y013033D03*
X039080Y014033D03*
X040080Y018033D03*
X040080Y019033D03*
X031080Y018533D03*
X031080Y019533D03*
X031080Y016533D03*
X031080Y015533D03*
X022080Y015533D03*
X022080Y016533D03*
X022080Y018533D03*
X022080Y019533D03*
X013080Y019533D03*
X013080Y018533D03*
X013080Y016533D03*
X013080Y015533D03*
X011080Y012033D03*
X010080Y012033D03*
X008580Y010033D03*
X008580Y009033D03*
D15*
X008580Y008533D01*
X009580Y008533D02*
X012080Y011033D01*
X012080Y012033D01*
X011080Y012033D01*
X012080Y012033D02*
X012080Y014033D01*
X021080Y014033D01*
X021080Y015533D01*
X022080Y015533D01*
X021080Y014033D02*
X030080Y014033D01*
X030080Y015533D01*
X031080Y015533D01*
X030080Y014033D02*
X039080Y014033D01*
X039080Y015533D01*
X012080Y015533D02*
X012080Y014033D01*
X009580Y008533D02*
X004080Y008533D01*
X004080Y006533D01*
D16*
X003670Y007283D02*
X002560Y007283D01*
X002560Y019722D01*
X002740Y019578D01*
X003206Y019395D01*
X003706Y019358D01*
X004194Y019469D01*
X004627Y019720D01*
X004968Y020087D01*
X004968Y020087D01*
X005185Y020538D01*
X005260Y021033D01*
X005185Y021529D01*
X004968Y021980D01*
X004903Y022049D01*
X039262Y022049D01*
X039066Y021762D01*
X038919Y021284D01*
X038919Y020783D01*
X039066Y020304D01*
X039348Y019891D01*
X039348Y019891D01*
X039348Y019891D01*
X039496Y019773D01*
X031434Y019773D01*
X031254Y019953D01*
X030906Y019953D01*
X030726Y019773D01*
X022434Y019773D01*
X022254Y019953D01*
X021906Y019953D01*
X021726Y019773D01*
X013434Y019773D01*
X013254Y019953D01*
X012906Y019953D01*
X012726Y019773D01*
X005032Y019773D01*
X004944Y019737D01*
X004877Y019669D01*
X004840Y019581D01*
X004840Y019147D01*
X004724Y019031D01*
X004660Y018877D01*
X004660Y018190D01*
X004724Y018035D01*
X004840Y017919D01*
X004840Y016147D01*
X004724Y016031D01*
X004660Y015877D01*
X004660Y015190D01*
X004724Y015035D01*
X004842Y014917D01*
X004996Y014853D01*
X005164Y014853D01*
X005318Y014917D01*
X005436Y015035D01*
X005500Y015190D01*
X005500Y015877D01*
X005436Y016031D01*
X005320Y016147D01*
X005320Y017919D01*
X005436Y018035D01*
X005500Y018190D01*
X005500Y018877D01*
X005436Y019031D01*
X005320Y019147D01*
X005320Y019293D01*
X011840Y019293D01*
X011840Y019147D01*
X011724Y019031D01*
X011660Y018877D01*
X011660Y018190D01*
X011724Y018035D01*
X011842Y017917D01*
X011996Y017853D01*
X012164Y017853D01*
X012318Y017917D01*
X012436Y018035D01*
X012500Y018190D01*
X012500Y018877D01*
X012436Y019031D01*
X012320Y019147D01*
X012320Y019293D01*
X012726Y019293D01*
X012906Y019113D01*
X013254Y019113D01*
X013434Y019293D01*
X013840Y019293D01*
X013840Y019147D01*
X013724Y019031D01*
X013660Y018877D01*
X013660Y018190D01*
X013724Y018035D01*
X013842Y017917D01*
X013996Y017853D01*
X014164Y017853D01*
X014318Y017917D01*
X014436Y018035D01*
X014500Y018190D01*
X014500Y018877D01*
X014436Y019031D01*
X014320Y019147D01*
X014320Y019293D01*
X020840Y019293D01*
X020840Y019147D01*
X020724Y019031D01*
X020660Y018877D01*
X020660Y018190D01*
X020724Y018035D01*
X020842Y017917D01*
X020996Y017853D01*
X021164Y017853D01*
X021318Y017917D01*
X021436Y018035D01*
X021500Y018190D01*
X021500Y018877D01*
X021436Y019031D01*
X021320Y019147D01*
X021320Y019293D01*
X021726Y019293D01*
X021906Y019113D01*
X022254Y019113D01*
X022434Y019293D01*
X022840Y019293D01*
X022840Y019147D01*
X022724Y019031D01*
X022660Y018877D01*
X022660Y018190D01*
X022724Y018035D01*
X022842Y017917D01*
X022996Y017853D01*
X023164Y017853D01*
X023318Y017917D01*
X023436Y018035D01*
X023500Y018190D01*
X023500Y018877D01*
X023436Y019031D01*
X023320Y019147D01*
X023320Y019293D01*
X029840Y019293D01*
X029840Y019147D01*
X029724Y019031D01*
X029660Y018877D01*
X029660Y018190D01*
X029724Y018035D01*
X029842Y017917D01*
X029996Y017853D01*
X030164Y017853D01*
X030318Y017917D01*
X030436Y018035D01*
X030500Y018190D01*
X030500Y018877D01*
X030436Y019031D01*
X030320Y019147D01*
X030320Y019293D01*
X030726Y019293D01*
X030906Y019113D01*
X031254Y019113D01*
X031434Y019293D01*
X031840Y019293D01*
X031840Y019147D01*
X031724Y019031D01*
X031660Y018877D01*
X031660Y018190D01*
X031724Y018035D01*
X031842Y017917D01*
X031996Y017853D01*
X032164Y017853D01*
X032318Y017917D01*
X032436Y018035D01*
X032500Y018190D01*
X032500Y018877D01*
X032436Y019031D01*
X032320Y019147D01*
X032320Y019293D01*
X038840Y019293D01*
X038840Y019147D01*
X038724Y019031D01*
X038660Y018877D01*
X038660Y018190D01*
X038724Y018035D01*
X038842Y017917D01*
X038996Y017853D01*
X039164Y017853D01*
X039318Y017917D01*
X039436Y018035D01*
X039500Y018190D01*
X039500Y018877D01*
X039436Y019031D01*
X039320Y019147D01*
X039320Y019293D01*
X039481Y019293D01*
X039660Y019114D01*
X039660Y018859D01*
X039906Y018613D01*
X040254Y018613D01*
X040500Y018859D01*
X040500Y019207D01*
X040320Y019387D01*
X040706Y019358D01*
X041194Y019469D01*
X041470Y019629D01*
X041470Y003938D01*
X041194Y004097D01*
X041194Y004097D01*
X040706Y004209D01*
X040706Y004209D01*
X040206Y004171D01*
X039740Y003988D01*
X039348Y003676D01*
X039066Y003262D01*
X038919Y002784D01*
X038919Y002283D01*
X039066Y001804D01*
X039265Y001513D01*
X016580Y001513D01*
X016580Y007283D01*
X004490Y007283D01*
X004490Y007961D01*
X004606Y007961D01*
X004817Y008048D01*
X004892Y008123D01*
X009662Y008123D01*
X009812Y008186D01*
X012312Y010686D01*
X012428Y010801D01*
X012490Y010952D01*
X012490Y013623D01*
X038896Y013623D01*
X038906Y013613D01*
X039254Y013613D01*
X039500Y013859D01*
X039500Y014207D01*
X039490Y014217D01*
X039490Y015166D01*
X039500Y015190D01*
X039500Y015877D01*
X039436Y016031D01*
X039318Y016149D01*
X039164Y016213D01*
X038996Y016213D01*
X038842Y016149D01*
X038724Y016031D01*
X038660Y015877D01*
X038660Y015190D01*
X038670Y015166D01*
X038670Y014443D01*
X030490Y014443D01*
X030490Y015123D01*
X030896Y015123D01*
X030906Y015113D01*
X031254Y015113D01*
X031500Y015359D01*
X031500Y015707D01*
X031254Y015953D01*
X030906Y015953D01*
X030896Y015943D01*
X030472Y015943D01*
X030436Y016031D01*
X030318Y016149D01*
X030164Y016213D01*
X029996Y016213D01*
X029842Y016149D01*
X029724Y016031D01*
X029660Y015877D01*
X029660Y015190D01*
X029670Y015166D01*
X029670Y014443D01*
X021490Y014443D01*
X021490Y015123D01*
X021896Y015123D01*
X021906Y015113D01*
X022254Y015113D01*
X022500Y015359D01*
X022500Y015707D01*
X022254Y015953D01*
X021906Y015953D01*
X021896Y015943D01*
X021472Y015943D01*
X021436Y016031D01*
X021318Y016149D01*
X021164Y016213D01*
X020996Y016213D01*
X020842Y016149D01*
X020724Y016031D01*
X020660Y015877D01*
X020660Y015190D01*
X020670Y015166D01*
X020670Y014443D01*
X012490Y014443D01*
X012490Y015166D01*
X012500Y015190D01*
X012500Y015213D01*
X012806Y015213D01*
X012906Y015113D01*
X013254Y015113D01*
X013500Y015359D01*
X013500Y015707D01*
X013254Y015953D01*
X012906Y015953D01*
X012806Y015853D01*
X012500Y015853D01*
X012500Y015877D01*
X012436Y016031D01*
X012318Y016149D01*
X012164Y016213D01*
X011996Y016213D01*
X011842Y016149D01*
X011724Y016031D01*
X011660Y015877D01*
X011660Y015190D01*
X011670Y015166D01*
X011670Y012443D01*
X011264Y012443D01*
X011254Y012453D01*
X010906Y012453D01*
X010660Y012207D01*
X010660Y011859D01*
X010906Y011613D01*
X011254Y011613D01*
X011264Y011623D01*
X011670Y011623D01*
X011670Y011203D01*
X009410Y008943D01*
X009000Y008943D01*
X009000Y009207D01*
X008754Y009453D01*
X008406Y009453D01*
X008160Y009207D01*
X008160Y008943D01*
X004892Y008943D01*
X004817Y009019D01*
X004606Y009106D01*
X003554Y009106D01*
X003343Y009019D01*
X003182Y008858D01*
X003095Y008647D01*
X003095Y008419D01*
X003182Y008209D01*
X003343Y008048D01*
X003554Y007961D01*
X003670Y007961D01*
X003670Y007283D01*
X003670Y007373D02*
X002560Y007373D01*
X002560Y007532D02*
X003670Y007532D01*
X003670Y007690D02*
X002560Y007690D01*
X002560Y007849D02*
X003670Y007849D01*
X003441Y008007D02*
X002560Y008007D01*
X002560Y008166D02*
X003225Y008166D01*
X003134Y008324D02*
X002560Y008324D01*
X002560Y008483D02*
X003095Y008483D01*
X003095Y008641D02*
X002560Y008641D01*
X002560Y008800D02*
X003158Y008800D01*
X003283Y008958D02*
X002560Y008958D01*
X002560Y009117D02*
X008160Y009117D01*
X008160Y008958D02*
X004877Y008958D01*
X004719Y008007D02*
X026215Y008007D01*
X026373Y008166D02*
X009764Y008166D01*
X009951Y008324D02*
X026532Y008324D01*
X026561Y008353D02*
X025444Y007237D01*
X025377Y007169D01*
X025340Y007081D01*
X025340Y006647D01*
X025224Y006531D01*
X025160Y006377D01*
X025160Y005690D01*
X025224Y005535D01*
X025340Y005419D01*
X025340Y004887D01*
X025160Y004707D01*
X025160Y004359D01*
X025406Y004113D01*
X025754Y004113D01*
X026000Y004359D01*
X026000Y004707D01*
X025820Y004887D01*
X025820Y005419D01*
X025936Y005535D01*
X026000Y005690D01*
X026000Y006377D01*
X025936Y006531D01*
X025820Y006647D01*
X025820Y006934D01*
X027323Y008437D01*
X027340Y008419D01*
X027340Y006986D01*
X027377Y006897D01*
X027444Y006830D01*
X027532Y006793D01*
X031438Y006793D01*
X031427Y006783D01*
X031360Y006621D01*
X031360Y006446D01*
X031427Y006284D01*
X031551Y006160D01*
X031712Y006093D01*
X032448Y006093D01*
X032609Y006160D01*
X032733Y006284D01*
X032737Y006293D01*
X033423Y006293D01*
X033427Y006284D01*
X033551Y006160D01*
X033712Y006093D01*
X034448Y006093D01*
X034609Y006160D01*
X034733Y006284D01*
X034737Y006293D01*
X035423Y006293D01*
X035427Y006284D01*
X035551Y006160D01*
X035712Y006093D01*
X036448Y006093D01*
X036609Y006160D01*
X036733Y006284D01*
X036800Y006446D01*
X036800Y006621D01*
X036733Y006783D01*
X036609Y006906D01*
X036448Y006973D01*
X035712Y006973D01*
X035551Y006906D01*
X035427Y006783D01*
X035423Y006773D01*
X034737Y006773D01*
X034733Y006783D01*
X034609Y006906D01*
X034448Y006973D01*
X033712Y006973D01*
X033551Y006906D01*
X033427Y006783D01*
X033423Y006773D01*
X032737Y006773D01*
X032733Y006783D01*
X032609Y006906D01*
X032448Y006973D01*
X032320Y006973D01*
X032320Y007081D01*
X032315Y007093D01*
X032448Y007093D01*
X032609Y007160D01*
X032733Y007284D01*
X032800Y007446D01*
X032800Y007621D01*
X032733Y007783D01*
X032722Y007793D01*
X033438Y007793D01*
X033427Y007783D01*
X033360Y007621D01*
X033360Y007446D01*
X033427Y007284D01*
X033551Y007160D01*
X033712Y007093D01*
X034448Y007093D01*
X034609Y007160D01*
X034733Y007284D01*
X034800Y007446D01*
X034800Y007621D01*
X034733Y007783D01*
X034609Y007906D01*
X034448Y007973D01*
X034320Y007973D01*
X034320Y008073D01*
X034396Y008073D01*
X034468Y008085D01*
X034537Y008107D01*
X034601Y008140D01*
X034660Y008182D01*
X034711Y008234D01*
X034753Y008292D01*
X034786Y008357D01*
X034809Y008426D01*
X034820Y008497D01*
X034820Y008523D01*
X034090Y008523D01*
X034090Y008543D01*
X034820Y008543D01*
X034820Y008570D01*
X034809Y008641D01*
X034786Y008710D01*
X034753Y008774D01*
X034740Y008793D01*
X034840Y008793D01*
X034840Y007486D01*
X034877Y007397D01*
X034944Y007330D01*
X035032Y007293D01*
X035423Y007293D01*
X035427Y007284D01*
X035551Y007160D01*
X035712Y007093D01*
X036448Y007093D01*
X036609Y007160D01*
X036733Y007284D01*
X036800Y007446D01*
X036800Y007621D01*
X036733Y007783D01*
X036609Y007906D01*
X036448Y007973D01*
X035712Y007973D01*
X035551Y007906D01*
X035427Y007783D01*
X035423Y007773D01*
X035320Y007773D01*
X035320Y009081D01*
X035283Y009169D01*
X035216Y009237D01*
X035128Y009273D01*
X031000Y009273D01*
X031000Y009377D01*
X030936Y009531D01*
X030818Y009649D01*
X030664Y009713D01*
X030496Y009713D01*
X030342Y009649D01*
X030224Y009531D01*
X030160Y009377D01*
X030160Y008690D01*
X030224Y008535D01*
X030342Y008417D01*
X030496Y008353D01*
X030664Y008353D01*
X030818Y008417D01*
X030936Y008535D01*
X031000Y008690D01*
X031000Y008793D01*
X031420Y008793D01*
X031407Y008774D01*
X031374Y008710D01*
X031351Y008641D01*
X031340Y008570D01*
X031340Y008543D01*
X032070Y008543D01*
X032070Y008523D01*
X031340Y008523D01*
X031340Y008497D01*
X031351Y008426D01*
X031374Y008357D01*
X031407Y008292D01*
X031420Y008273D01*
X029820Y008273D01*
X029820Y008419D01*
X029936Y008535D01*
X030000Y008690D01*
X030000Y009377D01*
X029936Y009531D01*
X029818Y009649D01*
X029664Y009713D01*
X029496Y009713D01*
X029342Y009649D01*
X029224Y009531D01*
X029160Y009377D01*
X029160Y008690D01*
X029224Y008535D01*
X029340Y008419D01*
X029340Y007986D01*
X029377Y007897D01*
X029444Y007830D01*
X029532Y007793D01*
X031438Y007793D01*
X031427Y007783D01*
X031423Y007773D01*
X028820Y007773D01*
X028820Y008419D01*
X028936Y008535D01*
X029000Y008690D01*
X029000Y009377D01*
X028936Y009531D01*
X028818Y009649D01*
X028664Y009713D01*
X028496Y009713D01*
X028342Y009649D01*
X028224Y009531D01*
X028160Y009377D01*
X028160Y008690D01*
X028224Y008535D01*
X028340Y008419D01*
X028340Y007486D01*
X028377Y007397D01*
X028444Y007330D01*
X028532Y007293D01*
X031423Y007293D01*
X031427Y007284D01*
X031438Y007273D01*
X027820Y007273D01*
X027820Y008419D01*
X027936Y008535D01*
X028000Y008690D01*
X028000Y009377D01*
X027936Y009531D01*
X027820Y009647D01*
X027820Y012793D01*
X031786Y012793D01*
X031924Y012656D01*
X032236Y012656D01*
X032458Y012877D01*
X032458Y013190D01*
X032236Y013411D01*
X031924Y013411D01*
X031786Y013273D01*
X027532Y013273D01*
X027444Y013237D01*
X027377Y013169D01*
X027340Y013081D01*
X027340Y009647D01*
X027224Y009531D01*
X027160Y009377D01*
X027160Y008953D01*
X027000Y008793D01*
X027000Y009377D01*
X026936Y009531D01*
X026818Y009649D01*
X026664Y009713D01*
X026496Y009713D01*
X026342Y009649D01*
X026224Y009531D01*
X026160Y009377D01*
X026160Y008690D01*
X026224Y008535D01*
X026342Y008417D01*
X026496Y008353D01*
X026561Y008353D01*
X026277Y008483D02*
X025883Y008483D01*
X025936Y008535D02*
X026000Y008690D01*
X026000Y009377D01*
X025936Y009531D01*
X025818Y009649D01*
X025664Y009713D01*
X025496Y009713D01*
X025342Y009649D01*
X025224Y009531D01*
X025160Y009377D01*
X025160Y008690D01*
X025224Y008535D01*
X025342Y008417D01*
X025496Y008353D01*
X025664Y008353D01*
X025818Y008417D01*
X025936Y008535D01*
X025980Y008641D02*
X026180Y008641D01*
X026160Y008800D02*
X026000Y008800D01*
X026000Y008958D02*
X026160Y008958D01*
X026160Y009117D02*
X026000Y009117D01*
X026000Y009275D02*
X026160Y009275D01*
X026184Y009434D02*
X025976Y009434D01*
X025875Y009592D02*
X026285Y009592D01*
X026875Y009592D02*
X027285Y009592D01*
X027340Y009751D02*
X011377Y009751D01*
X011219Y009592D02*
X017285Y009592D01*
X017342Y009649D02*
X017224Y009531D01*
X017160Y009377D01*
X017160Y008690D01*
X017224Y008535D01*
X017342Y008417D01*
X017496Y008353D01*
X017664Y008353D01*
X017818Y008417D01*
X017936Y008535D01*
X018000Y008690D01*
X018000Y009377D01*
X017936Y009531D01*
X017818Y009649D01*
X017664Y009713D01*
X017496Y009713D01*
X017342Y009649D01*
X017184Y009434D02*
X011060Y009434D01*
X010902Y009275D02*
X017160Y009275D01*
X017160Y009117D02*
X010743Y009117D01*
X010585Y008958D02*
X017160Y008958D01*
X017160Y008800D02*
X010426Y008800D01*
X010268Y008641D02*
X017180Y008641D01*
X017277Y008483D02*
X010109Y008483D01*
X009580Y008533D02*
X008580Y008533D01*
X009000Y008958D02*
X009425Y008958D01*
X009584Y009117D02*
X009000Y009117D01*
X008932Y009275D02*
X009742Y009275D01*
X009901Y009434D02*
X008773Y009434D01*
X008762Y009593D02*
X009020Y009851D01*
X009020Y010033D01*
X008580Y010033D01*
X008580Y009593D01*
X008580Y010033D01*
X008580Y010033D01*
X008140Y010033D01*
X008140Y009851D01*
X008398Y009593D01*
X008580Y009593D01*
X008762Y009593D01*
X008920Y009751D02*
X010218Y009751D01*
X010376Y009909D02*
X009020Y009909D01*
X009020Y010033D02*
X009020Y010216D01*
X008762Y010473D01*
X008580Y010473D01*
X008398Y010473D01*
X008140Y010216D01*
X008140Y010033D01*
X008580Y010033D01*
X008580Y010033D01*
X008580Y010033D01*
X009080Y010533D01*
X009080Y012033D01*
X010080Y012033D01*
X010080Y011593D01*
X010262Y011593D01*
X010520Y011851D01*
X010520Y012033D01*
X010080Y012033D01*
X010080Y012033D01*
X010080Y011593D01*
X009898Y011593D01*
X009640Y011851D01*
X009640Y012033D01*
X010080Y012033D01*
X010080Y012033D01*
X010080Y012033D01*
X010520Y012033D01*
X010520Y012216D01*
X010262Y012473D01*
X010080Y012473D01*
X009898Y012473D01*
X009640Y012216D01*
X009640Y012033D01*
X010080Y012033D01*
X010080Y012473D01*
X010080Y012033D01*
X010080Y012033D01*
X010080Y011970D02*
X010080Y011970D01*
X010080Y012128D02*
X010080Y012128D01*
X010080Y012287D02*
X010080Y012287D01*
X010080Y012445D02*
X010080Y012445D01*
X010290Y012445D02*
X010898Y012445D01*
X010740Y012287D02*
X010449Y012287D01*
X010520Y012128D02*
X010660Y012128D01*
X010660Y011970D02*
X010520Y011970D01*
X010480Y011811D02*
X010708Y011811D01*
X010867Y011653D02*
X010322Y011653D01*
X010080Y011653D02*
X010080Y011653D01*
X010080Y011811D02*
X010080Y011811D01*
X009838Y011653D02*
X002560Y011653D01*
X002560Y011811D02*
X009680Y011811D01*
X009640Y011970D02*
X004676Y011970D01*
X004720Y011984D02*
X004631Y011955D01*
X004539Y011941D01*
X004138Y011941D01*
X004138Y012476D01*
X004138Y012591D01*
X005083Y012591D01*
X005070Y012672D01*
X005042Y012761D01*
X004999Y012844D01*
X004944Y012919D01*
X004878Y012985D01*
X004803Y013040D01*
X004720Y013082D01*
X004631Y013111D01*
X004539Y013126D01*
X004138Y013126D01*
X004138Y012591D01*
X004022Y012591D01*
X004022Y012476D01*
X003077Y012476D01*
X003090Y012395D01*
X003118Y012306D01*
X003161Y012223D01*
X003216Y012147D01*
X003282Y012081D01*
X003357Y012027D01*
X003440Y011984D01*
X003529Y011955D01*
X003621Y011941D01*
X004022Y011941D01*
X004022Y012476D01*
X004138Y012476D01*
X005083Y012476D01*
X005070Y012395D01*
X005042Y012306D01*
X004999Y012223D01*
X004944Y012147D01*
X004878Y012081D01*
X004803Y012027D01*
X004720Y011984D01*
X004925Y012128D02*
X009640Y012128D01*
X009711Y012287D02*
X005032Y012287D01*
X005078Y012445D02*
X009870Y012445D01*
X009080Y012533D02*
X009080Y012033D01*
X009080Y012533D02*
X009080Y015533D01*
X009080Y014833D01*
X009115Y014833D01*
X009183Y014844D01*
X009249Y014866D01*
X009311Y014897D01*
X009367Y014938D01*
X009416Y014987D01*
X009456Y015043D01*
X009488Y015104D01*
X009509Y015170D01*
X009520Y015239D01*
X009520Y015533D01*
X009080Y015533D01*
X009080Y015533D01*
X009080Y014833D01*
X009045Y014833D01*
X008977Y014844D01*
X008911Y014866D01*
X008849Y014897D01*
X008793Y014938D01*
X008744Y014987D01*
X008704Y015043D01*
X008672Y015104D01*
X008651Y015170D01*
X008640Y015239D01*
X008640Y015533D01*
X009080Y015533D01*
X009080Y015533D01*
X009080Y015533D01*
X009080Y017033D01*
X013080Y017033D01*
X013080Y016533D01*
X013080Y016093D01*
X013080Y016533D01*
X013080Y016533D01*
X012640Y016533D01*
X012640Y016351D01*
X012898Y016093D01*
X013080Y016093D01*
X013262Y016093D01*
X013520Y016351D01*
X013520Y016533D01*
X013080Y016533D01*
X013080Y016533D01*
X013080Y016533D01*
X012640Y016533D01*
X012640Y016716D01*
X012898Y016973D01*
X013080Y016973D01*
X013080Y016533D01*
X013520Y016533D01*
X013520Y016716D01*
X013262Y016973D01*
X013080Y016973D01*
X013080Y016533D01*
X013080Y016533D01*
X013080Y016566D02*
X013080Y016566D01*
X013080Y016408D02*
X013080Y016408D01*
X013080Y016249D02*
X013080Y016249D01*
X013418Y016249D02*
X021742Y016249D01*
X021640Y016351D02*
X021898Y016093D01*
X022080Y016093D01*
X022080Y016533D01*
X022080Y016093D01*
X022262Y016093D01*
X022520Y016351D01*
X022520Y016533D01*
X022080Y016533D01*
X022080Y016533D01*
X021640Y016533D01*
X021640Y016351D01*
X021640Y016408D02*
X013520Y016408D01*
X013520Y016566D02*
X021640Y016566D01*
X021640Y016533D02*
X022080Y016533D01*
X022080Y016533D01*
X022080Y016533D01*
X022080Y017033D01*
X022080Y018533D01*
X022080Y018093D01*
X022080Y018533D01*
X022080Y018533D01*
X021640Y018533D01*
X021640Y018351D01*
X021898Y018093D01*
X022080Y018093D01*
X022262Y018093D01*
X022520Y018351D01*
X022520Y018533D01*
X022080Y018533D01*
X022080Y018533D01*
X022080Y018533D01*
X021640Y018533D01*
X021640Y018716D01*
X021898Y018973D01*
X022080Y018973D01*
X022080Y018533D01*
X022520Y018533D01*
X022520Y018716D01*
X022262Y018973D01*
X022080Y018973D01*
X022080Y018533D01*
X022080Y018533D01*
X022080Y018468D02*
X022080Y018468D01*
X022080Y018310D02*
X022080Y018310D01*
X022080Y018151D02*
X022080Y018151D01*
X022320Y018151D02*
X022676Y018151D01*
X022660Y018310D02*
X022479Y018310D01*
X022520Y018468D02*
X022660Y018468D01*
X022660Y018627D02*
X022520Y018627D01*
X022450Y018785D02*
X022660Y018785D01*
X022688Y018944D02*
X022292Y018944D01*
X022080Y018944D02*
X022080Y018944D01*
X022080Y018785D02*
X022080Y018785D01*
X022080Y018627D02*
X022080Y018627D01*
X021868Y018944D02*
X021472Y018944D01*
X021500Y018785D02*
X021710Y018785D01*
X021640Y018627D02*
X021500Y018627D01*
X021500Y018468D02*
X021640Y018468D01*
X021681Y018310D02*
X021500Y018310D01*
X021484Y018151D02*
X021840Y018151D01*
X021393Y017993D02*
X022767Y017993D01*
X023393Y017993D02*
X023767Y017993D01*
X023724Y018035D02*
X023842Y017917D01*
X023996Y017853D01*
X024164Y017853D01*
X024318Y017917D01*
X024436Y018035D01*
X024500Y018190D01*
X024500Y018877D01*
X024436Y019031D01*
X024318Y019149D01*
X024164Y019213D01*
X023996Y019213D01*
X023842Y019149D01*
X023724Y019031D01*
X023660Y018877D01*
X023660Y018190D01*
X023724Y018035D01*
X023676Y018151D02*
X023484Y018151D01*
X023500Y018310D02*
X023660Y018310D01*
X023660Y018468D02*
X023500Y018468D01*
X023500Y018627D02*
X023660Y018627D01*
X023660Y018785D02*
X023500Y018785D01*
X023472Y018944D02*
X023688Y018944D01*
X023795Y019102D02*
X023365Y019102D01*
X023320Y019261D02*
X029840Y019261D01*
X029795Y019102D02*
X029365Y019102D01*
X029318Y019149D02*
X029164Y019213D01*
X028996Y019213D01*
X028842Y019149D01*
X028724Y019031D01*
X028660Y018877D01*
X028660Y018190D01*
X028724Y018035D01*
X028842Y017917D01*
X028996Y017853D01*
X029164Y017853D01*
X029318Y017917D01*
X029436Y018035D01*
X029500Y018190D01*
X029500Y018877D01*
X029436Y019031D01*
X029318Y019149D01*
X029472Y018944D02*
X029688Y018944D01*
X029660Y018785D02*
X029500Y018785D01*
X029500Y018627D02*
X029660Y018627D01*
X029660Y018468D02*
X029500Y018468D01*
X029500Y018310D02*
X029660Y018310D01*
X029676Y018151D02*
X029484Y018151D01*
X029393Y017993D02*
X029767Y017993D01*
X030080Y018533D02*
X030080Y019533D01*
X031080Y019533D01*
X032080Y019533D01*
X039080Y019533D01*
X039580Y019533D01*
X040080Y019033D01*
X040426Y018785D02*
X041470Y018785D01*
X041470Y018627D02*
X040267Y018627D01*
X040262Y018473D02*
X040080Y018473D01*
X039898Y018473D01*
X039640Y018216D01*
X039640Y018033D01*
X039640Y017851D01*
X039898Y017593D01*
X040080Y017593D01*
X040080Y018033D01*
X040080Y017593D01*
X040262Y017593D01*
X040520Y017851D01*
X040520Y018033D01*
X040080Y018033D01*
X040080Y018033D01*
X039640Y018033D01*
X040080Y018033D01*
X040080Y018033D01*
X040080Y018033D01*
X040080Y017033D01*
X036080Y017033D01*
X036080Y015533D01*
X036080Y014833D01*
X036115Y014833D01*
X036183Y014844D01*
X036249Y014866D01*
X036311Y014897D01*
X036367Y014938D01*
X036416Y014987D01*
X036456Y015043D01*
X036488Y015104D01*
X036509Y015170D01*
X036520Y015239D01*
X036520Y015533D01*
X036080Y015533D01*
X036080Y015533D01*
X036080Y014833D01*
X036045Y014833D01*
X035977Y014844D01*
X035911Y014866D01*
X035849Y014897D01*
X035793Y014938D01*
X035744Y014987D01*
X035704Y015043D01*
X035672Y015104D01*
X035651Y015170D01*
X035640Y015239D01*
X035640Y015533D01*
X036080Y015533D01*
X036080Y015533D01*
X036080Y015533D01*
X036520Y015533D01*
X036520Y015828D01*
X036509Y015896D01*
X036488Y015962D01*
X036456Y016024D01*
X036416Y016080D01*
X036367Y016129D01*
X036311Y016170D01*
X036249Y016201D01*
X036183Y016222D01*
X036115Y016233D01*
X036080Y016233D01*
X036045Y016233D01*
X035977Y016222D01*
X035911Y016201D01*
X035849Y016170D01*
X035793Y016129D01*
X035744Y016080D01*
X035704Y016024D01*
X035672Y015962D01*
X035651Y015896D01*
X035640Y015828D01*
X035640Y015533D01*
X036080Y015533D01*
X036080Y016233D01*
X036080Y015533D01*
X036080Y015533D01*
X036080Y015457D02*
X036080Y015457D01*
X036080Y015615D02*
X036080Y015615D01*
X036080Y015774D02*
X036080Y015774D01*
X036080Y015932D02*
X036080Y015932D01*
X036080Y016091D02*
X036080Y016091D01*
X036405Y016091D02*
X036784Y016091D01*
X036842Y016149D02*
X036724Y016031D01*
X036660Y015877D01*
X036660Y015190D01*
X036724Y015035D01*
X036842Y014917D01*
X036996Y014853D01*
X037164Y014853D01*
X037318Y014917D01*
X037436Y015035D01*
X037500Y015190D01*
X037500Y015877D01*
X037436Y016031D01*
X037318Y016149D01*
X037164Y016213D01*
X036996Y016213D01*
X036842Y016149D01*
X036683Y015932D02*
X036497Y015932D01*
X036520Y015774D02*
X036660Y015774D01*
X036660Y015615D02*
X036520Y015615D01*
X036520Y015457D02*
X036660Y015457D01*
X036660Y015298D02*
X036520Y015298D01*
X036499Y015140D02*
X036681Y015140D01*
X036778Y014981D02*
X036410Y014981D01*
X036080Y014981D02*
X036080Y014981D01*
X036080Y015140D02*
X036080Y015140D01*
X036080Y015298D02*
X036080Y015298D01*
X035640Y015298D02*
X035520Y015298D01*
X035520Y015239D02*
X035520Y015533D01*
X035080Y015533D01*
X035080Y014833D01*
X035115Y014833D01*
X035183Y014844D01*
X035249Y014866D01*
X035311Y014897D01*
X035367Y014938D01*
X035416Y014987D01*
X035456Y015043D01*
X035488Y015104D01*
X035509Y015170D01*
X035520Y015239D01*
X035499Y015140D02*
X035661Y015140D01*
X035750Y014981D02*
X035410Y014981D01*
X035080Y014981D02*
X035080Y014981D01*
X035080Y014833D02*
X035080Y015533D01*
X035080Y015533D01*
X035080Y015533D01*
X034640Y015533D01*
X034640Y015239D01*
X034651Y015170D01*
X034672Y015104D01*
X034704Y015043D01*
X034744Y014987D01*
X034793Y014938D01*
X034849Y014897D01*
X034911Y014866D01*
X034977Y014844D01*
X035045Y014833D01*
X035080Y014833D01*
X035080Y015140D02*
X035080Y015140D01*
X035080Y015298D02*
X035080Y015298D01*
X035080Y015457D02*
X035080Y015457D01*
X035080Y015533D02*
X035080Y015533D01*
X035080Y017033D01*
X035080Y018533D01*
X035080Y017833D01*
X035115Y017833D01*
X035183Y017844D01*
X035249Y017866D01*
X035311Y017897D01*
X035367Y017938D01*
X035416Y017987D01*
X035456Y018043D01*
X035488Y018104D01*
X035509Y018170D01*
X035520Y018239D01*
X035520Y018533D01*
X035080Y018533D01*
X035080Y018533D01*
X035080Y017833D01*
X035045Y017833D01*
X034977Y017844D01*
X034911Y017866D01*
X034849Y017897D01*
X034793Y017938D01*
X034744Y017987D01*
X034704Y018043D01*
X034672Y018104D01*
X034651Y018170D01*
X034640Y018239D01*
X034640Y018533D01*
X035080Y018533D01*
X035080Y018533D01*
X035080Y018533D01*
X035520Y018533D01*
X035520Y018828D01*
X035509Y018896D01*
X035488Y018962D01*
X035456Y019024D01*
X035416Y019080D01*
X035367Y019129D01*
X035311Y019170D01*
X035249Y019201D01*
X035183Y019222D01*
X035115Y019233D01*
X035080Y019233D01*
X035045Y019233D01*
X034977Y019222D01*
X034911Y019201D01*
X034849Y019170D01*
X034793Y019129D01*
X034744Y019080D01*
X034704Y019024D01*
X034672Y018962D01*
X034651Y018896D01*
X034640Y018828D01*
X034640Y018533D01*
X035080Y018533D01*
X035080Y019233D01*
X035080Y018533D01*
X035080Y018533D01*
X035080Y018468D02*
X035080Y018468D01*
X035080Y018310D02*
X035080Y018310D01*
X035080Y018151D02*
X035080Y018151D01*
X035080Y017993D02*
X035080Y017993D01*
X035080Y017834D02*
X035080Y017834D01*
X035121Y017834D02*
X036039Y017834D01*
X036045Y017833D02*
X036080Y017833D01*
X036115Y017833D01*
X036183Y017844D01*
X036249Y017866D01*
X036311Y017897D01*
X036367Y017938D01*
X036416Y017987D01*
X036456Y018043D01*
X036488Y018104D01*
X036509Y018170D01*
X036520Y018239D01*
X036520Y018533D01*
X036080Y018533D01*
X036080Y017833D01*
X036080Y018533D01*
X036080Y018533D01*
X036080Y018533D01*
X035640Y018533D01*
X035640Y018239D01*
X035651Y018170D01*
X035672Y018104D01*
X035704Y018043D01*
X035744Y017987D01*
X035793Y017938D01*
X035849Y017897D01*
X035911Y017866D01*
X035977Y017844D01*
X036045Y017833D01*
X036080Y017834D02*
X036080Y017834D01*
X036121Y017834D02*
X039657Y017834D01*
X039640Y017993D02*
X039393Y017993D01*
X039484Y018151D02*
X039640Y018151D01*
X039734Y018310D02*
X039500Y018310D01*
X039500Y018468D02*
X039893Y018468D01*
X039893Y018627D02*
X039500Y018627D01*
X039500Y018785D02*
X039734Y018785D01*
X039660Y018944D02*
X039472Y018944D01*
X039365Y019102D02*
X039660Y019102D01*
X039513Y019261D02*
X039320Y019261D01*
X039080Y019533D02*
X039080Y018533D01*
X038660Y018468D02*
X038500Y018468D01*
X038500Y018310D02*
X038660Y018310D01*
X038676Y018151D02*
X038484Y018151D01*
X038500Y018190D02*
X038500Y018877D01*
X038436Y019031D01*
X038318Y019149D01*
X038164Y019213D01*
X037996Y019213D01*
X037842Y019149D01*
X037724Y019031D01*
X037660Y018877D01*
X037660Y018190D01*
X037724Y018035D01*
X037842Y017917D01*
X037996Y017853D01*
X038164Y017853D01*
X038318Y017917D01*
X038436Y018035D01*
X038500Y018190D01*
X038393Y017993D02*
X038767Y017993D01*
X037767Y017993D02*
X037393Y017993D01*
X037436Y018035D02*
X037500Y018190D01*
X037500Y018877D01*
X037436Y019031D01*
X037318Y019149D01*
X037164Y019213D01*
X036996Y019213D01*
X036842Y019149D01*
X036724Y019031D01*
X036660Y018877D01*
X036660Y018190D01*
X036724Y018035D01*
X036842Y017917D01*
X036996Y017853D01*
X037164Y017853D01*
X037318Y017917D01*
X037436Y018035D01*
X037484Y018151D02*
X037676Y018151D01*
X037660Y018310D02*
X037500Y018310D01*
X037500Y018468D02*
X037660Y018468D01*
X037660Y018627D02*
X037500Y018627D01*
X037500Y018785D02*
X037660Y018785D01*
X037688Y018944D02*
X037472Y018944D01*
X037365Y019102D02*
X037795Y019102D01*
X038365Y019102D02*
X038795Y019102D01*
X038840Y019261D02*
X032320Y019261D01*
X032365Y019102D02*
X032795Y019102D01*
X032842Y019149D02*
X032724Y019031D01*
X032660Y018877D01*
X032660Y018190D01*
X032724Y018035D01*
X032842Y017917D01*
X032996Y017853D01*
X033164Y017853D01*
X033318Y017917D01*
X033436Y018035D01*
X033500Y018190D01*
X033500Y018877D01*
X033436Y019031D01*
X033318Y019149D01*
X033164Y019213D01*
X032996Y019213D01*
X032842Y019149D01*
X032688Y018944D02*
X032472Y018944D01*
X032500Y018785D02*
X032660Y018785D01*
X032660Y018627D02*
X032500Y018627D01*
X032500Y018468D02*
X032660Y018468D01*
X032660Y018310D02*
X032500Y018310D01*
X032484Y018151D02*
X032676Y018151D01*
X032767Y017993D02*
X032393Y017993D01*
X031767Y017993D02*
X030393Y017993D01*
X030484Y018151D02*
X030840Y018151D01*
X030898Y018093D02*
X030640Y018351D01*
X030640Y018533D01*
X031080Y018533D01*
X031080Y018093D01*
X031080Y018533D01*
X031080Y018533D01*
X031080Y018533D01*
X031080Y018533D01*
X031520Y018533D01*
X031520Y018351D01*
X031262Y018093D01*
X031080Y018093D01*
X030898Y018093D01*
X031080Y018151D02*
X031080Y018151D01*
X031080Y018310D02*
X031080Y018310D01*
X031080Y018468D02*
X031080Y018468D01*
X031080Y018533D02*
X031080Y017033D01*
X031080Y016533D01*
X031080Y016093D01*
X031080Y016533D01*
X031080Y016533D01*
X030640Y016533D01*
X030640Y016351D01*
X030898Y016093D01*
X031080Y016093D01*
X031262Y016093D01*
X031520Y016351D01*
X031520Y016533D01*
X031080Y016533D01*
X031080Y016533D01*
X031080Y016533D01*
X030640Y016533D01*
X030640Y016716D01*
X030898Y016973D01*
X031080Y016973D01*
X031080Y016533D01*
X031520Y016533D01*
X031520Y016716D01*
X031262Y016973D01*
X031080Y016973D01*
X031080Y016533D01*
X031080Y016533D01*
X031080Y016566D02*
X031080Y016566D01*
X031080Y016408D02*
X031080Y016408D01*
X031080Y016249D02*
X031080Y016249D01*
X031418Y016249D02*
X041470Y016249D01*
X041470Y016091D02*
X039376Y016091D01*
X039477Y015932D02*
X041470Y015932D01*
X041470Y015774D02*
X039500Y015774D01*
X039500Y015615D02*
X041470Y015615D01*
X041470Y015457D02*
X039500Y015457D01*
X039500Y015298D02*
X041470Y015298D01*
X041470Y015140D02*
X039490Y015140D01*
X039490Y014981D02*
X041470Y014981D01*
X041470Y014823D02*
X039490Y014823D01*
X039490Y014664D02*
X041470Y014664D01*
X041470Y014506D02*
X039490Y014506D01*
X039490Y014347D02*
X041470Y014347D01*
X041470Y014189D02*
X039500Y014189D01*
X039500Y014030D02*
X041470Y014030D01*
X041470Y013872D02*
X039500Y013872D01*
X039354Y013713D02*
X041470Y013713D01*
X041470Y013555D02*
X012490Y013555D01*
X012490Y013396D02*
X031909Y013396D01*
X032251Y013396D02*
X038821Y013396D01*
X038898Y013473D02*
X038640Y013216D01*
X038640Y013033D01*
X038640Y012851D01*
X038898Y012593D01*
X039080Y012593D01*
X039080Y013033D01*
X039080Y012593D01*
X039262Y012593D01*
X039520Y012851D01*
X039520Y013033D01*
X039080Y013033D01*
X039080Y013033D01*
X038640Y013033D01*
X039080Y013033D01*
X039080Y013033D01*
X039080Y013033D01*
X039520Y013033D01*
X039520Y013216D01*
X039262Y013473D01*
X039080Y013473D01*
X038898Y013473D01*
X039080Y013473D02*
X039080Y013033D01*
X039080Y013033D01*
X039080Y013473D01*
X039080Y013396D02*
X039080Y013396D01*
X039080Y013238D02*
X039080Y013238D01*
X039080Y013079D02*
X039080Y013079D01*
X039080Y012921D02*
X039080Y012921D01*
X039080Y012762D02*
X039080Y012762D01*
X039080Y012604D02*
X039080Y012604D01*
X039273Y012604D02*
X041470Y012604D01*
X041470Y012762D02*
X039431Y012762D01*
X039520Y012921D02*
X041470Y012921D01*
X041470Y013079D02*
X039520Y013079D01*
X039498Y013238D02*
X041470Y013238D01*
X041470Y013396D02*
X039339Y013396D01*
X038662Y013238D02*
X032410Y013238D01*
X032458Y013079D02*
X038640Y013079D01*
X038640Y012921D02*
X032458Y012921D01*
X032343Y012762D02*
X038729Y012762D01*
X038887Y012604D02*
X027820Y012604D01*
X027820Y012762D02*
X031817Y012762D01*
X032080Y013033D02*
X027580Y013033D01*
X027580Y009033D01*
X027580Y007033D01*
X032080Y007033D01*
X032080Y006533D01*
X034080Y006533D01*
X036080Y006533D01*
X036618Y006898D02*
X041470Y006898D01*
X041470Y007056D02*
X032320Y007056D01*
X032618Y006898D02*
X033542Y006898D01*
X033496Y007215D02*
X032664Y007215D01*
X032770Y007373D02*
X033390Y007373D01*
X033360Y007532D02*
X032800Y007532D01*
X032771Y007690D02*
X033389Y007690D01*
X034080Y007533D02*
X034080Y008033D01*
X029580Y008033D01*
X029580Y009033D01*
X030000Y008958D02*
X030160Y008958D01*
X030160Y008800D02*
X030000Y008800D01*
X029980Y008641D02*
X030180Y008641D01*
X030277Y008483D02*
X029883Y008483D01*
X029820Y008324D02*
X031390Y008324D01*
X031342Y008483D02*
X030883Y008483D01*
X030980Y008641D02*
X031351Y008641D01*
X031000Y009275D02*
X041470Y009275D01*
X041470Y009117D02*
X035305Y009117D01*
X035320Y008958D02*
X035621Y008958D01*
X035623Y008960D02*
X035559Y008927D01*
X035500Y008884D01*
X035449Y008833D01*
X035407Y008774D01*
X035374Y008710D01*
X035351Y008641D01*
X035340Y008570D01*
X035340Y008543D01*
X036070Y008543D01*
X036070Y008523D01*
X036090Y008523D01*
X036090Y008073D01*
X036396Y008073D01*
X036468Y008085D01*
X036537Y008107D01*
X036601Y008140D01*
X036660Y008182D01*
X036711Y008234D01*
X036753Y008292D01*
X036786Y008357D01*
X036809Y008426D01*
X036820Y008497D01*
X036820Y008523D01*
X036090Y008523D01*
X036090Y008543D01*
X036820Y008543D01*
X036820Y008570D01*
X036809Y008641D01*
X036786Y008710D01*
X036753Y008774D01*
X036711Y008833D01*
X036660Y008884D01*
X036601Y008927D01*
X036537Y008960D01*
X036468Y008982D01*
X036396Y008993D01*
X036090Y008993D01*
X036090Y008543D01*
X036070Y008543D01*
X036070Y008993D01*
X035764Y008993D01*
X035692Y008982D01*
X035623Y008960D01*
X035425Y008800D02*
X035320Y008800D01*
X035320Y008641D02*
X035351Y008641D01*
X035340Y008523D02*
X035340Y008497D01*
X035351Y008426D01*
X035374Y008357D01*
X035407Y008292D01*
X035449Y008234D01*
X035500Y008182D01*
X035559Y008140D01*
X035623Y008107D01*
X035692Y008085D01*
X035764Y008073D01*
X036070Y008073D01*
X036070Y008523D01*
X035340Y008523D01*
X035342Y008483D02*
X035320Y008483D01*
X035320Y008324D02*
X035390Y008324D01*
X035320Y008166D02*
X035523Y008166D01*
X035320Y008007D02*
X041470Y008007D01*
X041470Y007849D02*
X036667Y007849D01*
X036771Y007690D02*
X041470Y007690D01*
X041470Y007532D02*
X036800Y007532D01*
X036770Y007373D02*
X041470Y007373D01*
X041470Y007215D02*
X036664Y007215D01*
X036080Y007533D02*
X035080Y007533D01*
X035080Y009033D01*
X030580Y009033D01*
X030160Y009117D02*
X030000Y009117D01*
X030000Y009275D02*
X030160Y009275D01*
X030184Y009434D02*
X029976Y009434D01*
X029875Y009592D02*
X030285Y009592D01*
X030875Y009592D02*
X041470Y009592D01*
X041470Y009434D02*
X030976Y009434D01*
X032090Y008543D02*
X032820Y008543D01*
X032820Y008570D01*
X032809Y008641D01*
X032786Y008710D01*
X032753Y008774D01*
X032740Y008793D01*
X033420Y008793D01*
X033407Y008774D01*
X033374Y008710D01*
X033351Y008641D01*
X033340Y008570D01*
X033340Y008543D01*
X034070Y008543D01*
X034070Y008523D01*
X033340Y008523D01*
X033340Y008497D01*
X033351Y008426D01*
X033374Y008357D01*
X033407Y008292D01*
X033420Y008273D01*
X032740Y008273D01*
X032753Y008292D01*
X032786Y008357D01*
X032809Y008426D01*
X032820Y008497D01*
X032820Y008523D01*
X032090Y008523D01*
X032090Y008543D01*
X032770Y008324D02*
X033390Y008324D01*
X033342Y008483D02*
X032818Y008483D01*
X032809Y008641D02*
X033351Y008641D01*
X034320Y008007D02*
X034840Y008007D01*
X034840Y007849D02*
X034667Y007849D01*
X034771Y007690D02*
X034840Y007690D01*
X034840Y007532D02*
X034800Y007532D01*
X034770Y007373D02*
X034901Y007373D01*
X034664Y007215D02*
X035496Y007215D01*
X035542Y006898D02*
X034618Y006898D01*
X034713Y006264D02*
X035447Y006264D01*
X035683Y006105D02*
X034477Y006105D01*
X033683Y006105D02*
X032477Y006105D01*
X032713Y006264D02*
X033447Y006264D01*
X031683Y006105D02*
X031000Y006105D01*
X031000Y005947D02*
X041470Y005947D01*
X041470Y006105D02*
X036477Y006105D01*
X036713Y006264D02*
X041470Y006264D01*
X041470Y006422D02*
X036790Y006422D01*
X036800Y006581D02*
X041470Y006581D01*
X041470Y006739D02*
X036751Y006739D01*
X035493Y007849D02*
X035320Y007849D01*
X034840Y008166D02*
X034637Y008166D01*
X034770Y008324D02*
X034840Y008324D01*
X034840Y008483D02*
X034818Y008483D01*
X034809Y008641D02*
X034840Y008641D01*
X036070Y008641D02*
X036090Y008641D01*
X036080Y008533D02*
X038080Y008533D01*
X038080Y003533D01*
X034080Y003533D01*
X034090Y003523D02*
X034090Y003073D01*
X034271Y003073D01*
X034540Y003343D01*
X034540Y003523D01*
X034090Y003523D01*
X034070Y003523D01*
X034070Y003073D01*
X033889Y003073D01*
X033620Y003343D01*
X033620Y003523D01*
X034070Y003523D01*
X034070Y003543D01*
X033620Y003543D01*
X033620Y003724D01*
X033889Y003993D01*
X034070Y003993D01*
X034070Y003543D01*
X034090Y003543D01*
X034540Y003543D01*
X034540Y003724D01*
X034271Y003993D01*
X034090Y003993D01*
X034090Y003543D01*
X034090Y003523D01*
X034090Y003569D02*
X034070Y003569D01*
X034070Y003411D02*
X034090Y003411D01*
X034090Y003252D02*
X034070Y003252D01*
X034070Y003094D02*
X034090Y003094D01*
X034291Y003094D02*
X039014Y003094D01*
X039063Y003252D02*
X034450Y003252D01*
X034540Y003411D02*
X039168Y003411D01*
X039276Y003569D02*
X034540Y003569D01*
X034536Y003728D02*
X039413Y003728D01*
X039348Y003676D02*
X039348Y003676D01*
X039612Y003886D02*
X034378Y003886D01*
X034090Y003886D02*
X034070Y003886D01*
X034070Y003728D02*
X034090Y003728D01*
X033782Y003886D02*
X033349Y003886D01*
X033262Y003973D02*
X032898Y003973D01*
X032640Y003716D01*
X032640Y003351D01*
X032898Y003093D01*
X033262Y003093D01*
X033520Y003351D01*
X033520Y003716D01*
X033262Y003973D01*
X033508Y003728D02*
X033624Y003728D01*
X033620Y003569D02*
X033520Y003569D01*
X033520Y003411D02*
X033620Y003411D01*
X033710Y003252D02*
X033421Y003252D01*
X033263Y003094D02*
X033869Y003094D01*
X033898Y002973D02*
X033640Y002716D01*
X033640Y002351D01*
X033898Y002093D01*
X034262Y002093D01*
X034520Y002351D01*
X034520Y002716D01*
X034262Y002973D01*
X033898Y002973D01*
X033860Y002935D02*
X033300Y002935D01*
X033262Y002973D02*
X032898Y002973D01*
X032640Y002716D01*
X032640Y002351D01*
X032898Y002093D01*
X033262Y002093D01*
X033520Y002351D01*
X033520Y002716D01*
X033262Y002973D01*
X033459Y002777D02*
X033701Y002777D01*
X033640Y002618D02*
X033520Y002618D01*
X033520Y002460D02*
X033640Y002460D01*
X033690Y002301D02*
X033470Y002301D01*
X033312Y002143D02*
X033848Y002143D01*
X034312Y002143D02*
X038962Y002143D01*
X038919Y002301D02*
X034470Y002301D01*
X034520Y002460D02*
X038919Y002460D01*
X038919Y002618D02*
X034520Y002618D01*
X034459Y002777D02*
X038919Y002777D01*
X038966Y002935D02*
X034300Y002935D01*
X032897Y003094D02*
X032263Y003094D01*
X032262Y003093D02*
X032520Y003351D01*
X032520Y003716D01*
X032262Y003973D01*
X031898Y003973D01*
X031640Y003716D01*
X031640Y003351D01*
X031898Y003093D01*
X032262Y003093D01*
X032262Y002973D02*
X031898Y002973D01*
X031640Y002716D01*
X031640Y002351D01*
X031898Y002093D01*
X032262Y002093D01*
X032520Y002351D01*
X032520Y002716D01*
X032262Y002973D01*
X032300Y002935D02*
X032860Y002935D01*
X032701Y002777D02*
X032459Y002777D01*
X032520Y002618D02*
X032640Y002618D01*
X032640Y002460D02*
X032520Y002460D01*
X032470Y002301D02*
X032690Y002301D01*
X032848Y002143D02*
X032312Y002143D01*
X031848Y002143D02*
X031312Y002143D01*
X031262Y002093D02*
X031520Y002351D01*
X031520Y002716D01*
X031262Y002973D01*
X030898Y002973D01*
X030640Y002716D01*
X030640Y002351D01*
X030898Y002093D01*
X031262Y002093D01*
X031470Y002301D02*
X031690Y002301D01*
X031640Y002460D02*
X031520Y002460D01*
X031520Y002618D02*
X031640Y002618D01*
X031701Y002777D02*
X031459Y002777D01*
X031300Y002935D02*
X031860Y002935D01*
X031897Y003094D02*
X031263Y003094D01*
X031262Y003093D02*
X031520Y003351D01*
X031520Y003716D01*
X031262Y003973D01*
X030898Y003973D01*
X030640Y003716D01*
X030640Y003351D01*
X030898Y003093D01*
X031262Y003093D01*
X031421Y003252D02*
X031739Y003252D01*
X031640Y003411D02*
X031520Y003411D01*
X031520Y003569D02*
X031640Y003569D01*
X031652Y003728D02*
X031508Y003728D01*
X031349Y003886D02*
X031811Y003886D01*
X032349Y003886D02*
X032811Y003886D01*
X032652Y003728D02*
X032508Y003728D01*
X032520Y003569D02*
X032640Y003569D01*
X032640Y003411D02*
X032520Y003411D01*
X032421Y003252D02*
X032739Y003252D01*
X030897Y003094D02*
X030263Y003094D01*
X030262Y003093D02*
X030520Y003351D01*
X030520Y003716D01*
X030262Y003973D01*
X029898Y003973D01*
X029640Y003716D01*
X029640Y003351D01*
X029898Y003093D01*
X030262Y003093D01*
X030262Y002973D02*
X029898Y002973D01*
X029640Y002716D01*
X029640Y002351D01*
X029898Y002093D01*
X030262Y002093D01*
X030520Y002351D01*
X030520Y002716D01*
X030262Y002973D01*
X030300Y002935D02*
X030860Y002935D01*
X030701Y002777D02*
X030459Y002777D01*
X030520Y002618D02*
X030640Y002618D01*
X030640Y002460D02*
X030520Y002460D01*
X030470Y002301D02*
X030690Y002301D01*
X030848Y002143D02*
X030312Y002143D01*
X029848Y002143D02*
X016580Y002143D01*
X016580Y002301D02*
X029690Y002301D01*
X029640Y002460D02*
X016580Y002460D01*
X016580Y002618D02*
X029640Y002618D01*
X029701Y002777D02*
X016580Y002777D01*
X016580Y002935D02*
X029860Y002935D01*
X029897Y003094D02*
X016580Y003094D01*
X016580Y003252D02*
X029739Y003252D01*
X029640Y003411D02*
X016580Y003411D01*
X016580Y003569D02*
X029640Y003569D01*
X029652Y003728D02*
X016580Y003728D01*
X016580Y003886D02*
X029811Y003886D01*
X030349Y003886D02*
X030811Y003886D01*
X030652Y003728D02*
X030508Y003728D01*
X030520Y003569D02*
X030640Y003569D01*
X030640Y003411D02*
X030520Y003411D01*
X030421Y003252D02*
X030739Y003252D01*
X027020Y004351D02*
X027020Y004533D01*
X026580Y004533D01*
X026580Y004093D01*
X026762Y004093D01*
X027020Y004351D01*
X027020Y004362D02*
X041470Y004362D01*
X041470Y004520D02*
X027020Y004520D01*
X027020Y004533D02*
X026580Y004533D01*
X026580Y004533D01*
X026580Y004093D01*
X026398Y004093D01*
X026140Y004351D01*
X026140Y004533D01*
X026580Y004533D01*
X026580Y004533D01*
X026580Y004533D01*
X026580Y006033D01*
X026580Y005333D01*
X026615Y005333D01*
X026683Y005344D01*
X026749Y005366D01*
X026811Y005397D01*
X026867Y005438D01*
X026916Y005487D01*
X026956Y005543D01*
X026988Y005604D01*
X027009Y005670D01*
X027020Y005739D01*
X027020Y006033D01*
X026580Y006033D01*
X026580Y006033D01*
X026580Y005333D01*
X026545Y005333D01*
X026477Y005344D01*
X026411Y005366D01*
X026349Y005397D01*
X026293Y005438D01*
X026244Y005487D01*
X026204Y005543D01*
X026172Y005604D01*
X026151Y005670D01*
X026140Y005739D01*
X026140Y006033D01*
X026580Y006033D01*
X026580Y006033D01*
X026580Y006033D01*
X027020Y006033D01*
X027020Y006328D01*
X027009Y006396D01*
X026988Y006462D01*
X026956Y006524D01*
X026916Y006580D01*
X026867Y006629D01*
X026811Y006670D01*
X026749Y006701D01*
X026683Y006722D01*
X026615Y006733D01*
X026580Y006733D01*
X026545Y006733D01*
X026477Y006722D01*
X026411Y006701D01*
X026349Y006670D01*
X026293Y006629D01*
X026244Y006580D01*
X026204Y006524D01*
X026172Y006462D01*
X026151Y006396D01*
X026140Y006328D01*
X026140Y006033D01*
X026580Y006033D01*
X026580Y006733D01*
X026580Y006033D01*
X026580Y006033D01*
X026580Y006105D02*
X026580Y006105D01*
X026580Y005947D02*
X026580Y005947D01*
X026580Y005788D02*
X026580Y005788D01*
X026580Y005630D02*
X026580Y005630D01*
X026580Y005471D02*
X026580Y005471D01*
X026900Y005471D02*
X027288Y005471D01*
X027342Y005417D02*
X027496Y005353D01*
X027664Y005353D01*
X027818Y005417D01*
X027936Y005535D01*
X028000Y005690D01*
X028000Y006377D01*
X027936Y006531D01*
X027818Y006649D01*
X027664Y006713D01*
X027496Y006713D01*
X027342Y006649D01*
X027224Y006531D01*
X027160Y006377D01*
X027160Y005690D01*
X027224Y005535D01*
X027342Y005417D01*
X027185Y005630D02*
X026996Y005630D01*
X027020Y005788D02*
X027160Y005788D01*
X027160Y005947D02*
X027020Y005947D01*
X027020Y006105D02*
X027160Y006105D01*
X027160Y006264D02*
X027020Y006264D01*
X027001Y006422D02*
X027179Y006422D01*
X027274Y006581D02*
X026915Y006581D01*
X026580Y006581D02*
X026580Y006581D01*
X026580Y006422D02*
X026580Y006422D01*
X026580Y006264D02*
X026580Y006264D01*
X026140Y006264D02*
X026000Y006264D01*
X026000Y006105D02*
X026140Y006105D01*
X026140Y005947D02*
X026000Y005947D01*
X026000Y005788D02*
X026140Y005788D01*
X026164Y005630D02*
X025975Y005630D01*
X025872Y005471D02*
X026260Y005471D01*
X025820Y005313D02*
X041470Y005313D01*
X041470Y005471D02*
X030872Y005471D01*
X030818Y005417D02*
X030936Y005535D01*
X031000Y005690D01*
X031000Y006377D01*
X030936Y006531D01*
X030818Y006649D01*
X030664Y006713D01*
X030496Y006713D01*
X030342Y006649D01*
X030224Y006531D01*
X030160Y006377D01*
X030160Y005690D01*
X030224Y005535D01*
X030342Y005417D01*
X030496Y005353D01*
X030664Y005353D01*
X030818Y005417D01*
X030975Y005630D02*
X041470Y005630D01*
X041470Y005788D02*
X031000Y005788D01*
X031000Y006264D02*
X031447Y006264D01*
X031370Y006422D02*
X030981Y006422D01*
X030886Y006581D02*
X031360Y006581D01*
X031409Y006739D02*
X025820Y006739D01*
X025820Y006898D02*
X027376Y006898D01*
X027340Y007056D02*
X025942Y007056D01*
X026101Y007215D02*
X027340Y007215D01*
X027340Y007373D02*
X026259Y007373D01*
X026418Y007532D02*
X027340Y007532D01*
X027340Y007690D02*
X026576Y007690D01*
X026735Y007849D02*
X027340Y007849D01*
X027340Y008007D02*
X026893Y008007D01*
X027052Y008166D02*
X027340Y008166D01*
X027340Y008324D02*
X027210Y008324D01*
X027007Y008800D02*
X027000Y008800D01*
X027000Y008958D02*
X027160Y008958D01*
X027160Y009117D02*
X027000Y009117D01*
X027000Y009275D02*
X027160Y009275D01*
X027184Y009434D02*
X026976Y009434D01*
X027340Y009909D02*
X011536Y009909D01*
X011694Y010068D02*
X027340Y010068D01*
X027340Y010226D02*
X011853Y010226D01*
X012011Y010385D02*
X027340Y010385D01*
X027340Y010543D02*
X012170Y010543D01*
X012328Y010702D02*
X027340Y010702D01*
X027340Y010860D02*
X012452Y010860D01*
X012490Y011019D02*
X027340Y011019D01*
X027340Y011177D02*
X012490Y011177D01*
X012490Y011336D02*
X027340Y011336D01*
X027340Y011494D02*
X012490Y011494D01*
X012490Y011653D02*
X027340Y011653D01*
X027340Y011811D02*
X012490Y011811D01*
X012490Y011970D02*
X027340Y011970D01*
X027340Y012128D02*
X012490Y012128D01*
X012490Y012287D02*
X027340Y012287D01*
X027340Y012445D02*
X012490Y012445D01*
X012490Y012604D02*
X027340Y012604D01*
X027340Y012762D02*
X012490Y012762D01*
X012490Y012921D02*
X027340Y012921D01*
X027340Y013079D02*
X012490Y013079D01*
X012490Y013238D02*
X027447Y013238D01*
X027820Y012445D02*
X041470Y012445D01*
X041470Y012287D02*
X027820Y012287D01*
X027820Y012128D02*
X041470Y012128D01*
X041470Y011970D02*
X027820Y011970D01*
X027820Y011811D02*
X041470Y011811D01*
X041470Y011653D02*
X027820Y011653D01*
X027820Y011494D02*
X041470Y011494D01*
X041470Y011336D02*
X027820Y011336D01*
X027820Y011177D02*
X041470Y011177D01*
X041470Y011019D02*
X027820Y011019D01*
X027820Y010860D02*
X041470Y010860D01*
X041470Y010702D02*
X027820Y010702D01*
X027820Y010543D02*
X041470Y010543D01*
X041470Y010385D02*
X027820Y010385D01*
X027820Y010226D02*
X041470Y010226D01*
X041470Y010068D02*
X027820Y010068D01*
X027820Y009909D02*
X041470Y009909D01*
X041470Y009751D02*
X027820Y009751D01*
X027875Y009592D02*
X028285Y009592D01*
X028184Y009434D02*
X027976Y009434D01*
X028000Y009275D02*
X028160Y009275D01*
X028160Y009117D02*
X028000Y009117D01*
X028000Y008958D02*
X028160Y008958D01*
X028160Y008800D02*
X028000Y008800D01*
X027980Y008641D02*
X028180Y008641D01*
X028277Y008483D02*
X027883Y008483D01*
X027820Y008324D02*
X028340Y008324D01*
X028340Y008166D02*
X027820Y008166D01*
X027820Y008007D02*
X028340Y008007D01*
X028340Y007849D02*
X027820Y007849D01*
X027820Y007690D02*
X028340Y007690D01*
X028340Y007532D02*
X027820Y007532D01*
X027820Y007373D02*
X028401Y007373D01*
X028580Y007533D02*
X032080Y007533D01*
X030274Y006581D02*
X029886Y006581D01*
X029936Y006531D02*
X029818Y006649D01*
X029664Y006713D01*
X029496Y006713D01*
X029342Y006649D01*
X029224Y006531D01*
X029160Y006377D01*
X029160Y005690D01*
X029224Y005535D01*
X029342Y005417D01*
X029496Y005353D01*
X029664Y005353D01*
X029818Y005417D01*
X029936Y005535D01*
X030000Y005690D01*
X030000Y006377D01*
X029936Y006531D01*
X029981Y006422D02*
X030179Y006422D01*
X030160Y006264D02*
X030000Y006264D01*
X030000Y006105D02*
X030160Y006105D01*
X030160Y005947D02*
X030000Y005947D01*
X030000Y005788D02*
X030160Y005788D01*
X030185Y005630D02*
X029975Y005630D01*
X029872Y005471D02*
X030288Y005471D01*
X029288Y005471D02*
X028872Y005471D01*
X028818Y005417D02*
X028936Y005535D01*
X029000Y005690D01*
X029000Y006377D01*
X028936Y006531D01*
X028818Y006649D01*
X028664Y006713D01*
X028496Y006713D01*
X028342Y006649D01*
X028224Y006531D01*
X028160Y006377D01*
X028160Y005690D01*
X028224Y005535D01*
X028342Y005417D01*
X028496Y005353D01*
X028664Y005353D01*
X028818Y005417D01*
X028975Y005630D02*
X029185Y005630D01*
X029160Y005788D02*
X029000Y005788D01*
X029000Y005947D02*
X029160Y005947D01*
X029160Y006105D02*
X029000Y006105D01*
X029000Y006264D02*
X029160Y006264D01*
X029179Y006422D02*
X028981Y006422D01*
X028886Y006581D02*
X029274Y006581D01*
X028274Y006581D02*
X027886Y006581D01*
X027981Y006422D02*
X028179Y006422D01*
X028160Y006264D02*
X028000Y006264D01*
X028000Y006105D02*
X028160Y006105D01*
X028160Y005947D02*
X028000Y005947D01*
X028000Y005788D02*
X028160Y005788D01*
X028185Y005630D02*
X027975Y005630D01*
X027872Y005471D02*
X028288Y005471D01*
X027020Y004716D02*
X026762Y004973D01*
X026580Y004973D01*
X026398Y004973D01*
X026140Y004716D01*
X026140Y004533D01*
X026580Y004533D01*
X026580Y004973D01*
X026580Y004533D01*
X026580Y004533D01*
X026580Y004520D02*
X026580Y004520D01*
X026580Y004362D02*
X026580Y004362D01*
X026580Y004203D02*
X026580Y004203D01*
X026872Y004203D02*
X040635Y004203D01*
X040729Y004203D02*
X041470Y004203D01*
X041470Y004045D02*
X041284Y004045D01*
X041470Y004679D02*
X027020Y004679D01*
X027020Y004716D02*
X027020Y004533D01*
X026898Y004837D02*
X041470Y004837D01*
X041470Y004996D02*
X025820Y004996D01*
X025820Y005154D02*
X041470Y005154D01*
X040206Y004171D02*
X040206Y004171D01*
X039884Y004045D02*
X016580Y004045D01*
X016580Y004203D02*
X025316Y004203D01*
X025160Y004362D02*
X016580Y004362D01*
X016580Y004520D02*
X025160Y004520D01*
X025160Y004679D02*
X016580Y004679D01*
X016580Y004837D02*
X025290Y004837D01*
X025340Y004996D02*
X016580Y004996D01*
X016580Y005154D02*
X025340Y005154D01*
X025340Y005313D02*
X016580Y005313D01*
X016580Y005471D02*
X017288Y005471D01*
X017342Y005417D02*
X017496Y005353D01*
X017664Y005353D01*
X017818Y005417D01*
X017936Y005535D01*
X018000Y005690D01*
X018000Y006377D01*
X017936Y006531D01*
X017818Y006649D01*
X017664Y006713D01*
X017496Y006713D01*
X017342Y006649D01*
X017224Y006531D01*
X017160Y006377D01*
X017160Y005690D01*
X017224Y005535D01*
X017342Y005417D01*
X017185Y005630D02*
X016580Y005630D01*
X016580Y005788D02*
X017160Y005788D01*
X017160Y005947D02*
X016580Y005947D01*
X016580Y006105D02*
X017160Y006105D01*
X017160Y006264D02*
X016580Y006264D01*
X016580Y006422D02*
X017179Y006422D01*
X017274Y006581D02*
X016580Y006581D01*
X016580Y006739D02*
X025340Y006739D01*
X025340Y006898D02*
X016580Y006898D01*
X016580Y007056D02*
X025340Y007056D01*
X025422Y007215D02*
X016580Y007215D01*
X017886Y006581D02*
X018274Y006581D01*
X018224Y006531D02*
X018160Y006377D01*
X018160Y005690D01*
X018224Y005535D01*
X018342Y005417D01*
X018496Y005353D01*
X018664Y005353D01*
X018818Y005417D01*
X018936Y005535D01*
X019000Y005690D01*
X019000Y006377D01*
X018936Y006531D01*
X018818Y006649D01*
X018664Y006713D01*
X018496Y006713D01*
X018342Y006649D01*
X018224Y006531D01*
X018179Y006422D02*
X017981Y006422D01*
X018000Y006264D02*
X018160Y006264D01*
X018160Y006105D02*
X018000Y006105D01*
X018000Y005947D02*
X018160Y005947D01*
X018160Y005788D02*
X018000Y005788D01*
X017975Y005630D02*
X018185Y005630D01*
X018288Y005471D02*
X017872Y005471D01*
X018872Y005471D02*
X019288Y005471D01*
X019342Y005417D02*
X019496Y005353D01*
X019664Y005353D01*
X019818Y005417D01*
X019936Y005535D01*
X020000Y005690D01*
X020000Y006377D01*
X019936Y006531D01*
X019818Y006649D01*
X019664Y006713D01*
X019496Y006713D01*
X019342Y006649D01*
X019224Y006531D01*
X019160Y006377D01*
X019160Y005690D01*
X019224Y005535D01*
X019342Y005417D01*
X019185Y005630D02*
X018975Y005630D01*
X019000Y005788D02*
X019160Y005788D01*
X019160Y005947D02*
X019000Y005947D01*
X019000Y006105D02*
X019160Y006105D01*
X019160Y006264D02*
X019000Y006264D01*
X018981Y006422D02*
X019179Y006422D01*
X019274Y006581D02*
X018886Y006581D01*
X019886Y006581D02*
X020274Y006581D01*
X020224Y006531D02*
X020160Y006377D01*
X020160Y005690D01*
X020224Y005535D01*
X020342Y005417D01*
X020496Y005353D01*
X020664Y005353D01*
X020818Y005417D01*
X020936Y005535D01*
X021000Y005690D01*
X021000Y006377D01*
X020936Y006531D01*
X020818Y006649D01*
X020664Y006713D01*
X020496Y006713D01*
X020342Y006649D01*
X020224Y006531D01*
X020179Y006422D02*
X019981Y006422D01*
X020000Y006264D02*
X020160Y006264D01*
X020160Y006105D02*
X020000Y006105D01*
X020000Y005947D02*
X020160Y005947D01*
X020160Y005788D02*
X020000Y005788D01*
X019975Y005630D02*
X020185Y005630D01*
X020288Y005471D02*
X019872Y005471D01*
X020872Y005471D02*
X021288Y005471D01*
X021342Y005417D02*
X021496Y005353D01*
X021664Y005353D01*
X021818Y005417D01*
X021936Y005535D01*
X022000Y005690D01*
X022000Y006377D01*
X021936Y006531D01*
X021818Y006649D01*
X021664Y006713D01*
X021496Y006713D01*
X021342Y006649D01*
X021224Y006531D01*
X021160Y006377D01*
X021160Y005690D01*
X021224Y005535D01*
X021342Y005417D01*
X021185Y005630D02*
X020975Y005630D01*
X021000Y005788D02*
X021160Y005788D01*
X021160Y005947D02*
X021000Y005947D01*
X021000Y006105D02*
X021160Y006105D01*
X021160Y006264D02*
X021000Y006264D01*
X020981Y006422D02*
X021179Y006422D01*
X021274Y006581D02*
X020886Y006581D01*
X021886Y006581D02*
X022274Y006581D01*
X022224Y006531D02*
X022342Y006649D01*
X022496Y006713D01*
X022664Y006713D01*
X022818Y006649D01*
X022936Y006531D01*
X023000Y006377D01*
X023000Y005690D01*
X022936Y005535D01*
X022818Y005417D01*
X022664Y005353D01*
X022496Y005353D01*
X022342Y005417D01*
X022224Y005535D01*
X022160Y005690D01*
X022160Y006377D01*
X022224Y006531D01*
X022179Y006422D02*
X021981Y006422D01*
X022000Y006264D02*
X022160Y006264D01*
X022160Y006105D02*
X022000Y006105D01*
X022000Y005947D02*
X022160Y005947D01*
X022160Y005788D02*
X022000Y005788D01*
X021975Y005630D02*
X022185Y005630D01*
X022288Y005471D02*
X021872Y005471D01*
X022872Y005471D02*
X023288Y005471D01*
X023342Y005417D02*
X023496Y005353D01*
X023664Y005353D01*
X023818Y005417D01*
X023936Y005535D01*
X024000Y005690D01*
X024000Y006377D01*
X023936Y006531D01*
X023818Y006649D01*
X023664Y006713D01*
X023496Y006713D01*
X023342Y006649D01*
X023224Y006531D01*
X023160Y006377D01*
X023160Y005690D01*
X023224Y005535D01*
X023342Y005417D01*
X023185Y005630D02*
X022975Y005630D01*
X023000Y005788D02*
X023160Y005788D01*
X023160Y005947D02*
X023000Y005947D01*
X023000Y006105D02*
X023160Y006105D01*
X023160Y006264D02*
X023000Y006264D01*
X022981Y006422D02*
X023179Y006422D01*
X023274Y006581D02*
X022886Y006581D01*
X023886Y006581D02*
X024274Y006581D01*
X024224Y006531D02*
X024160Y006377D01*
X024160Y005690D01*
X024224Y005535D01*
X024342Y005417D01*
X024496Y005353D01*
X024664Y005353D01*
X024818Y005417D01*
X024936Y005535D01*
X025000Y005690D01*
X025000Y006377D01*
X024936Y006531D01*
X024818Y006649D01*
X024664Y006713D01*
X024496Y006713D01*
X024342Y006649D01*
X024224Y006531D01*
X024179Y006422D02*
X023981Y006422D01*
X024000Y006264D02*
X024160Y006264D01*
X024160Y006105D02*
X024000Y006105D01*
X024000Y005947D02*
X024160Y005947D01*
X024160Y005788D02*
X024000Y005788D01*
X023975Y005630D02*
X024185Y005630D01*
X024288Y005471D02*
X023872Y005471D01*
X024872Y005471D02*
X025288Y005471D01*
X025185Y005630D02*
X024975Y005630D01*
X025000Y005788D02*
X025160Y005788D01*
X025160Y005947D02*
X025000Y005947D01*
X025000Y006105D02*
X025160Y006105D01*
X025160Y006264D02*
X025000Y006264D01*
X024981Y006422D02*
X025179Y006422D01*
X025274Y006581D02*
X024886Y006581D01*
X025580Y007033D02*
X025580Y006033D01*
X025580Y004533D01*
X026000Y004520D02*
X026140Y004520D01*
X026140Y004362D02*
X026000Y004362D01*
X025844Y004203D02*
X026288Y004203D01*
X026140Y004679D02*
X026000Y004679D01*
X025870Y004837D02*
X026262Y004837D01*
X026580Y004837D02*
X026580Y004837D01*
X026580Y004679D02*
X026580Y004679D01*
X026159Y006422D02*
X025981Y006422D01*
X025886Y006581D02*
X026245Y006581D01*
X025580Y007033D02*
X027580Y009033D01*
X028580Y009033D02*
X028580Y007533D01*
X028820Y007849D02*
X029425Y007849D01*
X029340Y008007D02*
X028820Y008007D01*
X028820Y008166D02*
X029340Y008166D01*
X029340Y008324D02*
X028820Y008324D01*
X028883Y008483D02*
X029277Y008483D01*
X029180Y008641D02*
X028980Y008641D01*
X029000Y008800D02*
X029160Y008800D01*
X029160Y008958D02*
X029000Y008958D01*
X029000Y009117D02*
X029160Y009117D01*
X029160Y009275D02*
X029000Y009275D01*
X028976Y009434D02*
X029184Y009434D01*
X029285Y009592D02*
X028875Y009592D01*
X026056Y007849D02*
X004490Y007849D01*
X004490Y007690D02*
X025898Y007690D01*
X025739Y007532D02*
X004490Y007532D01*
X004490Y007373D02*
X025581Y007373D01*
X025277Y008483D02*
X024883Y008483D01*
X024936Y008535D02*
X025000Y008690D01*
X025000Y009377D01*
X024936Y009531D01*
X024818Y009649D01*
X024664Y009713D01*
X024496Y009713D01*
X024342Y009649D01*
X024224Y009531D01*
X024160Y009377D01*
X024160Y008690D01*
X024224Y008535D01*
X024342Y008417D01*
X024496Y008353D01*
X024664Y008353D01*
X024818Y008417D01*
X024936Y008535D01*
X024980Y008641D02*
X025180Y008641D01*
X025160Y008800D02*
X025000Y008800D01*
X025000Y008958D02*
X025160Y008958D01*
X025160Y009117D02*
X025000Y009117D01*
X025000Y009275D02*
X025160Y009275D01*
X025184Y009434D02*
X024976Y009434D01*
X024875Y009592D02*
X025285Y009592D01*
X024285Y009592D02*
X023875Y009592D01*
X023818Y009649D02*
X023664Y009713D01*
X023496Y009713D01*
X023342Y009649D01*
X023224Y009531D01*
X023160Y009377D01*
X023160Y008690D01*
X023224Y008535D01*
X023342Y008417D01*
X023496Y008353D01*
X023664Y008353D01*
X023818Y008417D01*
X023936Y008535D01*
X024000Y008690D01*
X024000Y009377D01*
X023936Y009531D01*
X023818Y009649D01*
X023976Y009434D02*
X024184Y009434D01*
X024160Y009275D02*
X024000Y009275D01*
X024000Y009117D02*
X024160Y009117D01*
X024160Y008958D02*
X024000Y008958D01*
X024000Y008800D02*
X024160Y008800D01*
X024180Y008641D02*
X023980Y008641D01*
X023883Y008483D02*
X024277Y008483D01*
X023277Y008483D02*
X022883Y008483D01*
X022936Y008535D02*
X023000Y008690D01*
X023000Y009377D01*
X022936Y009531D01*
X022818Y009649D01*
X022664Y009713D01*
X022496Y009713D01*
X022342Y009649D01*
X022224Y009531D01*
X022160Y009377D01*
X022160Y008690D01*
X022224Y008535D01*
X022342Y008417D01*
X022496Y008353D01*
X022664Y008353D01*
X022818Y008417D01*
X022936Y008535D01*
X022980Y008641D02*
X023180Y008641D01*
X023160Y008800D02*
X023000Y008800D01*
X023000Y008958D02*
X023160Y008958D01*
X023160Y009117D02*
X023000Y009117D01*
X023000Y009275D02*
X023160Y009275D01*
X023184Y009434D02*
X022976Y009434D01*
X022875Y009592D02*
X023285Y009592D01*
X022285Y009592D02*
X021875Y009592D01*
X021818Y009649D02*
X021664Y009713D01*
X021496Y009713D01*
X021342Y009649D01*
X021224Y009531D01*
X021160Y009377D01*
X021160Y008690D01*
X021224Y008535D01*
X021342Y008417D01*
X021496Y008353D01*
X021664Y008353D01*
X021818Y008417D01*
X021936Y008535D01*
X022000Y008690D01*
X022000Y009377D01*
X021936Y009531D01*
X021818Y009649D01*
X021976Y009434D02*
X022184Y009434D01*
X022160Y009275D02*
X022000Y009275D01*
X022000Y009117D02*
X022160Y009117D01*
X022160Y008958D02*
X022000Y008958D01*
X022000Y008800D02*
X022160Y008800D01*
X022180Y008641D02*
X021980Y008641D01*
X021883Y008483D02*
X022277Y008483D01*
X021277Y008483D02*
X020883Y008483D01*
X020936Y008535D02*
X021000Y008690D01*
X021000Y009377D01*
X020936Y009531D01*
X020818Y009649D01*
X020664Y009713D01*
X020496Y009713D01*
X020342Y009649D01*
X020224Y009531D01*
X020160Y009377D01*
X020160Y008690D01*
X020224Y008535D01*
X020342Y008417D01*
X020496Y008353D01*
X020664Y008353D01*
X020818Y008417D01*
X020936Y008535D01*
X020980Y008641D02*
X021180Y008641D01*
X021160Y008800D02*
X021000Y008800D01*
X021000Y008958D02*
X021160Y008958D01*
X021160Y009117D02*
X021000Y009117D01*
X021000Y009275D02*
X021160Y009275D01*
X021184Y009434D02*
X020976Y009434D01*
X020875Y009592D02*
X021285Y009592D01*
X020285Y009592D02*
X019875Y009592D01*
X019818Y009649D02*
X019664Y009713D01*
X019496Y009713D01*
X019342Y009649D01*
X019224Y009531D01*
X019160Y009377D01*
X019160Y008690D01*
X019224Y008535D01*
X019342Y008417D01*
X019496Y008353D01*
X019664Y008353D01*
X019818Y008417D01*
X019936Y008535D01*
X020000Y008690D01*
X020000Y009377D01*
X019936Y009531D01*
X019818Y009649D01*
X019976Y009434D02*
X020184Y009434D01*
X020160Y009275D02*
X020000Y009275D01*
X020000Y009117D02*
X020160Y009117D01*
X020160Y008958D02*
X020000Y008958D01*
X020000Y008800D02*
X020160Y008800D01*
X020180Y008641D02*
X019980Y008641D01*
X019883Y008483D02*
X020277Y008483D01*
X019277Y008483D02*
X018883Y008483D01*
X018936Y008535D02*
X019000Y008690D01*
X019000Y009377D01*
X018936Y009531D01*
X018818Y009649D01*
X018664Y009713D01*
X018496Y009713D01*
X018342Y009649D01*
X018224Y009531D01*
X018160Y009377D01*
X018160Y008690D01*
X018224Y008535D01*
X018342Y008417D01*
X018496Y008353D01*
X018664Y008353D01*
X018818Y008417D01*
X018936Y008535D01*
X018980Y008641D02*
X019180Y008641D01*
X019160Y008800D02*
X019000Y008800D01*
X019000Y008958D02*
X019160Y008958D01*
X019160Y009117D02*
X019000Y009117D01*
X019000Y009275D02*
X019160Y009275D01*
X019184Y009434D02*
X018976Y009434D01*
X018875Y009592D02*
X019285Y009592D01*
X018285Y009592D02*
X017875Y009592D01*
X017976Y009434D02*
X018184Y009434D01*
X018160Y009275D02*
X018000Y009275D01*
X018000Y009117D02*
X018160Y009117D01*
X018160Y008958D02*
X018000Y008958D01*
X018000Y008800D02*
X018160Y008800D01*
X018180Y008641D02*
X017980Y008641D01*
X017883Y008483D02*
X018277Y008483D01*
X011644Y011177D02*
X002560Y011177D01*
X002560Y011019D02*
X003328Y011019D01*
X003357Y011040D02*
X003282Y010985D01*
X003216Y010919D01*
X003161Y010844D01*
X003118Y010761D01*
X003090Y010672D01*
X003077Y010591D01*
X004022Y010591D01*
X004022Y010476D01*
X003077Y010476D01*
X003090Y010395D01*
X003118Y010306D01*
X003161Y010223D01*
X003216Y010147D01*
X003282Y010081D01*
X003357Y010027D01*
X003440Y009984D01*
X003529Y009955D01*
X003621Y009941D01*
X004022Y009941D01*
X004022Y010476D01*
X004138Y010476D01*
X004138Y010591D01*
X005083Y010591D01*
X005070Y010672D01*
X005042Y010761D01*
X004999Y010844D01*
X004944Y010919D01*
X004878Y010985D01*
X004803Y011040D01*
X004720Y011082D01*
X004631Y011111D01*
X004539Y011126D01*
X004138Y011126D01*
X004138Y010591D01*
X004022Y010591D01*
X004022Y011126D01*
X003621Y011126D01*
X003529Y011111D01*
X003440Y011082D01*
X003357Y011040D01*
X003173Y010860D02*
X002560Y010860D01*
X002560Y010702D02*
X003099Y010702D01*
X003093Y010385D02*
X002560Y010385D01*
X002560Y010543D02*
X004022Y010543D01*
X004080Y010533D02*
X004080Y012533D01*
X009080Y012533D01*
X011262Y012445D02*
X011670Y012445D01*
X011670Y012604D02*
X005081Y012604D01*
X005041Y012762D02*
X011670Y012762D01*
X011670Y012921D02*
X004943Y012921D01*
X004726Y013079D02*
X011670Y013079D01*
X011670Y013238D02*
X002560Y013238D01*
X002560Y013396D02*
X011670Y013396D01*
X011670Y013555D02*
X002560Y013555D01*
X002560Y013713D02*
X011670Y013713D01*
X011670Y013872D02*
X002560Y013872D01*
X002560Y014030D02*
X011670Y014030D01*
X011670Y014189D02*
X002560Y014189D01*
X002560Y014347D02*
X011670Y014347D01*
X011670Y014506D02*
X002560Y014506D01*
X002560Y014664D02*
X011670Y014664D01*
X011670Y014823D02*
X002560Y014823D01*
X002560Y014981D02*
X004778Y014981D01*
X004681Y015140D02*
X002560Y015140D01*
X002560Y015298D02*
X004660Y015298D01*
X004660Y015457D02*
X002560Y015457D01*
X002560Y015615D02*
X004660Y015615D01*
X004660Y015774D02*
X002560Y015774D01*
X002560Y015932D02*
X004683Y015932D01*
X004784Y016091D02*
X002560Y016091D01*
X002560Y016249D02*
X004840Y016249D01*
X004840Y016408D02*
X002560Y016408D01*
X002560Y016566D02*
X004840Y016566D01*
X004840Y016725D02*
X002560Y016725D01*
X002560Y016883D02*
X004840Y016883D01*
X004840Y017042D02*
X002560Y017042D01*
X002560Y017200D02*
X004840Y017200D01*
X004840Y017359D02*
X002560Y017359D01*
X002560Y017517D02*
X004840Y017517D01*
X004840Y017676D02*
X002560Y017676D01*
X002560Y017834D02*
X004840Y017834D01*
X004767Y017993D02*
X002560Y017993D01*
X002560Y018151D02*
X004676Y018151D01*
X004660Y018310D02*
X002560Y018310D01*
X002560Y018468D02*
X004660Y018468D01*
X004660Y018627D02*
X002560Y018627D01*
X002560Y018785D02*
X004660Y018785D01*
X004688Y018944D02*
X002560Y018944D01*
X002560Y019102D02*
X004795Y019102D01*
X004840Y019261D02*
X002560Y019261D01*
X002560Y019419D02*
X003145Y019419D01*
X003206Y019395D02*
X003206Y019395D01*
X002741Y019578D02*
X002560Y019578D01*
X002740Y019578D02*
X002740Y019578D01*
X003974Y019419D02*
X004840Y019419D01*
X004840Y019578D02*
X004382Y019578D01*
X004627Y019720D02*
X004627Y019720D01*
X004643Y019736D02*
X004944Y019736D01*
X004790Y019895D02*
X012848Y019895D01*
X012706Y020053D02*
X014454Y020053D01*
X014466Y020048D02*
X014694Y020048D01*
X014904Y020135D01*
X015065Y020297D01*
X015152Y020507D01*
X015152Y021560D01*
X015065Y021770D01*
X014904Y021931D01*
X014694Y022018D01*
X014466Y022018D01*
X014256Y021931D01*
X014095Y021770D01*
X014008Y021560D01*
X014008Y020507D01*
X014095Y020297D01*
X014256Y020135D01*
X014466Y020048D01*
X014706Y020053D02*
X016454Y020053D01*
X016466Y020048D02*
X016694Y020048D01*
X016904Y020135D01*
X017065Y020297D01*
X017152Y020507D01*
X017152Y021560D01*
X017065Y021770D01*
X016904Y021931D01*
X016694Y022018D01*
X016466Y022018D01*
X016256Y021931D01*
X016095Y021770D01*
X016008Y021560D01*
X016008Y020507D01*
X016095Y020297D01*
X016256Y020135D01*
X016466Y020048D01*
X016706Y020053D02*
X018454Y020053D01*
X018466Y020048D02*
X018694Y020048D01*
X018904Y020135D01*
X019065Y020297D01*
X019152Y020507D01*
X019152Y021560D01*
X019065Y021770D01*
X018904Y021931D01*
X018694Y022018D01*
X018466Y022018D01*
X018256Y021931D01*
X018095Y021770D01*
X018008Y021560D01*
X018008Y020507D01*
X018095Y020297D01*
X018256Y020135D01*
X018466Y020048D01*
X018706Y020053D02*
X020454Y020053D01*
X020466Y020048D02*
X020694Y020048D01*
X020904Y020135D01*
X021065Y020297D01*
X021152Y020507D01*
X021152Y021560D01*
X021065Y021770D01*
X020904Y021931D01*
X020694Y022018D01*
X020466Y022018D01*
X020256Y021931D01*
X020095Y021770D01*
X020008Y021560D01*
X020008Y020507D01*
X020095Y020297D01*
X020256Y020135D01*
X020466Y020048D01*
X020706Y020053D02*
X023454Y020053D01*
X023466Y020048D02*
X023694Y020048D01*
X023904Y020135D01*
X024065Y020297D01*
X024152Y020507D01*
X024152Y021560D01*
X024065Y021770D01*
X023904Y021931D01*
X023694Y022018D01*
X023466Y022018D01*
X023256Y021931D01*
X023095Y021770D01*
X023008Y021560D01*
X023008Y020507D01*
X023095Y020297D01*
X023256Y020135D01*
X023466Y020048D01*
X023706Y020053D02*
X025454Y020053D01*
X025466Y020048D02*
X025694Y020048D01*
X025904Y020135D01*
X026065Y020297D01*
X026152Y020507D01*
X026152Y021560D01*
X026065Y021770D01*
X025904Y021931D01*
X025694Y022018D01*
X025466Y022018D01*
X025256Y021931D01*
X025095Y021770D01*
X025008Y021560D01*
X025008Y020507D01*
X025095Y020297D01*
X025256Y020135D01*
X025466Y020048D01*
X025706Y020053D02*
X027454Y020053D01*
X027466Y020048D02*
X027694Y020048D01*
X027904Y020135D01*
X028065Y020297D01*
X028152Y020507D01*
X028152Y021560D01*
X028065Y021770D01*
X027904Y021931D01*
X027694Y022018D01*
X027466Y022018D01*
X027256Y021931D01*
X027095Y021770D01*
X027008Y021560D01*
X027008Y020507D01*
X027095Y020297D01*
X027256Y020135D01*
X027466Y020048D01*
X027706Y020053D02*
X029454Y020053D01*
X029466Y020048D02*
X029694Y020048D01*
X029904Y020135D01*
X030065Y020297D01*
X030152Y020507D01*
X030152Y021560D01*
X030065Y021770D01*
X029904Y021931D01*
X029694Y022018D01*
X029466Y022018D01*
X029256Y021931D01*
X029095Y021770D01*
X029008Y021560D01*
X029008Y020507D01*
X029095Y020297D01*
X029256Y020135D01*
X029466Y020048D01*
X029706Y020053D02*
X031454Y020053D01*
X031466Y020048D02*
X031694Y020048D01*
X031904Y020135D01*
X032065Y020297D01*
X032152Y020507D01*
X032152Y021560D01*
X032065Y021770D01*
X031904Y021931D01*
X031694Y022018D01*
X031466Y022018D01*
X031256Y021931D01*
X031095Y021770D01*
X031008Y021560D01*
X031008Y020507D01*
X031095Y020297D01*
X031256Y020135D01*
X031466Y020048D01*
X031312Y019895D02*
X039346Y019895D01*
X039238Y020053D02*
X037706Y020053D01*
X037694Y020048D02*
X037904Y020135D01*
X038065Y020297D01*
X038152Y020507D01*
X038152Y021560D01*
X038065Y021770D01*
X037904Y021931D01*
X037694Y022018D01*
X037466Y022018D01*
X037256Y021931D01*
X037095Y021770D01*
X037008Y021560D01*
X037008Y020507D01*
X037095Y020297D01*
X037256Y020135D01*
X037466Y020048D01*
X037694Y020048D01*
X037454Y020053D02*
X035706Y020053D01*
X035694Y020048D02*
X035904Y020135D01*
X036065Y020297D01*
X036152Y020507D01*
X036152Y021560D01*
X036065Y021770D01*
X035904Y021931D01*
X035694Y022018D01*
X035466Y022018D01*
X035256Y021931D01*
X035095Y021770D01*
X035008Y021560D01*
X035008Y020507D01*
X035095Y020297D01*
X035256Y020135D01*
X035466Y020048D01*
X035694Y020048D01*
X035454Y020053D02*
X033706Y020053D01*
X033694Y020048D02*
X033904Y020135D01*
X034065Y020297D01*
X034152Y020507D01*
X034152Y021560D01*
X034065Y021770D01*
X033904Y021931D01*
X033694Y022018D01*
X033466Y022018D01*
X033256Y021931D01*
X033095Y021770D01*
X033008Y021560D01*
X033008Y020507D01*
X033095Y020297D01*
X033256Y020135D01*
X033466Y020048D01*
X033694Y020048D01*
X033454Y020053D02*
X031706Y020053D01*
X031981Y020212D02*
X033179Y020212D01*
X033064Y020370D02*
X032096Y020370D01*
X032152Y020529D02*
X033008Y020529D01*
X033008Y020687D02*
X032152Y020687D01*
X032152Y020846D02*
X033008Y020846D01*
X033008Y021004D02*
X032152Y021004D01*
X032152Y021163D02*
X033008Y021163D01*
X033008Y021321D02*
X032152Y021321D01*
X032152Y021480D02*
X033008Y021480D01*
X033040Y021638D02*
X032120Y021638D01*
X032039Y021797D02*
X033121Y021797D01*
X033314Y021955D02*
X031846Y021955D01*
X031314Y021955D02*
X029846Y021955D01*
X030039Y021797D02*
X031121Y021797D01*
X031040Y021638D02*
X030120Y021638D01*
X030152Y021480D02*
X031008Y021480D01*
X031008Y021321D02*
X030152Y021321D01*
X030152Y021163D02*
X031008Y021163D01*
X031008Y021004D02*
X030152Y021004D01*
X030152Y020846D02*
X031008Y020846D01*
X031008Y020687D02*
X030152Y020687D01*
X030152Y020529D02*
X031008Y020529D01*
X031064Y020370D02*
X030096Y020370D01*
X029981Y020212D02*
X031179Y020212D01*
X030848Y019895D02*
X022312Y019895D01*
X021848Y019895D02*
X013312Y019895D01*
X012981Y020212D02*
X014179Y020212D01*
X014064Y020370D02*
X013096Y020370D01*
X013065Y020297D02*
X013152Y020507D01*
X013152Y021560D01*
X013065Y021770D01*
X012904Y021931D01*
X012694Y022018D01*
X012466Y022018D01*
X012256Y021931D01*
X012095Y021770D01*
X012008Y021560D01*
X012008Y020507D01*
X012095Y020297D01*
X012256Y020135D01*
X012466Y020048D01*
X012694Y020048D01*
X012904Y020135D01*
X013065Y020297D01*
X013152Y020529D02*
X014008Y020529D01*
X014008Y020687D02*
X013152Y020687D01*
X013152Y020846D02*
X014008Y020846D01*
X014008Y021004D02*
X013152Y021004D01*
X013152Y021163D02*
X014008Y021163D01*
X014008Y021321D02*
X013152Y021321D01*
X013152Y021480D02*
X014008Y021480D01*
X014040Y021638D02*
X013120Y021638D01*
X013039Y021797D02*
X014121Y021797D01*
X014314Y021955D02*
X012846Y021955D01*
X012314Y021955D02*
X010846Y021955D01*
X010904Y021931D02*
X010694Y022018D01*
X010466Y022018D01*
X010256Y021931D01*
X010095Y021770D01*
X010008Y021560D01*
X010008Y020507D01*
X010095Y020297D01*
X010256Y020135D01*
X010466Y020048D01*
X010694Y020048D01*
X010904Y020135D01*
X011065Y020297D01*
X011152Y020507D01*
X011152Y021560D01*
X011065Y021770D01*
X010904Y021931D01*
X011039Y021797D02*
X012121Y021797D01*
X012040Y021638D02*
X011120Y021638D01*
X011152Y021480D02*
X012008Y021480D01*
X012008Y021321D02*
X011152Y021321D01*
X011152Y021163D02*
X012008Y021163D01*
X012008Y021004D02*
X011152Y021004D01*
X011152Y020846D02*
X012008Y020846D01*
X012008Y020687D02*
X011152Y020687D01*
X011152Y020529D02*
X012008Y020529D01*
X012064Y020370D02*
X011096Y020370D01*
X010981Y020212D02*
X012179Y020212D01*
X012454Y020053D02*
X010706Y020053D01*
X010454Y020053D02*
X008706Y020053D01*
X008694Y020048D02*
X008904Y020135D01*
X009065Y020297D01*
X009152Y020507D01*
X009152Y021560D01*
X009065Y021770D01*
X008904Y021931D01*
X008694Y022018D01*
X008466Y022018D01*
X008256Y021931D01*
X008095Y021770D01*
X008008Y021560D01*
X008008Y020507D01*
X008095Y020297D01*
X008256Y020135D01*
X008466Y020048D01*
X008694Y020048D01*
X008454Y020053D02*
X006706Y020053D01*
X006694Y020048D02*
X006904Y020135D01*
X007065Y020297D01*
X007152Y020507D01*
X007152Y021560D01*
X007065Y021770D01*
X006904Y021931D01*
X006694Y022018D01*
X006466Y022018D01*
X006256Y021931D01*
X006095Y021770D01*
X006008Y021560D01*
X006008Y020507D01*
X006095Y020297D01*
X006256Y020135D01*
X006466Y020048D01*
X006694Y020048D01*
X006454Y020053D02*
X004937Y020053D01*
X005028Y020212D02*
X006179Y020212D01*
X006064Y020370D02*
X005105Y020370D01*
X005181Y020529D02*
X006008Y020529D01*
X006008Y020687D02*
X005208Y020687D01*
X005185Y020538D02*
X005185Y020538D01*
X005232Y020846D02*
X006008Y020846D01*
X006008Y021004D02*
X005256Y021004D01*
X005240Y021163D02*
X006008Y021163D01*
X006008Y021321D02*
X005217Y021321D01*
X005193Y021480D02*
X006008Y021480D01*
X006040Y021638D02*
X005132Y021638D01*
X005185Y021529D02*
X005185Y021529D01*
X005056Y021797D02*
X006121Y021797D01*
X006314Y021955D02*
X004980Y021955D01*
X004968Y021980D02*
X004968Y021980D01*
X006846Y021955D02*
X008314Y021955D01*
X008121Y021797D02*
X007039Y021797D01*
X007120Y021638D02*
X008040Y021638D01*
X008008Y021480D02*
X007152Y021480D01*
X007152Y021321D02*
X008008Y021321D01*
X008008Y021163D02*
X007152Y021163D01*
X007152Y021004D02*
X008008Y021004D01*
X008008Y020846D02*
X007152Y020846D01*
X007152Y020687D02*
X008008Y020687D01*
X008008Y020529D02*
X007152Y020529D01*
X007096Y020370D02*
X008064Y020370D01*
X008179Y020212D02*
X006981Y020212D01*
X006996Y019213D02*
X006842Y019149D01*
X006724Y019031D01*
X006660Y018877D01*
X006660Y018190D01*
X006724Y018035D01*
X006842Y017917D01*
X006996Y017853D01*
X007164Y017853D01*
X007318Y017917D01*
X007436Y018035D01*
X007500Y018190D01*
X007500Y018877D01*
X007436Y019031D01*
X007318Y019149D01*
X007164Y019213D01*
X006996Y019213D01*
X006795Y019102D02*
X006365Y019102D01*
X006318Y019149D02*
X006164Y019213D01*
X005996Y019213D01*
X005842Y019149D01*
X005724Y019031D01*
X005660Y018877D01*
X005660Y018190D01*
X005724Y018035D01*
X005842Y017917D01*
X005996Y017853D01*
X006164Y017853D01*
X006318Y017917D01*
X006436Y018035D01*
X006500Y018190D01*
X006500Y018877D01*
X006436Y019031D01*
X006318Y019149D01*
X006472Y018944D02*
X006688Y018944D01*
X006660Y018785D02*
X006500Y018785D01*
X006500Y018627D02*
X006660Y018627D01*
X006660Y018468D02*
X006500Y018468D01*
X006500Y018310D02*
X006660Y018310D01*
X006676Y018151D02*
X006484Y018151D01*
X006393Y017993D02*
X006767Y017993D01*
X007393Y017993D02*
X007740Y017993D01*
X007744Y017987D02*
X007793Y017938D01*
X007849Y017897D01*
X007911Y017866D01*
X007977Y017844D01*
X008045Y017833D01*
X008080Y017833D01*
X008115Y017833D01*
X008183Y017844D01*
X008249Y017866D01*
X008311Y017897D01*
X008367Y017938D01*
X008416Y017987D01*
X008456Y018043D01*
X008488Y018104D01*
X008509Y018170D01*
X008520Y018239D01*
X008520Y018533D01*
X008080Y018533D01*
X008080Y017833D01*
X008080Y018533D01*
X008080Y018533D01*
X008080Y018533D01*
X007640Y018533D01*
X007640Y018239D01*
X007651Y018170D01*
X007672Y018104D01*
X007704Y018043D01*
X007744Y017987D01*
X007657Y018151D02*
X007484Y018151D01*
X007500Y018310D02*
X007640Y018310D01*
X007640Y018468D02*
X007500Y018468D01*
X007640Y018533D02*
X008080Y018533D01*
X008080Y018533D01*
X009080Y018533D01*
X009080Y017833D01*
X009115Y017833D01*
X009183Y017844D01*
X009249Y017866D01*
X009311Y017897D01*
X009367Y017938D01*
X009416Y017987D01*
X009456Y018043D01*
X009488Y018104D01*
X009509Y018170D01*
X009520Y018239D01*
X009520Y018533D01*
X009080Y018533D01*
X009080Y018533D01*
X009080Y017833D01*
X009045Y017833D01*
X008977Y017844D01*
X008911Y017866D01*
X008849Y017897D01*
X008793Y017938D01*
X008744Y017987D01*
X008704Y018043D01*
X008672Y018104D01*
X008651Y018170D01*
X008640Y018239D01*
X008640Y018533D01*
X009080Y018533D01*
X009080Y018533D01*
X009080Y018533D01*
X009080Y017033D01*
X009080Y016233D02*
X009045Y016233D01*
X008977Y016222D01*
X008911Y016201D01*
X008849Y016170D01*
X008793Y016129D01*
X008744Y016080D01*
X008704Y016024D01*
X008672Y015962D01*
X008651Y015896D01*
X008640Y015828D01*
X008640Y015533D01*
X009080Y015533D01*
X008080Y015533D01*
X008080Y014833D01*
X008115Y014833D01*
X008183Y014844D01*
X008249Y014866D01*
X008311Y014897D01*
X008367Y014938D01*
X008416Y014987D01*
X008456Y015043D01*
X008488Y015104D01*
X008509Y015170D01*
X008520Y015239D01*
X008520Y015533D01*
X008080Y015533D01*
X008080Y015533D01*
X008080Y014833D01*
X008045Y014833D01*
X007977Y014844D01*
X007911Y014866D01*
X007849Y014897D01*
X007793Y014938D01*
X007744Y014987D01*
X007704Y015043D01*
X007672Y015104D01*
X007651Y015170D01*
X007640Y015239D01*
X007640Y015533D01*
X008080Y015533D01*
X008080Y015533D01*
X008080Y015533D01*
X008520Y015533D01*
X008520Y015828D01*
X008509Y015896D01*
X008488Y015962D01*
X008456Y016024D01*
X008416Y016080D01*
X008367Y016129D01*
X008311Y016170D01*
X008249Y016201D01*
X008183Y016222D01*
X008115Y016233D01*
X008080Y016233D01*
X008045Y016233D01*
X007977Y016222D01*
X007911Y016201D01*
X007849Y016170D01*
X007793Y016129D01*
X007744Y016080D01*
X007704Y016024D01*
X007672Y015962D01*
X007651Y015896D01*
X007640Y015828D01*
X007640Y015533D01*
X008080Y015533D01*
X008080Y016233D01*
X008080Y015533D01*
X008080Y015533D01*
X008080Y015457D02*
X008080Y015457D01*
X008080Y015615D02*
X008080Y015615D01*
X008080Y015774D02*
X008080Y015774D01*
X008080Y015932D02*
X008080Y015932D01*
X008080Y016091D02*
X008080Y016091D01*
X008405Y016091D02*
X008755Y016091D01*
X008663Y015932D02*
X008497Y015932D01*
X008520Y015774D02*
X008640Y015774D01*
X008640Y015615D02*
X008520Y015615D01*
X008520Y015457D02*
X008640Y015457D01*
X008640Y015298D02*
X008520Y015298D01*
X008499Y015140D02*
X008661Y015140D01*
X008750Y014981D02*
X008410Y014981D01*
X008080Y014981D02*
X008080Y014981D01*
X008080Y015140D02*
X008080Y015140D01*
X008080Y015298D02*
X008080Y015298D01*
X007640Y015298D02*
X007500Y015298D01*
X007500Y015190D02*
X007500Y015877D01*
X007436Y016031D01*
X007318Y016149D01*
X007164Y016213D01*
X006996Y016213D01*
X006842Y016149D01*
X006724Y016031D01*
X006660Y015877D01*
X006660Y015190D01*
X006724Y015035D01*
X006842Y014917D01*
X006996Y014853D01*
X007164Y014853D01*
X007318Y014917D01*
X007436Y015035D01*
X007500Y015190D01*
X007479Y015140D02*
X007661Y015140D01*
X007750Y014981D02*
X007382Y014981D01*
X007500Y015457D02*
X007640Y015457D01*
X007640Y015615D02*
X007500Y015615D01*
X007500Y015774D02*
X007640Y015774D01*
X007663Y015932D02*
X007477Y015932D01*
X007376Y016091D02*
X007755Y016091D01*
X006784Y016091D02*
X006376Y016091D01*
X006318Y016149D02*
X006164Y016213D01*
X005996Y016213D01*
X005842Y016149D01*
X005724Y016031D01*
X005660Y015877D01*
X005660Y015190D01*
X005724Y015035D01*
X005842Y014917D01*
X005996Y014853D01*
X006164Y014853D01*
X006318Y014917D01*
X006436Y015035D01*
X006500Y015190D01*
X006500Y015877D01*
X006436Y016031D01*
X006318Y016149D01*
X006477Y015932D02*
X006683Y015932D01*
X006660Y015774D02*
X006500Y015774D01*
X006500Y015615D02*
X006660Y015615D01*
X006660Y015457D02*
X006500Y015457D01*
X006500Y015298D02*
X006660Y015298D01*
X006681Y015140D02*
X006479Y015140D01*
X006382Y014981D02*
X006778Y014981D01*
X005778Y014981D02*
X005382Y014981D01*
X005479Y015140D02*
X005681Y015140D01*
X005660Y015298D02*
X005500Y015298D01*
X005500Y015457D02*
X005660Y015457D01*
X005660Y015615D02*
X005500Y015615D01*
X005500Y015774D02*
X005660Y015774D01*
X005683Y015932D02*
X005477Y015932D01*
X005376Y016091D02*
X005784Y016091D01*
X005320Y016249D02*
X012742Y016249D01*
X012640Y016408D02*
X005320Y016408D01*
X005320Y016566D02*
X012640Y016566D01*
X012649Y016725D02*
X005320Y016725D01*
X005320Y016883D02*
X012808Y016883D01*
X013080Y016883D02*
X013080Y016883D01*
X013080Y017033D02*
X013080Y018533D01*
X013080Y018093D01*
X013080Y018533D01*
X013080Y018533D01*
X012640Y018533D01*
X012640Y018351D01*
X012898Y018093D01*
X013080Y018093D01*
X013262Y018093D01*
X013520Y018351D01*
X013520Y018533D01*
X013080Y018533D01*
X013080Y018533D01*
X013080Y018533D01*
X012640Y018533D01*
X012640Y018716D01*
X012898Y018973D01*
X013080Y018973D01*
X013080Y018533D01*
X013520Y018533D01*
X013520Y018716D01*
X013262Y018973D01*
X013080Y018973D01*
X013080Y018533D01*
X013080Y018533D01*
X013080Y018468D02*
X013080Y018468D01*
X013080Y018310D02*
X013080Y018310D01*
X013080Y018151D02*
X013080Y018151D01*
X013320Y018151D02*
X013676Y018151D01*
X013660Y018310D02*
X013479Y018310D01*
X013520Y018468D02*
X013660Y018468D01*
X013660Y018627D02*
X013520Y018627D01*
X013450Y018785D02*
X013660Y018785D01*
X013688Y018944D02*
X013292Y018944D01*
X013080Y018944D02*
X013080Y018944D01*
X013080Y018785D02*
X013080Y018785D01*
X013080Y018627D02*
X013080Y018627D01*
X012868Y018944D02*
X012472Y018944D01*
X012500Y018785D02*
X012710Y018785D01*
X012640Y018627D02*
X012500Y018627D01*
X012500Y018468D02*
X012640Y018468D01*
X012681Y018310D02*
X012500Y018310D01*
X012484Y018151D02*
X012840Y018151D01*
X012393Y017993D02*
X013767Y017993D01*
X014393Y017993D02*
X014767Y017993D01*
X014724Y018035D02*
X014842Y017917D01*
X014996Y017853D01*
X015164Y017853D01*
X015318Y017917D01*
X015436Y018035D01*
X015500Y018190D01*
X015500Y018877D01*
X015436Y019031D01*
X015318Y019149D01*
X015164Y019213D01*
X014996Y019213D01*
X014842Y019149D01*
X014724Y019031D01*
X014660Y018877D01*
X014660Y018190D01*
X014724Y018035D01*
X014676Y018151D02*
X014484Y018151D01*
X014500Y018310D02*
X014660Y018310D01*
X014660Y018468D02*
X014500Y018468D01*
X014500Y018627D02*
X014660Y018627D01*
X014660Y018785D02*
X014500Y018785D01*
X014472Y018944D02*
X014688Y018944D01*
X014795Y019102D02*
X014365Y019102D01*
X014320Y019261D02*
X020840Y019261D01*
X020795Y019102D02*
X020365Y019102D01*
X020318Y019149D02*
X020164Y019213D01*
X019996Y019213D01*
X019842Y019149D01*
X019724Y019031D01*
X019660Y018877D01*
X019660Y018190D01*
X019724Y018035D01*
X019842Y017917D01*
X019996Y017853D01*
X020164Y017853D01*
X020318Y017917D01*
X020436Y018035D01*
X020500Y018190D01*
X020500Y018877D01*
X020436Y019031D01*
X020318Y019149D01*
X020472Y018944D02*
X020688Y018944D01*
X020660Y018785D02*
X020500Y018785D01*
X020500Y018627D02*
X020660Y018627D01*
X020660Y018468D02*
X020500Y018468D01*
X020500Y018310D02*
X020660Y018310D01*
X020676Y018151D02*
X020484Y018151D01*
X020393Y017993D02*
X020767Y017993D01*
X021080Y018533D02*
X021080Y019533D01*
X022080Y019533D01*
X023080Y019533D01*
X023080Y018533D01*
X022795Y019102D02*
X021365Y019102D01*
X021320Y019261D02*
X021759Y019261D01*
X021080Y019533D02*
X014080Y019533D01*
X013080Y019533D01*
X012080Y019533D01*
X012080Y018533D01*
X011660Y018468D02*
X011500Y018468D01*
X011500Y018310D02*
X011660Y018310D01*
X011676Y018151D02*
X011484Y018151D01*
X011500Y018190D02*
X011500Y018877D01*
X011436Y019031D01*
X011318Y019149D01*
X011164Y019213D01*
X010996Y019213D01*
X010842Y019149D01*
X010724Y019031D01*
X010660Y018877D01*
X010660Y018190D01*
X010724Y018035D01*
X010842Y017917D01*
X010996Y017853D01*
X011164Y017853D01*
X011318Y017917D01*
X011436Y018035D01*
X011500Y018190D01*
X011393Y017993D02*
X011767Y017993D01*
X010767Y017993D02*
X010393Y017993D01*
X010436Y018035D02*
X010500Y018190D01*
X010500Y018877D01*
X010436Y019031D01*
X010318Y019149D01*
X010164Y019213D01*
X009996Y019213D01*
X009842Y019149D01*
X009724Y019031D01*
X009660Y018877D01*
X009660Y018190D01*
X009724Y018035D01*
X009842Y017917D01*
X009996Y017853D01*
X010164Y017853D01*
X010318Y017917D01*
X010436Y018035D01*
X010484Y018151D02*
X010676Y018151D01*
X010660Y018310D02*
X010500Y018310D01*
X010500Y018468D02*
X010660Y018468D01*
X010660Y018627D02*
X010500Y018627D01*
X010500Y018785D02*
X010660Y018785D01*
X010688Y018944D02*
X010472Y018944D01*
X010365Y019102D02*
X010795Y019102D01*
X011365Y019102D02*
X011795Y019102D01*
X011840Y019261D02*
X005320Y019261D01*
X005365Y019102D02*
X005795Y019102D01*
X005688Y018944D02*
X005472Y018944D01*
X005500Y018785D02*
X005660Y018785D01*
X005660Y018627D02*
X005500Y018627D01*
X005500Y018468D02*
X005660Y018468D01*
X005660Y018310D02*
X005500Y018310D01*
X005484Y018151D02*
X005676Y018151D01*
X005767Y017993D02*
X005393Y017993D01*
X005320Y017834D02*
X008039Y017834D01*
X008080Y017834D02*
X008080Y017834D01*
X008121Y017834D02*
X009039Y017834D01*
X009080Y017834D02*
X009080Y017834D01*
X009121Y017834D02*
X017039Y017834D01*
X017045Y017833D02*
X017080Y017833D01*
X017115Y017833D01*
X017183Y017844D01*
X017249Y017866D01*
X017311Y017897D01*
X017367Y017938D01*
X017416Y017987D01*
X017456Y018043D01*
X017488Y018104D01*
X017509Y018170D01*
X017520Y018239D01*
X017520Y018533D01*
X017080Y018533D01*
X017080Y017833D01*
X017080Y018533D01*
X017080Y018533D01*
X017080Y018533D01*
X016640Y018533D01*
X016640Y018239D01*
X016651Y018170D01*
X016672Y018104D01*
X016704Y018043D01*
X016744Y017987D01*
X016793Y017938D01*
X016849Y017897D01*
X016911Y017866D01*
X016977Y017844D01*
X017045Y017833D01*
X017080Y017834D02*
X017080Y017834D01*
X017121Y017834D02*
X018039Y017834D01*
X018045Y017833D02*
X018080Y017833D01*
X018115Y017833D01*
X018183Y017844D01*
X018249Y017866D01*
X018311Y017897D01*
X018367Y017938D01*
X018416Y017987D01*
X018456Y018043D01*
X018488Y018104D01*
X018509Y018170D01*
X018520Y018239D01*
X018520Y018533D01*
X018080Y018533D01*
X018080Y017833D01*
X018080Y018533D01*
X018080Y018533D01*
X018080Y018533D01*
X017640Y018533D01*
X017640Y018239D01*
X017651Y018170D01*
X017672Y018104D01*
X017704Y018043D01*
X017744Y017987D01*
X017793Y017938D01*
X017849Y017897D01*
X017911Y017866D01*
X017977Y017844D01*
X018045Y017833D01*
X018080Y017834D02*
X018080Y017834D01*
X018121Y017834D02*
X026039Y017834D01*
X026045Y017833D02*
X026080Y017833D01*
X026115Y017833D01*
X026183Y017844D01*
X026249Y017866D01*
X026311Y017897D01*
X026367Y017938D01*
X026416Y017987D01*
X026456Y018043D01*
X026488Y018104D01*
X026509Y018170D01*
X026520Y018239D01*
X026520Y018533D01*
X026080Y018533D01*
X026080Y017833D01*
X026080Y018533D01*
X026080Y018533D01*
X026080Y018533D01*
X025640Y018533D01*
X025640Y018239D01*
X025651Y018170D01*
X025672Y018104D01*
X025704Y018043D01*
X025744Y017987D01*
X025793Y017938D01*
X025849Y017897D01*
X025911Y017866D01*
X025977Y017844D01*
X026045Y017833D01*
X026080Y017834D02*
X026080Y017834D01*
X026121Y017834D02*
X027039Y017834D01*
X027045Y017833D02*
X027080Y017833D01*
X027115Y017833D01*
X027183Y017844D01*
X027249Y017866D01*
X027311Y017897D01*
X027367Y017938D01*
X027416Y017987D01*
X027456Y018043D01*
X027488Y018104D01*
X027509Y018170D01*
X027520Y018239D01*
X027520Y018533D01*
X027080Y018533D01*
X027080Y017833D01*
X027080Y018533D01*
X027080Y018533D01*
X027080Y018533D01*
X026640Y018533D01*
X026640Y018239D01*
X026651Y018170D01*
X026672Y018104D01*
X026704Y018043D01*
X026744Y017987D01*
X026793Y017938D01*
X026849Y017897D01*
X026911Y017866D01*
X026977Y017844D01*
X027045Y017833D01*
X027080Y017834D02*
X027080Y017834D01*
X027121Y017834D02*
X035039Y017834D01*
X034740Y017993D02*
X034393Y017993D01*
X034436Y018035D02*
X034500Y018190D01*
X034500Y018877D01*
X034436Y019031D01*
X034318Y019149D01*
X034164Y019213D01*
X033996Y019213D01*
X033842Y019149D01*
X033724Y019031D01*
X033660Y018877D01*
X033660Y018190D01*
X033724Y018035D01*
X033842Y017917D01*
X033996Y017853D01*
X034164Y017853D01*
X034318Y017917D01*
X034436Y018035D01*
X034484Y018151D02*
X034657Y018151D01*
X034640Y018310D02*
X034500Y018310D01*
X034500Y018468D02*
X034640Y018468D01*
X034640Y018627D02*
X034500Y018627D01*
X034500Y018785D02*
X034640Y018785D01*
X034666Y018944D02*
X034472Y018944D01*
X034365Y019102D02*
X034767Y019102D01*
X035080Y019102D02*
X035080Y019102D01*
X035080Y018944D02*
X035080Y018944D01*
X035080Y018785D02*
X035080Y018785D01*
X035080Y018627D02*
X035080Y018627D01*
X035520Y018627D02*
X035640Y018627D01*
X035640Y018533D02*
X035640Y018828D01*
X035651Y018896D01*
X035672Y018962D01*
X035704Y019024D01*
X035744Y019080D01*
X035793Y019129D01*
X035849Y019170D01*
X035911Y019201D01*
X035977Y019222D01*
X036045Y019233D01*
X036080Y019233D01*
X036080Y018533D01*
X036080Y018533D01*
X036080Y017033D01*
X035080Y017033D01*
X031080Y017033D01*
X027080Y017033D01*
X027080Y015533D01*
X027080Y014833D01*
X027115Y014833D01*
X027183Y014844D01*
X027249Y014866D01*
X027311Y014897D01*
X027367Y014938D01*
X027416Y014987D01*
X027456Y015043D01*
X027488Y015104D01*
X027509Y015170D01*
X027520Y015239D01*
X027520Y015533D01*
X027080Y015533D01*
X027080Y015533D01*
X027080Y014833D01*
X027045Y014833D01*
X026977Y014844D01*
X026911Y014866D01*
X026849Y014897D01*
X026793Y014938D01*
X026744Y014987D01*
X026704Y015043D01*
X026672Y015104D01*
X026651Y015170D01*
X026640Y015239D01*
X026640Y015533D01*
X027080Y015533D01*
X027080Y015533D01*
X027080Y015533D01*
X027520Y015533D01*
X027520Y015828D01*
X027509Y015896D01*
X027488Y015962D01*
X027456Y016024D01*
X027416Y016080D01*
X027367Y016129D01*
X027311Y016170D01*
X027249Y016201D01*
X027183Y016222D01*
X027115Y016233D01*
X027080Y016233D01*
X027045Y016233D01*
X026977Y016222D01*
X026911Y016201D01*
X026849Y016170D01*
X026793Y016129D01*
X026744Y016080D01*
X026704Y016024D01*
X026672Y015962D01*
X026651Y015896D01*
X026640Y015828D01*
X026640Y015533D01*
X027080Y015533D01*
X027080Y016233D01*
X027080Y015533D01*
X027080Y015533D01*
X027080Y015457D02*
X027080Y015457D01*
X027080Y015615D02*
X027080Y015615D01*
X027080Y015774D02*
X027080Y015774D01*
X027080Y015932D02*
X027080Y015932D01*
X027080Y016091D02*
X027080Y016091D01*
X027405Y016091D02*
X027784Y016091D01*
X027842Y016149D02*
X027724Y016031D01*
X027660Y015877D01*
X027660Y015190D01*
X027724Y015035D01*
X027842Y014917D01*
X027996Y014853D01*
X028164Y014853D01*
X028318Y014917D01*
X028436Y015035D01*
X028500Y015190D01*
X028500Y015877D01*
X028436Y016031D01*
X028318Y016149D01*
X028164Y016213D01*
X027996Y016213D01*
X027842Y016149D01*
X027683Y015932D02*
X027497Y015932D01*
X027520Y015774D02*
X027660Y015774D01*
X027660Y015615D02*
X027520Y015615D01*
X027520Y015457D02*
X027660Y015457D01*
X027660Y015298D02*
X027520Y015298D01*
X027499Y015140D02*
X027681Y015140D01*
X027778Y014981D02*
X027410Y014981D01*
X027080Y014981D02*
X027080Y014981D01*
X027080Y015140D02*
X027080Y015140D01*
X027080Y015298D02*
X027080Y015298D01*
X026640Y015298D02*
X026520Y015298D01*
X026520Y015239D02*
X026520Y015533D01*
X026080Y015533D01*
X026080Y014833D01*
X026115Y014833D01*
X026183Y014844D01*
X026249Y014866D01*
X026311Y014897D01*
X026367Y014938D01*
X026416Y014987D01*
X026456Y015043D01*
X026488Y015104D01*
X026509Y015170D01*
X026520Y015239D01*
X026499Y015140D02*
X026661Y015140D01*
X026750Y014981D02*
X026410Y014981D01*
X026080Y014981D02*
X026080Y014981D01*
X026080Y014833D02*
X026080Y015533D01*
X026080Y015533D01*
X026080Y015533D01*
X025640Y015533D01*
X025640Y015239D01*
X025651Y015170D01*
X025672Y015104D01*
X025704Y015043D01*
X025744Y014987D01*
X025793Y014938D01*
X025849Y014897D01*
X025911Y014866D01*
X025977Y014844D01*
X026045Y014833D01*
X026080Y014833D01*
X026080Y015140D02*
X026080Y015140D01*
X026080Y015298D02*
X026080Y015298D01*
X026080Y015457D02*
X026080Y015457D01*
X026080Y015533D02*
X026080Y015533D01*
X026080Y017033D01*
X026080Y018533D01*
X026080Y018533D01*
X026520Y018533D01*
X026520Y018828D01*
X026509Y018896D01*
X026488Y018962D01*
X026456Y019024D01*
X026416Y019080D01*
X026367Y019129D01*
X026311Y019170D01*
X026249Y019201D01*
X026183Y019222D01*
X026115Y019233D01*
X026080Y019233D01*
X026045Y019233D01*
X025977Y019222D01*
X025911Y019201D01*
X025849Y019170D01*
X025793Y019129D01*
X025744Y019080D01*
X025704Y019024D01*
X025672Y018962D01*
X025651Y018896D01*
X025640Y018828D01*
X025640Y018533D01*
X026080Y018533D01*
X026080Y019233D01*
X026080Y018533D01*
X026080Y018533D01*
X026080Y018468D02*
X026080Y018468D01*
X026080Y018310D02*
X026080Y018310D01*
X026080Y018151D02*
X026080Y018151D01*
X026080Y017993D02*
X026080Y017993D01*
X026420Y017993D02*
X026740Y017993D01*
X026657Y018151D02*
X026503Y018151D01*
X026520Y018310D02*
X026640Y018310D01*
X026640Y018468D02*
X026520Y018468D01*
X026640Y018533D02*
X027080Y018533D01*
X027080Y018533D01*
X027080Y017033D01*
X026080Y017033D01*
X022080Y017033D01*
X018080Y017033D01*
X018080Y018533D01*
X018080Y018533D01*
X018520Y018533D01*
X018520Y018828D01*
X018509Y018896D01*
X018488Y018962D01*
X018456Y019024D01*
X018416Y019080D01*
X018367Y019129D01*
X018311Y019170D01*
X018249Y019201D01*
X018183Y019222D01*
X018115Y019233D01*
X018080Y019233D01*
X018045Y019233D01*
X017977Y019222D01*
X017911Y019201D01*
X017849Y019170D01*
X017793Y019129D01*
X017744Y019080D01*
X017704Y019024D01*
X017672Y018962D01*
X017651Y018896D01*
X017640Y018828D01*
X017640Y018533D01*
X018080Y018533D01*
X018080Y019233D01*
X018080Y018533D01*
X018080Y018533D01*
X018080Y018468D02*
X018080Y018468D01*
X018080Y018310D02*
X018080Y018310D01*
X018080Y018151D02*
X018080Y018151D01*
X018080Y017993D02*
X018080Y017993D01*
X018420Y017993D02*
X018767Y017993D01*
X018724Y018035D02*
X018842Y017917D01*
X018996Y017853D01*
X019164Y017853D01*
X019318Y017917D01*
X019436Y018035D01*
X019500Y018190D01*
X019500Y018877D01*
X019436Y019031D01*
X019318Y019149D01*
X019164Y019213D01*
X018996Y019213D01*
X018842Y019149D01*
X018724Y019031D01*
X018660Y018877D01*
X018660Y018190D01*
X018724Y018035D01*
X018676Y018151D02*
X018503Y018151D01*
X018520Y018310D02*
X018660Y018310D01*
X018660Y018468D02*
X018520Y018468D01*
X018520Y018627D02*
X018660Y018627D01*
X018660Y018785D02*
X018520Y018785D01*
X018494Y018944D02*
X018688Y018944D01*
X018795Y019102D02*
X018393Y019102D01*
X018080Y019102D02*
X018080Y019102D01*
X018080Y018944D02*
X018080Y018944D01*
X018080Y018785D02*
X018080Y018785D01*
X018080Y018627D02*
X018080Y018627D01*
X017640Y018627D02*
X017520Y018627D01*
X017520Y018533D02*
X017520Y018828D01*
X017509Y018896D01*
X017488Y018962D01*
X017456Y019024D01*
X017416Y019080D01*
X017367Y019129D01*
X017311Y019170D01*
X017249Y019201D01*
X017183Y019222D01*
X017115Y019233D01*
X017080Y019233D01*
X017045Y019233D01*
X016977Y019222D01*
X016911Y019201D01*
X016849Y019170D01*
X016793Y019129D01*
X016744Y019080D01*
X016704Y019024D01*
X016672Y018962D01*
X016651Y018896D01*
X016640Y018828D01*
X016640Y018533D01*
X017080Y018533D01*
X017080Y018533D01*
X017080Y017033D01*
X017080Y015533D01*
X017080Y014833D01*
X017115Y014833D01*
X017183Y014844D01*
X017249Y014866D01*
X017311Y014897D01*
X017367Y014938D01*
X017416Y014987D01*
X017456Y015043D01*
X017488Y015104D01*
X017509Y015170D01*
X017520Y015239D01*
X017520Y015533D01*
X017080Y015533D01*
X017080Y015533D01*
X017080Y014833D01*
X017045Y014833D01*
X016977Y014844D01*
X016911Y014866D01*
X016849Y014897D01*
X016793Y014938D01*
X016744Y014987D01*
X016704Y015043D01*
X016672Y015104D01*
X016651Y015170D01*
X016640Y015239D01*
X016640Y015533D01*
X017080Y015533D01*
X017080Y015533D01*
X017080Y015533D01*
X017520Y015533D01*
X017520Y015828D01*
X017509Y015896D01*
X017488Y015962D01*
X017456Y016024D01*
X017416Y016080D01*
X017367Y016129D01*
X017311Y016170D01*
X017249Y016201D01*
X017183Y016222D01*
X017115Y016233D01*
X017080Y016233D01*
X017045Y016233D01*
X016977Y016222D01*
X016911Y016201D01*
X016849Y016170D01*
X016793Y016129D01*
X016744Y016080D01*
X016704Y016024D01*
X016672Y015962D01*
X016651Y015896D01*
X016640Y015828D01*
X016640Y015533D01*
X017080Y015533D01*
X017080Y016233D01*
X017080Y015533D01*
X017080Y015533D01*
X017080Y015457D02*
X017080Y015457D01*
X017080Y015615D02*
X017080Y015615D01*
X017080Y015774D02*
X017080Y015774D01*
X017080Y015932D02*
X017080Y015932D01*
X017080Y016091D02*
X017080Y016091D01*
X017405Y016091D02*
X017755Y016091D01*
X017744Y016080D02*
X017704Y016024D01*
X017672Y015962D01*
X017651Y015896D01*
X017640Y015828D01*
X017640Y015533D01*
X017640Y015239D01*
X017651Y015170D01*
X017672Y015104D01*
X017704Y015043D01*
X017744Y014987D01*
X017793Y014938D01*
X017849Y014897D01*
X017911Y014866D01*
X017977Y014844D01*
X018045Y014833D01*
X018080Y014833D01*
X018115Y014833D01*
X018183Y014844D01*
X018249Y014866D01*
X018311Y014897D01*
X018367Y014938D01*
X018416Y014987D01*
X018456Y015043D01*
X018488Y015104D01*
X018509Y015170D01*
X018520Y015239D01*
X018520Y015533D01*
X018080Y015533D01*
X018080Y014833D01*
X018080Y015533D01*
X018080Y015533D01*
X018080Y015533D01*
X017640Y015533D01*
X018080Y015533D01*
X018080Y015533D01*
X018080Y017033D01*
X017080Y017033D01*
X013080Y017033D01*
X013080Y016725D02*
X013080Y016725D01*
X013352Y016883D02*
X021808Y016883D01*
X021898Y016973D02*
X021640Y016716D01*
X021640Y016533D01*
X021649Y016725D02*
X013511Y016725D01*
X013842Y016149D02*
X013724Y016031D01*
X013660Y015877D01*
X013660Y015190D01*
X013724Y015035D01*
X013842Y014917D01*
X013996Y014853D01*
X014164Y014853D01*
X014318Y014917D01*
X014436Y015035D01*
X014500Y015190D01*
X014500Y015877D01*
X014436Y016031D01*
X014318Y016149D01*
X014164Y016213D01*
X013996Y016213D01*
X013842Y016149D01*
X013784Y016091D02*
X012376Y016091D01*
X012477Y015932D02*
X012885Y015932D01*
X013275Y015932D02*
X013683Y015932D01*
X013660Y015774D02*
X013433Y015774D01*
X013500Y015615D02*
X013660Y015615D01*
X013660Y015457D02*
X013500Y015457D01*
X013439Y015298D02*
X013660Y015298D01*
X013681Y015140D02*
X013280Y015140D01*
X012880Y015140D02*
X012490Y015140D01*
X012490Y014981D02*
X013778Y014981D01*
X014382Y014981D02*
X014778Y014981D01*
X014724Y015035D02*
X014842Y014917D01*
X014996Y014853D01*
X015164Y014853D01*
X015318Y014917D01*
X015436Y015035D01*
X015500Y015190D01*
X015500Y015877D01*
X015436Y016031D01*
X015318Y016149D01*
X015164Y016213D01*
X014996Y016213D01*
X014842Y016149D01*
X014724Y016031D01*
X014660Y015877D01*
X014660Y015190D01*
X014724Y015035D01*
X014681Y015140D02*
X014479Y015140D01*
X014500Y015298D02*
X014660Y015298D01*
X014660Y015457D02*
X014500Y015457D01*
X014500Y015615D02*
X014660Y015615D01*
X014660Y015774D02*
X014500Y015774D01*
X014477Y015932D02*
X014683Y015932D01*
X014784Y016091D02*
X014376Y016091D01*
X015376Y016091D02*
X015784Y016091D01*
X015842Y016149D02*
X015724Y016031D01*
X015660Y015877D01*
X015660Y015190D01*
X015724Y015035D01*
X015842Y014917D01*
X015996Y014853D01*
X016164Y014853D01*
X016318Y014917D01*
X016436Y015035D01*
X016500Y015190D01*
X016500Y015877D01*
X016436Y016031D01*
X016318Y016149D01*
X016164Y016213D01*
X015996Y016213D01*
X015842Y016149D01*
X015683Y015932D02*
X015477Y015932D01*
X015500Y015774D02*
X015660Y015774D01*
X015660Y015615D02*
X015500Y015615D01*
X015500Y015457D02*
X015660Y015457D01*
X015660Y015298D02*
X015500Y015298D01*
X015479Y015140D02*
X015681Y015140D01*
X015778Y014981D02*
X015382Y014981D01*
X016382Y014981D02*
X016750Y014981D01*
X016661Y015140D02*
X016479Y015140D01*
X016500Y015298D02*
X016640Y015298D01*
X016640Y015457D02*
X016500Y015457D01*
X016500Y015615D02*
X016640Y015615D01*
X016640Y015774D02*
X016500Y015774D01*
X016477Y015932D02*
X016663Y015932D01*
X016755Y016091D02*
X016376Y016091D01*
X017497Y015932D02*
X017663Y015932D01*
X017640Y015774D02*
X017520Y015774D01*
X017520Y015615D02*
X017640Y015615D01*
X017640Y015457D02*
X017520Y015457D01*
X017520Y015298D02*
X017640Y015298D01*
X017661Y015140D02*
X017499Y015140D01*
X017410Y014981D02*
X017750Y014981D01*
X018080Y014981D02*
X018080Y014981D01*
X018080Y015140D02*
X018080Y015140D01*
X018080Y015298D02*
X018080Y015298D01*
X018080Y015457D02*
X018080Y015457D01*
X018080Y015533D02*
X018520Y015533D01*
X018520Y015828D01*
X018509Y015896D01*
X018488Y015962D01*
X018456Y016024D01*
X018416Y016080D01*
X018367Y016129D01*
X018311Y016170D01*
X018249Y016201D01*
X018183Y016222D01*
X018115Y016233D01*
X018080Y016233D01*
X018045Y016233D01*
X017977Y016222D01*
X017911Y016201D01*
X017849Y016170D01*
X017793Y016129D01*
X017744Y016080D01*
X018080Y016091D02*
X018080Y016091D01*
X018080Y016233D02*
X018080Y015533D01*
X018080Y015533D01*
X018080Y016233D01*
X018080Y015932D02*
X018080Y015932D01*
X018080Y015774D02*
X018080Y015774D01*
X018080Y015615D02*
X018080Y015615D01*
X018520Y015615D02*
X018660Y015615D01*
X018660Y015457D02*
X018520Y015457D01*
X018520Y015298D02*
X018660Y015298D01*
X018660Y015190D02*
X018724Y015035D01*
X018842Y014917D01*
X018996Y014853D01*
X019164Y014853D01*
X019318Y014917D01*
X019436Y015035D01*
X019500Y015190D01*
X019500Y015877D01*
X019436Y016031D01*
X019318Y016149D01*
X019164Y016213D01*
X018996Y016213D01*
X018842Y016149D01*
X018724Y016031D01*
X018660Y015877D01*
X018660Y015190D01*
X018681Y015140D02*
X018499Y015140D01*
X018410Y014981D02*
X018778Y014981D01*
X019382Y014981D02*
X019778Y014981D01*
X019724Y015035D02*
X019842Y014917D01*
X019996Y014853D01*
X020164Y014853D01*
X020318Y014917D01*
X020436Y015035D01*
X020500Y015190D01*
X020500Y015877D01*
X020436Y016031D01*
X020318Y016149D01*
X020164Y016213D01*
X019996Y016213D01*
X019842Y016149D01*
X019724Y016031D01*
X019660Y015877D01*
X019660Y015190D01*
X019724Y015035D01*
X019681Y015140D02*
X019479Y015140D01*
X019500Y015298D02*
X019660Y015298D01*
X019660Y015457D02*
X019500Y015457D01*
X019500Y015615D02*
X019660Y015615D01*
X019660Y015774D02*
X019500Y015774D01*
X019477Y015932D02*
X019683Y015932D01*
X019784Y016091D02*
X019376Y016091D01*
X018784Y016091D02*
X018405Y016091D01*
X018497Y015932D02*
X018683Y015932D01*
X018660Y015774D02*
X018520Y015774D01*
X017080Y015298D02*
X017080Y015298D01*
X017080Y015140D02*
X017080Y015140D01*
X017080Y014981D02*
X017080Y014981D01*
X020382Y014981D02*
X020670Y014981D01*
X020670Y014823D02*
X012490Y014823D01*
X012490Y014664D02*
X020670Y014664D01*
X020670Y014506D02*
X012490Y014506D01*
X011670Y014981D02*
X011382Y014981D01*
X011436Y015035D02*
X011500Y015190D01*
X011500Y015877D01*
X011436Y016031D01*
X011318Y016149D01*
X011164Y016213D01*
X010996Y016213D01*
X010842Y016149D01*
X010724Y016031D01*
X010660Y015877D01*
X010660Y015190D01*
X010724Y015035D01*
X010842Y014917D01*
X010996Y014853D01*
X011164Y014853D01*
X011318Y014917D01*
X011436Y015035D01*
X011479Y015140D02*
X011670Y015140D01*
X011660Y015298D02*
X011500Y015298D01*
X011500Y015457D02*
X011660Y015457D01*
X011660Y015615D02*
X011500Y015615D01*
X011500Y015774D02*
X011660Y015774D01*
X011683Y015932D02*
X011477Y015932D01*
X011376Y016091D02*
X011784Y016091D01*
X010784Y016091D02*
X010376Y016091D01*
X010318Y016149D02*
X010164Y016213D01*
X009996Y016213D01*
X009842Y016149D01*
X009724Y016031D01*
X009660Y015877D01*
X009660Y015190D01*
X009724Y015035D01*
X009842Y014917D01*
X009996Y014853D01*
X010164Y014853D01*
X010318Y014917D01*
X010436Y015035D01*
X010500Y015190D01*
X010500Y015877D01*
X010436Y016031D01*
X010318Y016149D01*
X010477Y015932D02*
X010683Y015932D01*
X010660Y015774D02*
X010500Y015774D01*
X010500Y015615D02*
X010660Y015615D01*
X010660Y015457D02*
X010500Y015457D01*
X010500Y015298D02*
X010660Y015298D01*
X010681Y015140D02*
X010479Y015140D01*
X010382Y014981D02*
X010778Y014981D01*
X009778Y014981D02*
X009410Y014981D01*
X009499Y015140D02*
X009681Y015140D01*
X009660Y015298D02*
X009520Y015298D01*
X009520Y015457D02*
X009660Y015457D01*
X009660Y015615D02*
X009520Y015615D01*
X009520Y015533D02*
X009080Y015533D01*
X009080Y016233D01*
X009080Y015533D01*
X009080Y015533D01*
X009080Y015457D02*
X009080Y015457D01*
X009080Y015615D02*
X009080Y015615D01*
X009080Y015774D02*
X009080Y015774D01*
X009080Y015932D02*
X009080Y015932D01*
X009080Y016091D02*
X009080Y016091D01*
X009080Y016233D02*
X009115Y016233D01*
X009183Y016222D01*
X009249Y016201D01*
X009311Y016170D01*
X009367Y016129D01*
X009416Y016080D01*
X009456Y016024D01*
X009488Y015962D01*
X009509Y015896D01*
X009520Y015828D01*
X009520Y015533D01*
X009520Y015774D02*
X009660Y015774D01*
X009683Y015932D02*
X009497Y015932D01*
X009405Y016091D02*
X009784Y016091D01*
X009080Y015298D02*
X009080Y015298D01*
X009080Y015140D02*
X009080Y015140D01*
X009080Y014981D02*
X009080Y014981D01*
X005320Y017042D02*
X041470Y017042D01*
X041470Y017200D02*
X005320Y017200D01*
X005320Y017359D02*
X041470Y017359D01*
X041470Y017517D02*
X005320Y017517D01*
X005320Y017676D02*
X039815Y017676D01*
X040080Y017676D02*
X040080Y017676D01*
X040080Y017834D02*
X040080Y017834D01*
X040080Y017993D02*
X040080Y017993D01*
X040080Y018033D02*
X040520Y018033D01*
X040520Y018216D01*
X040262Y018473D01*
X040267Y018468D02*
X041470Y018468D01*
X041470Y018310D02*
X040426Y018310D01*
X040520Y018151D02*
X041470Y018151D01*
X041470Y017993D02*
X040520Y017993D01*
X040503Y017834D02*
X041470Y017834D01*
X041470Y017676D02*
X040345Y017676D01*
X040080Y018033D02*
X040080Y018033D01*
X040080Y018473D01*
X040080Y018033D01*
X040080Y018151D02*
X040080Y018151D01*
X040080Y018310D02*
X040080Y018310D01*
X040080Y018468D02*
X040080Y018468D01*
X040500Y018944D02*
X041470Y018944D01*
X041470Y019102D02*
X040500Y019102D01*
X040446Y019261D02*
X041470Y019261D01*
X041470Y019419D02*
X040974Y019419D01*
X041194Y019469D02*
X041194Y019469D01*
X041382Y019578D02*
X041470Y019578D01*
X040706Y019358D02*
X040706Y019358D01*
X039129Y020212D02*
X037981Y020212D01*
X038096Y020370D02*
X039046Y020370D01*
X039066Y020304D02*
X039066Y020304D01*
X038997Y020529D02*
X038152Y020529D01*
X038152Y020687D02*
X038948Y020687D01*
X038919Y020846D02*
X038152Y020846D01*
X038152Y021004D02*
X038919Y021004D01*
X038919Y021163D02*
X038152Y021163D01*
X038152Y021321D02*
X038930Y021321D01*
X038979Y021480D02*
X038152Y021480D01*
X038120Y021638D02*
X039028Y021638D01*
X039066Y021762D02*
X039066Y021762D01*
X039090Y021797D02*
X038039Y021797D01*
X037846Y021955D02*
X039198Y021955D01*
X037314Y021955D02*
X035846Y021955D01*
X036039Y021797D02*
X037121Y021797D01*
X037040Y021638D02*
X036120Y021638D01*
X036152Y021480D02*
X037008Y021480D01*
X037008Y021321D02*
X036152Y021321D01*
X036152Y021163D02*
X037008Y021163D01*
X037008Y021004D02*
X036152Y021004D01*
X036152Y020846D02*
X037008Y020846D01*
X037008Y020687D02*
X036152Y020687D01*
X036152Y020529D02*
X037008Y020529D01*
X037064Y020370D02*
X036096Y020370D01*
X035981Y020212D02*
X037179Y020212D01*
X036795Y019102D02*
X036393Y019102D01*
X036416Y019080D02*
X036367Y019129D01*
X036311Y019170D01*
X036249Y019201D01*
X036183Y019222D01*
X036115Y019233D01*
X036080Y019233D01*
X036080Y018533D01*
X036520Y018533D01*
X036520Y018828D01*
X036509Y018896D01*
X036488Y018962D01*
X036456Y019024D01*
X036416Y019080D01*
X036494Y018944D02*
X036688Y018944D01*
X036660Y018785D02*
X036520Y018785D01*
X036520Y018627D02*
X036660Y018627D01*
X036660Y018468D02*
X036520Y018468D01*
X036520Y018310D02*
X036660Y018310D01*
X036676Y018151D02*
X036503Y018151D01*
X036420Y017993D02*
X036767Y017993D01*
X036080Y017993D02*
X036080Y017993D01*
X036080Y018151D02*
X036080Y018151D01*
X036080Y018310D02*
X036080Y018310D01*
X036080Y018468D02*
X036080Y018468D01*
X036080Y018533D02*
X035640Y018533D01*
X035640Y018468D02*
X035520Y018468D01*
X035520Y018310D02*
X035640Y018310D01*
X035657Y018151D02*
X035503Y018151D01*
X035420Y017993D02*
X035740Y017993D01*
X036080Y018533D02*
X036080Y018533D01*
X036080Y018627D02*
X036080Y018627D01*
X036080Y018785D02*
X036080Y018785D01*
X036080Y018944D02*
X036080Y018944D01*
X036080Y019102D02*
X036080Y019102D01*
X035767Y019102D02*
X035393Y019102D01*
X035494Y018944D02*
X035666Y018944D01*
X035640Y018785D02*
X035520Y018785D01*
X033795Y019102D02*
X033365Y019102D01*
X033472Y018944D02*
X033688Y018944D01*
X033660Y018785D02*
X033500Y018785D01*
X033500Y018627D02*
X033660Y018627D01*
X033660Y018468D02*
X033500Y018468D01*
X033500Y018310D02*
X033660Y018310D01*
X033676Y018151D02*
X033484Y018151D01*
X033393Y017993D02*
X033767Y017993D01*
X032080Y018533D02*
X032080Y019533D01*
X031840Y019261D02*
X031401Y019261D01*
X031262Y018973D02*
X031080Y018973D01*
X030898Y018973D01*
X030640Y018716D01*
X030640Y018533D01*
X031080Y018533D01*
X031520Y018533D01*
X031520Y018716D01*
X031262Y018973D01*
X031292Y018944D02*
X031688Y018944D01*
X031660Y018785D02*
X031450Y018785D01*
X031520Y018627D02*
X031660Y018627D01*
X031660Y018468D02*
X031520Y018468D01*
X031479Y018310D02*
X031660Y018310D01*
X031676Y018151D02*
X031320Y018151D01*
X031080Y018533D02*
X031080Y018533D01*
X031080Y018973D01*
X031080Y018533D01*
X031080Y018627D02*
X031080Y018627D01*
X031080Y018785D02*
X031080Y018785D01*
X031080Y018944D02*
X031080Y018944D01*
X030868Y018944D02*
X030472Y018944D01*
X030500Y018785D02*
X030710Y018785D01*
X030640Y018627D02*
X030500Y018627D01*
X030500Y018468D02*
X030640Y018468D01*
X030681Y018310D02*
X030500Y018310D01*
X030365Y019102D02*
X031795Y019102D01*
X030759Y019261D02*
X030320Y019261D01*
X030080Y019533D02*
X023080Y019533D01*
X022840Y019261D02*
X022401Y019261D01*
X023179Y020212D02*
X020981Y020212D01*
X021096Y020370D02*
X023064Y020370D01*
X023008Y020529D02*
X021152Y020529D01*
X021152Y020687D02*
X023008Y020687D01*
X023008Y020846D02*
X021152Y020846D01*
X021152Y021004D02*
X023008Y021004D01*
X023008Y021163D02*
X021152Y021163D01*
X021152Y021321D02*
X023008Y021321D01*
X023008Y021480D02*
X021152Y021480D01*
X021120Y021638D02*
X023040Y021638D01*
X023121Y021797D02*
X021039Y021797D01*
X020846Y021955D02*
X023314Y021955D01*
X023846Y021955D02*
X025314Y021955D01*
X025121Y021797D02*
X024039Y021797D01*
X024120Y021638D02*
X025040Y021638D01*
X025008Y021480D02*
X024152Y021480D01*
X024152Y021321D02*
X025008Y021321D01*
X025008Y021163D02*
X024152Y021163D01*
X024152Y021004D02*
X025008Y021004D01*
X025008Y020846D02*
X024152Y020846D01*
X024152Y020687D02*
X025008Y020687D01*
X025008Y020529D02*
X024152Y020529D01*
X024096Y020370D02*
X025064Y020370D01*
X025179Y020212D02*
X023981Y020212D01*
X024365Y019102D02*
X024795Y019102D01*
X024842Y019149D02*
X024724Y019031D01*
X024660Y018877D01*
X024660Y018190D01*
X024724Y018035D01*
X024842Y017917D01*
X024996Y017853D01*
X025164Y017853D01*
X025318Y017917D01*
X025436Y018035D01*
X025500Y018190D01*
X025500Y018877D01*
X025436Y019031D01*
X025318Y019149D01*
X025164Y019213D01*
X024996Y019213D01*
X024842Y019149D01*
X024688Y018944D02*
X024472Y018944D01*
X024500Y018785D02*
X024660Y018785D01*
X024660Y018627D02*
X024500Y018627D01*
X024500Y018468D02*
X024660Y018468D01*
X024660Y018310D02*
X024500Y018310D01*
X024484Y018151D02*
X024676Y018151D01*
X024767Y017993D02*
X024393Y017993D01*
X025393Y017993D02*
X025740Y017993D01*
X025657Y018151D02*
X025484Y018151D01*
X025500Y018310D02*
X025640Y018310D01*
X025640Y018468D02*
X025500Y018468D01*
X025500Y018627D02*
X025640Y018627D01*
X025640Y018785D02*
X025500Y018785D01*
X025472Y018944D02*
X025666Y018944D01*
X025767Y019102D02*
X025365Y019102D01*
X026080Y019102D02*
X026080Y019102D01*
X026080Y018944D02*
X026080Y018944D01*
X026080Y018785D02*
X026080Y018785D01*
X026080Y018627D02*
X026080Y018627D01*
X026494Y018944D02*
X026666Y018944D01*
X026672Y018962D02*
X026651Y018896D01*
X026640Y018828D01*
X026640Y018533D01*
X026640Y018627D02*
X026520Y018627D01*
X026520Y018785D02*
X026640Y018785D01*
X026672Y018962D02*
X026704Y019024D01*
X026744Y019080D01*
X026793Y019129D01*
X026849Y019170D01*
X026911Y019201D01*
X026977Y019222D01*
X027045Y019233D01*
X027080Y019233D01*
X027080Y018533D01*
X027520Y018533D01*
X027520Y018828D01*
X027509Y018896D01*
X027488Y018962D01*
X027456Y019024D01*
X027416Y019080D01*
X027367Y019129D01*
X027311Y019170D01*
X027249Y019201D01*
X027183Y019222D01*
X027115Y019233D01*
X027080Y019233D01*
X027080Y018533D01*
X027080Y018533D01*
X027080Y018468D02*
X027080Y018468D01*
X027080Y018310D02*
X027080Y018310D01*
X027080Y018151D02*
X027080Y018151D01*
X027080Y017993D02*
X027080Y017993D01*
X027420Y017993D02*
X027767Y017993D01*
X027724Y018035D02*
X027842Y017917D01*
X027996Y017853D01*
X028164Y017853D01*
X028318Y017917D01*
X028436Y018035D01*
X028500Y018190D01*
X028500Y018877D01*
X028436Y019031D01*
X028318Y019149D01*
X028164Y019213D01*
X027996Y019213D01*
X027842Y019149D01*
X027724Y019031D01*
X027660Y018877D01*
X027660Y018190D01*
X027724Y018035D01*
X027676Y018151D02*
X027503Y018151D01*
X027520Y018310D02*
X027660Y018310D01*
X027660Y018468D02*
X027520Y018468D01*
X027520Y018627D02*
X027660Y018627D01*
X027660Y018785D02*
X027520Y018785D01*
X027494Y018944D02*
X027688Y018944D01*
X027795Y019102D02*
X027393Y019102D01*
X027080Y019102D02*
X027080Y019102D01*
X027080Y018944D02*
X027080Y018944D01*
X027080Y018785D02*
X027080Y018785D01*
X027080Y018627D02*
X027080Y018627D01*
X026767Y019102D02*
X026393Y019102D01*
X025981Y020212D02*
X027179Y020212D01*
X027064Y020370D02*
X026096Y020370D01*
X026152Y020529D02*
X027008Y020529D01*
X027008Y020687D02*
X026152Y020687D01*
X026152Y020846D02*
X027008Y020846D01*
X027008Y021004D02*
X026152Y021004D01*
X026152Y021163D02*
X027008Y021163D01*
X027008Y021321D02*
X026152Y021321D01*
X026152Y021480D02*
X027008Y021480D01*
X027040Y021638D02*
X026120Y021638D01*
X026039Y021797D02*
X027121Y021797D01*
X027314Y021955D02*
X025846Y021955D01*
X027846Y021955D02*
X029314Y021955D01*
X029121Y021797D02*
X028039Y021797D01*
X028120Y021638D02*
X029040Y021638D01*
X029008Y021480D02*
X028152Y021480D01*
X028152Y021321D02*
X029008Y021321D01*
X029008Y021163D02*
X028152Y021163D01*
X028152Y021004D02*
X029008Y021004D01*
X029008Y020846D02*
X028152Y020846D01*
X028152Y020687D02*
X029008Y020687D01*
X029008Y020529D02*
X028152Y020529D01*
X028096Y020370D02*
X029064Y020370D01*
X029179Y020212D02*
X027981Y020212D01*
X028365Y019102D02*
X028795Y019102D01*
X028688Y018944D02*
X028472Y018944D01*
X028500Y018785D02*
X028660Y018785D01*
X028660Y018627D02*
X028500Y018627D01*
X028500Y018468D02*
X028660Y018468D01*
X028660Y018310D02*
X028500Y018310D01*
X028484Y018151D02*
X028676Y018151D01*
X028767Y017993D02*
X028393Y017993D01*
X030649Y016725D02*
X022511Y016725D01*
X022520Y016716D02*
X022262Y016973D01*
X022080Y016973D01*
X021898Y016973D01*
X022080Y016973D02*
X022080Y016533D01*
X022520Y016533D01*
X022520Y016716D01*
X022520Y016566D02*
X030640Y016566D01*
X030640Y016408D02*
X022520Y016408D01*
X022418Y016249D02*
X030742Y016249D01*
X030376Y016091D02*
X031784Y016091D01*
X031842Y016149D02*
X031724Y016031D01*
X031660Y015877D01*
X031660Y015190D01*
X031724Y015035D01*
X031842Y014917D01*
X031996Y014853D01*
X032164Y014853D01*
X032318Y014917D01*
X032436Y015035D01*
X032500Y015190D01*
X032500Y015877D01*
X032436Y016031D01*
X032318Y016149D01*
X032164Y016213D01*
X031996Y016213D01*
X031842Y016149D01*
X031683Y015932D02*
X031275Y015932D01*
X031433Y015774D02*
X031660Y015774D01*
X031660Y015615D02*
X031500Y015615D01*
X031500Y015457D02*
X031660Y015457D01*
X031660Y015298D02*
X031439Y015298D01*
X031280Y015140D02*
X031681Y015140D01*
X031778Y014981D02*
X030490Y014981D01*
X030490Y014823D02*
X038670Y014823D01*
X038670Y014981D02*
X038382Y014981D01*
X038436Y015035D02*
X038500Y015190D01*
X038500Y015877D01*
X038436Y016031D01*
X038318Y016149D01*
X038164Y016213D01*
X037996Y016213D01*
X037842Y016149D01*
X037724Y016031D01*
X037660Y015877D01*
X037660Y015190D01*
X037724Y015035D01*
X037842Y014917D01*
X037996Y014853D01*
X038164Y014853D01*
X038318Y014917D01*
X038436Y015035D01*
X038479Y015140D02*
X038670Y015140D01*
X038660Y015298D02*
X038500Y015298D01*
X038500Y015457D02*
X038660Y015457D01*
X038660Y015615D02*
X038500Y015615D01*
X038500Y015774D02*
X038660Y015774D01*
X038683Y015932D02*
X038477Y015932D01*
X038376Y016091D02*
X038784Y016091D01*
X037784Y016091D02*
X037376Y016091D01*
X037477Y015932D02*
X037683Y015932D01*
X037660Y015774D02*
X037500Y015774D01*
X037500Y015615D02*
X037660Y015615D01*
X037660Y015457D02*
X037500Y015457D01*
X037500Y015298D02*
X037660Y015298D01*
X037681Y015140D02*
X037479Y015140D01*
X037382Y014981D02*
X037778Y014981D01*
X038670Y014664D02*
X030490Y014664D01*
X030490Y014506D02*
X038670Y014506D01*
X040080Y013033D02*
X036080Y013033D01*
X036080Y008533D01*
X036070Y008483D02*
X036090Y008483D01*
X036090Y008324D02*
X036070Y008324D01*
X036070Y008166D02*
X036090Y008166D01*
X036637Y008166D02*
X041470Y008166D01*
X041470Y008324D02*
X036770Y008324D01*
X036818Y008483D02*
X041470Y008483D01*
X041470Y008641D02*
X036809Y008641D01*
X036735Y008800D02*
X041470Y008800D01*
X041470Y008958D02*
X036539Y008958D01*
X036090Y008958D02*
X036070Y008958D01*
X036070Y008800D02*
X036090Y008800D01*
X040080Y013033D02*
X040080Y017033D01*
X041470Y016883D02*
X031352Y016883D01*
X031511Y016725D02*
X041470Y016725D01*
X041470Y016566D02*
X031520Y016566D01*
X031520Y016408D02*
X041470Y016408D01*
X038660Y018627D02*
X038500Y018627D01*
X038500Y018785D02*
X038660Y018785D01*
X038688Y018944D02*
X038472Y018944D01*
X035179Y020212D02*
X033981Y020212D01*
X034096Y020370D02*
X035064Y020370D01*
X035008Y020529D02*
X034152Y020529D01*
X034152Y020687D02*
X035008Y020687D01*
X035008Y020846D02*
X034152Y020846D01*
X034152Y021004D02*
X035008Y021004D01*
X035008Y021163D02*
X034152Y021163D01*
X034152Y021321D02*
X035008Y021321D01*
X035008Y021480D02*
X034152Y021480D01*
X034120Y021638D02*
X035040Y021638D01*
X035121Y021797D02*
X034039Y021797D01*
X033846Y021955D02*
X035314Y021955D01*
X031080Y016883D02*
X031080Y016883D01*
X031080Y016725D02*
X031080Y016725D01*
X030808Y016883D02*
X022352Y016883D01*
X022080Y016883D02*
X022080Y016883D01*
X022080Y016973D02*
X022080Y016533D01*
X022080Y016533D01*
X022080Y016566D02*
X022080Y016566D01*
X022080Y016408D02*
X022080Y016408D01*
X022080Y016249D02*
X022080Y016249D01*
X022275Y015932D02*
X022683Y015932D01*
X022660Y015877D02*
X022724Y016031D01*
X022842Y016149D01*
X022996Y016213D01*
X023164Y016213D01*
X023318Y016149D01*
X023436Y016031D01*
X023500Y015877D01*
X023500Y015190D01*
X023436Y015035D01*
X023318Y014917D01*
X023164Y014853D01*
X022996Y014853D01*
X022842Y014917D01*
X022724Y015035D01*
X022660Y015190D01*
X022660Y015877D01*
X022660Y015774D02*
X022433Y015774D01*
X022500Y015615D02*
X022660Y015615D01*
X022660Y015457D02*
X022500Y015457D01*
X022439Y015298D02*
X022660Y015298D01*
X022681Y015140D02*
X022280Y015140D01*
X022778Y014981D02*
X021490Y014981D01*
X021490Y014823D02*
X029670Y014823D01*
X029670Y014981D02*
X029382Y014981D01*
X029436Y015035D02*
X029500Y015190D01*
X029500Y015877D01*
X029436Y016031D01*
X029318Y016149D01*
X029164Y016213D01*
X028996Y016213D01*
X028842Y016149D01*
X028724Y016031D01*
X028660Y015877D01*
X028660Y015190D01*
X028724Y015035D01*
X028842Y014917D01*
X028996Y014853D01*
X029164Y014853D01*
X029318Y014917D01*
X029436Y015035D01*
X029479Y015140D02*
X029670Y015140D01*
X029660Y015298D02*
X029500Y015298D01*
X029500Y015457D02*
X029660Y015457D01*
X029660Y015615D02*
X029500Y015615D01*
X029500Y015774D02*
X029660Y015774D01*
X029683Y015932D02*
X029477Y015932D01*
X029376Y016091D02*
X029784Y016091D01*
X028784Y016091D02*
X028376Y016091D01*
X028477Y015932D02*
X028683Y015932D01*
X028660Y015774D02*
X028500Y015774D01*
X028500Y015615D02*
X028660Y015615D01*
X028660Y015457D02*
X028500Y015457D01*
X028500Y015298D02*
X028660Y015298D01*
X028681Y015140D02*
X028479Y015140D01*
X028382Y014981D02*
X028778Y014981D01*
X029670Y014664D02*
X021490Y014664D01*
X021490Y014506D02*
X029670Y014506D01*
X032382Y014981D02*
X032778Y014981D01*
X032724Y015035D02*
X032842Y014917D01*
X032996Y014853D01*
X033164Y014853D01*
X033318Y014917D01*
X033436Y015035D01*
X033500Y015190D01*
X033500Y015877D01*
X033436Y016031D01*
X033318Y016149D01*
X033164Y016213D01*
X032996Y016213D01*
X032842Y016149D01*
X032724Y016031D01*
X032660Y015877D01*
X032660Y015190D01*
X032724Y015035D01*
X032681Y015140D02*
X032479Y015140D01*
X032500Y015298D02*
X032660Y015298D01*
X032660Y015457D02*
X032500Y015457D01*
X032500Y015615D02*
X032660Y015615D01*
X032660Y015774D02*
X032500Y015774D01*
X032477Y015932D02*
X032683Y015932D01*
X032784Y016091D02*
X032376Y016091D01*
X033376Y016091D02*
X033784Y016091D01*
X033842Y016149D02*
X033724Y016031D01*
X033660Y015877D01*
X033660Y015190D01*
X033724Y015035D01*
X033842Y014917D01*
X033996Y014853D01*
X034164Y014853D01*
X034318Y014917D01*
X034436Y015035D01*
X034500Y015190D01*
X034500Y015877D01*
X034436Y016031D01*
X034318Y016149D01*
X034164Y016213D01*
X033996Y016213D01*
X033842Y016149D01*
X033683Y015932D02*
X033477Y015932D01*
X033500Y015774D02*
X033660Y015774D01*
X033660Y015615D02*
X033500Y015615D01*
X033500Y015457D02*
X033660Y015457D01*
X033660Y015298D02*
X033500Y015298D01*
X033479Y015140D02*
X033681Y015140D01*
X033778Y014981D02*
X033382Y014981D01*
X034382Y014981D02*
X034750Y014981D01*
X034661Y015140D02*
X034479Y015140D01*
X034500Y015298D02*
X034640Y015298D01*
X034640Y015457D02*
X034500Y015457D01*
X034500Y015615D02*
X034640Y015615D01*
X034640Y015533D02*
X035080Y015533D01*
X035520Y015533D01*
X035520Y015828D01*
X035509Y015896D01*
X035488Y015962D01*
X035456Y016024D01*
X035416Y016080D01*
X035367Y016129D01*
X035311Y016170D01*
X035249Y016201D01*
X035183Y016222D01*
X035115Y016233D01*
X035080Y016233D01*
X035045Y016233D01*
X034977Y016222D01*
X034911Y016201D01*
X034849Y016170D01*
X034793Y016129D01*
X034744Y016080D01*
X034704Y016024D01*
X034672Y015962D01*
X034651Y015896D01*
X034640Y015828D01*
X034640Y015533D01*
X034640Y015774D02*
X034500Y015774D01*
X034477Y015932D02*
X034663Y015932D01*
X034755Y016091D02*
X034376Y016091D01*
X035080Y016091D02*
X035080Y016091D01*
X035080Y016233D02*
X035080Y015533D01*
X035080Y015533D01*
X035080Y016233D01*
X035080Y015932D02*
X035080Y015932D01*
X035080Y015774D02*
X035080Y015774D01*
X035080Y015615D02*
X035080Y015615D01*
X035520Y015615D02*
X035640Y015615D01*
X035640Y015457D02*
X035520Y015457D01*
X035520Y015774D02*
X035640Y015774D01*
X035663Y015932D02*
X035497Y015932D01*
X035405Y016091D02*
X035755Y016091D01*
X026755Y016091D02*
X026405Y016091D01*
X026416Y016080D02*
X026367Y016129D01*
X026311Y016170D01*
X026249Y016201D01*
X026183Y016222D01*
X026115Y016233D01*
X026080Y016233D01*
X026045Y016233D01*
X025977Y016222D01*
X025911Y016201D01*
X025849Y016170D01*
X025793Y016129D01*
X025744Y016080D01*
X025704Y016024D01*
X025672Y015962D01*
X025651Y015896D01*
X025640Y015828D01*
X025640Y015533D01*
X026080Y015533D01*
X026520Y015533D01*
X026520Y015828D01*
X026509Y015896D01*
X026488Y015962D01*
X026456Y016024D01*
X026416Y016080D01*
X026497Y015932D02*
X026663Y015932D01*
X026640Y015774D02*
X026520Y015774D01*
X026520Y015615D02*
X026640Y015615D01*
X026640Y015457D02*
X026520Y015457D01*
X026080Y015533D02*
X026080Y015533D01*
X026080Y016233D01*
X026080Y015533D01*
X026080Y015615D02*
X026080Y015615D01*
X026080Y015774D02*
X026080Y015774D01*
X026080Y015932D02*
X026080Y015932D01*
X026080Y016091D02*
X026080Y016091D01*
X025755Y016091D02*
X025376Y016091D01*
X025318Y016149D02*
X025164Y016213D01*
X024996Y016213D01*
X024842Y016149D01*
X024724Y016031D01*
X024660Y015877D01*
X024660Y015190D01*
X024724Y015035D01*
X024842Y014917D01*
X024996Y014853D01*
X025164Y014853D01*
X025318Y014917D01*
X025436Y015035D01*
X025500Y015190D01*
X025500Y015877D01*
X025436Y016031D01*
X025318Y016149D01*
X025477Y015932D02*
X025663Y015932D01*
X025640Y015774D02*
X025500Y015774D01*
X025500Y015615D02*
X025640Y015615D01*
X025640Y015457D02*
X025500Y015457D01*
X025500Y015298D02*
X025640Y015298D01*
X025661Y015140D02*
X025479Y015140D01*
X025382Y014981D02*
X025750Y014981D01*
X024778Y014981D02*
X024382Y014981D01*
X024436Y015035D02*
X024500Y015190D01*
X024500Y015877D01*
X024436Y016031D01*
X024318Y016149D01*
X024164Y016213D01*
X023996Y016213D01*
X023842Y016149D01*
X023724Y016031D01*
X023660Y015877D01*
X023660Y015190D01*
X023724Y015035D01*
X023842Y014917D01*
X023996Y014853D01*
X024164Y014853D01*
X024318Y014917D01*
X024436Y015035D01*
X024479Y015140D02*
X024681Y015140D01*
X024660Y015298D02*
X024500Y015298D01*
X024500Y015457D02*
X024660Y015457D01*
X024660Y015615D02*
X024500Y015615D01*
X024500Y015774D02*
X024660Y015774D01*
X024683Y015932D02*
X024477Y015932D01*
X024376Y016091D02*
X024784Y016091D01*
X023784Y016091D02*
X023376Y016091D01*
X023477Y015932D02*
X023683Y015932D01*
X023660Y015774D02*
X023500Y015774D01*
X023500Y015615D02*
X023660Y015615D01*
X023660Y015457D02*
X023500Y015457D01*
X023500Y015298D02*
X023660Y015298D01*
X023681Y015140D02*
X023479Y015140D01*
X023382Y014981D02*
X023778Y014981D01*
X022784Y016091D02*
X021376Y016091D01*
X020784Y016091D02*
X020376Y016091D01*
X020477Y015932D02*
X020683Y015932D01*
X020660Y015774D02*
X020500Y015774D01*
X020500Y015615D02*
X020660Y015615D01*
X020660Y015457D02*
X020500Y015457D01*
X020500Y015298D02*
X020660Y015298D01*
X020670Y015140D02*
X020479Y015140D01*
X022080Y016725D02*
X022080Y016725D01*
X019767Y017993D02*
X019393Y017993D01*
X019484Y018151D02*
X019676Y018151D01*
X019660Y018310D02*
X019500Y018310D01*
X019500Y018468D02*
X019660Y018468D01*
X019660Y018627D02*
X019500Y018627D01*
X019500Y018785D02*
X019660Y018785D01*
X019688Y018944D02*
X019472Y018944D01*
X019365Y019102D02*
X019795Y019102D01*
X020179Y020212D02*
X018981Y020212D01*
X019096Y020370D02*
X020064Y020370D01*
X020008Y020529D02*
X019152Y020529D01*
X019152Y020687D02*
X020008Y020687D01*
X020008Y020846D02*
X019152Y020846D01*
X019152Y021004D02*
X020008Y021004D01*
X020008Y021163D02*
X019152Y021163D01*
X019152Y021321D02*
X020008Y021321D01*
X020008Y021480D02*
X019152Y021480D01*
X019120Y021638D02*
X020040Y021638D01*
X020121Y021797D02*
X019039Y021797D01*
X018846Y021955D02*
X020314Y021955D01*
X018314Y021955D02*
X016846Y021955D01*
X017039Y021797D02*
X018121Y021797D01*
X018040Y021638D02*
X017120Y021638D01*
X017152Y021480D02*
X018008Y021480D01*
X018008Y021321D02*
X017152Y021321D01*
X017152Y021163D02*
X018008Y021163D01*
X018008Y021004D02*
X017152Y021004D01*
X017152Y020846D02*
X018008Y020846D01*
X018008Y020687D02*
X017152Y020687D01*
X017152Y020529D02*
X018008Y020529D01*
X018064Y020370D02*
X017096Y020370D01*
X016981Y020212D02*
X018179Y020212D01*
X017767Y019102D02*
X017393Y019102D01*
X017494Y018944D02*
X017666Y018944D01*
X017640Y018785D02*
X017520Y018785D01*
X017520Y018533D02*
X017080Y018533D01*
X017080Y019233D01*
X017080Y018533D01*
X017080Y018533D01*
X017080Y018468D02*
X017080Y018468D01*
X017080Y018310D02*
X017080Y018310D01*
X017080Y018151D02*
X017080Y018151D01*
X017080Y017993D02*
X017080Y017993D01*
X017420Y017993D02*
X017740Y017993D01*
X017657Y018151D02*
X017503Y018151D01*
X017520Y018310D02*
X017640Y018310D01*
X017640Y018468D02*
X017520Y018468D01*
X017080Y018627D02*
X017080Y018627D01*
X017080Y018785D02*
X017080Y018785D01*
X017080Y018944D02*
X017080Y018944D01*
X017080Y019102D02*
X017080Y019102D01*
X016767Y019102D02*
X016365Y019102D01*
X016318Y019149D02*
X016164Y019213D01*
X015996Y019213D01*
X015842Y019149D01*
X015724Y019031D01*
X015660Y018877D01*
X015660Y018190D01*
X015724Y018035D01*
X015842Y017917D01*
X015996Y017853D01*
X016164Y017853D01*
X016318Y017917D01*
X016436Y018035D01*
X016500Y018190D01*
X016500Y018877D01*
X016436Y019031D01*
X016318Y019149D01*
X016472Y018944D02*
X016666Y018944D01*
X016640Y018785D02*
X016500Y018785D01*
X016500Y018627D02*
X016640Y018627D01*
X016640Y018468D02*
X016500Y018468D01*
X016500Y018310D02*
X016640Y018310D01*
X016657Y018151D02*
X016484Y018151D01*
X016393Y017993D02*
X016740Y017993D01*
X015767Y017993D02*
X015393Y017993D01*
X015484Y018151D02*
X015676Y018151D01*
X015660Y018310D02*
X015500Y018310D01*
X015500Y018468D02*
X015660Y018468D01*
X015660Y018627D02*
X015500Y018627D01*
X015500Y018785D02*
X015660Y018785D01*
X015688Y018944D02*
X015472Y018944D01*
X015365Y019102D02*
X015795Y019102D01*
X016179Y020212D02*
X014981Y020212D01*
X015096Y020370D02*
X016064Y020370D01*
X016008Y020529D02*
X015152Y020529D01*
X015152Y020687D02*
X016008Y020687D01*
X016008Y020846D02*
X015152Y020846D01*
X015152Y021004D02*
X016008Y021004D01*
X016008Y021163D02*
X015152Y021163D01*
X015152Y021321D02*
X016008Y021321D01*
X016008Y021480D02*
X015152Y021480D01*
X015120Y021638D02*
X016040Y021638D01*
X016121Y021797D02*
X015039Y021797D01*
X014846Y021955D02*
X016314Y021955D01*
X014080Y019533D02*
X014080Y018533D01*
X013795Y019102D02*
X012365Y019102D01*
X012320Y019261D02*
X012759Y019261D01*
X012080Y019533D02*
X005080Y019533D01*
X005080Y018533D01*
X005080Y015533D01*
X004138Y013079D02*
X004022Y013079D01*
X004022Y013126D02*
X003621Y013126D01*
X003529Y013111D01*
X003440Y013082D01*
X003357Y013040D01*
X003282Y012985D01*
X003216Y012919D01*
X003161Y012844D01*
X003118Y012761D01*
X003090Y012672D01*
X003077Y012591D01*
X004022Y012591D01*
X004022Y013126D01*
X004022Y012921D02*
X004138Y012921D01*
X004138Y012762D02*
X004022Y012762D01*
X004022Y012604D02*
X004138Y012604D01*
X004138Y012445D02*
X004022Y012445D01*
X004022Y012287D02*
X004138Y012287D01*
X004138Y012128D02*
X004022Y012128D01*
X004022Y011970D02*
X004138Y011970D01*
X003484Y011970D02*
X002560Y011970D01*
X002560Y012128D02*
X003235Y012128D01*
X003128Y012287D02*
X002560Y012287D01*
X002560Y012445D02*
X003082Y012445D01*
X003079Y012604D02*
X002560Y012604D01*
X002560Y012762D02*
X003119Y012762D01*
X003217Y012921D02*
X002560Y012921D01*
X002560Y013079D02*
X003434Y013079D01*
X002560Y011494D02*
X011670Y011494D01*
X011670Y011336D02*
X002560Y011336D01*
X004022Y011019D02*
X004138Y011019D01*
X004138Y010860D02*
X004022Y010860D01*
X004022Y010702D02*
X004138Y010702D01*
X004138Y010543D02*
X011010Y010543D01*
X010852Y010385D02*
X008851Y010385D01*
X009009Y010226D02*
X010693Y010226D01*
X010535Y010068D02*
X009020Y010068D01*
X009020Y010033D02*
X008580Y010033D01*
X008580Y010473D01*
X008580Y010033D01*
X008580Y010033D01*
X008580Y010068D02*
X008580Y010068D01*
X008580Y010226D02*
X008580Y010226D01*
X008580Y010385D02*
X008580Y010385D01*
X008309Y010385D02*
X005067Y010385D01*
X005070Y010395D02*
X005042Y010306D01*
X004999Y010223D01*
X004944Y010147D01*
X004878Y010081D01*
X004803Y010027D01*
X004720Y009984D01*
X004631Y009955D01*
X004539Y009941D01*
X004138Y009941D01*
X004138Y010476D01*
X005083Y010476D01*
X005070Y010395D01*
X005001Y010226D02*
X008151Y010226D01*
X008140Y010068D02*
X004860Y010068D01*
X005061Y010702D02*
X011169Y010702D01*
X011327Y010860D02*
X004987Y010860D01*
X004832Y011019D02*
X011486Y011019D01*
X010059Y009592D02*
X002560Y009592D01*
X002560Y009434D02*
X008387Y009434D01*
X008228Y009275D02*
X002560Y009275D01*
X002560Y009751D02*
X008240Y009751D01*
X008140Y009909D02*
X002560Y009909D01*
X002560Y010068D02*
X003300Y010068D01*
X003159Y010226D02*
X002560Y010226D01*
X004022Y010226D02*
X004138Y010226D01*
X004138Y010068D02*
X004022Y010068D01*
X004022Y010385D02*
X004138Y010385D01*
X008580Y009909D02*
X008580Y009909D01*
X008580Y009751D02*
X008580Y009751D01*
X016580Y001984D02*
X039011Y001984D01*
X039060Y001826D02*
X016580Y001826D01*
X016580Y001667D02*
X039160Y001667D01*
X039066Y001804D02*
X039066Y001804D01*
X039740Y003988D02*
X039740Y003988D01*
X013840Y019261D02*
X013401Y019261D01*
X011688Y018944D02*
X011472Y018944D01*
X011500Y018785D02*
X011660Y018785D01*
X011660Y018627D02*
X011500Y018627D01*
X009795Y019102D02*
X009393Y019102D01*
X009416Y019080D02*
X009367Y019129D01*
X009311Y019170D01*
X009249Y019201D01*
X009183Y019222D01*
X009115Y019233D01*
X009080Y019233D01*
X009045Y019233D01*
X008977Y019222D01*
X008911Y019201D01*
X008849Y019170D01*
X008793Y019129D01*
X008744Y019080D01*
X008704Y019024D01*
X008672Y018962D01*
X008651Y018896D01*
X008640Y018828D01*
X008640Y018533D01*
X009080Y018533D01*
X009520Y018533D01*
X009520Y018828D01*
X009509Y018896D01*
X009488Y018962D01*
X009456Y019024D01*
X009416Y019080D01*
X009494Y018944D02*
X009688Y018944D01*
X009660Y018785D02*
X009520Y018785D01*
X009520Y018627D02*
X009660Y018627D01*
X009660Y018468D02*
X009520Y018468D01*
X009520Y018310D02*
X009660Y018310D01*
X009676Y018151D02*
X009503Y018151D01*
X009420Y017993D02*
X009767Y017993D01*
X009080Y017993D02*
X009080Y017993D01*
X009080Y018151D02*
X009080Y018151D01*
X009080Y018310D02*
X009080Y018310D01*
X009080Y018468D02*
X009080Y018468D01*
X009080Y018533D02*
X009080Y019233D01*
X009080Y018533D01*
X009080Y018533D01*
X009080Y018627D02*
X009080Y018627D01*
X009080Y018785D02*
X009080Y018785D01*
X009080Y018944D02*
X009080Y018944D01*
X009080Y019102D02*
X009080Y019102D01*
X008767Y019102D02*
X008393Y019102D01*
X008416Y019080D02*
X008367Y019129D01*
X008311Y019170D01*
X008249Y019201D01*
X008183Y019222D01*
X008115Y019233D01*
X008080Y019233D01*
X008045Y019233D01*
X007977Y019222D01*
X007911Y019201D01*
X007849Y019170D01*
X007793Y019129D01*
X007744Y019080D01*
X007704Y019024D01*
X007672Y018962D01*
X007651Y018896D01*
X007640Y018828D01*
X007640Y018533D01*
X007640Y018627D02*
X007500Y018627D01*
X007500Y018785D02*
X007640Y018785D01*
X007666Y018944D02*
X007472Y018944D01*
X007365Y019102D02*
X007767Y019102D01*
X008080Y019102D02*
X008080Y019102D01*
X008080Y019233D02*
X008080Y018533D01*
X008520Y018533D01*
X008520Y018828D01*
X008509Y018896D01*
X008488Y018962D01*
X008456Y019024D01*
X008416Y019080D01*
X008494Y018944D02*
X008666Y018944D01*
X008640Y018785D02*
X008520Y018785D01*
X008520Y018627D02*
X008640Y018627D01*
X008640Y018468D02*
X008520Y018468D01*
X008520Y018310D02*
X008640Y018310D01*
X008657Y018151D02*
X008503Y018151D01*
X008420Y017993D02*
X008740Y017993D01*
X008080Y017993D02*
X008080Y017993D01*
X008080Y018151D02*
X008080Y018151D01*
X008080Y018310D02*
X008080Y018310D01*
X008080Y018468D02*
X008080Y018468D01*
X008080Y018533D02*
X008080Y018533D01*
X008080Y019233D01*
X008080Y018944D02*
X008080Y018944D01*
X008080Y018785D02*
X008080Y018785D01*
X008080Y018627D02*
X008080Y018627D01*
X008981Y020212D02*
X010179Y020212D01*
X010064Y020370D02*
X009096Y020370D01*
X009152Y020529D02*
X010008Y020529D01*
X010008Y020687D02*
X009152Y020687D01*
X009152Y020846D02*
X010008Y020846D01*
X010008Y021004D02*
X009152Y021004D01*
X009152Y021163D02*
X010008Y021163D01*
X010008Y021321D02*
X009152Y021321D01*
X009152Y021480D02*
X010008Y021480D01*
X010040Y021638D02*
X009120Y021638D01*
X009039Y021797D02*
X010121Y021797D01*
X010314Y021955D02*
X008846Y021955D01*
D17*
X006830Y003783D02*
X006580Y003783D01*
X006536Y003785D01*
X006493Y003791D01*
X006451Y003800D01*
X006409Y003813D01*
X006369Y003830D01*
X006330Y003850D01*
X006293Y003873D01*
X006259Y003900D01*
X006226Y003929D01*
X006197Y003962D01*
X006170Y003996D01*
X006147Y004033D01*
X006127Y004072D01*
X006110Y004112D01*
X006097Y004154D01*
X006088Y004196D01*
X006082Y004239D01*
X006080Y004283D01*
X006080Y005783D01*
X007330Y005783D02*
X007330Y004283D01*
X007328Y004239D01*
X007322Y004196D01*
X007313Y004154D01*
X007300Y004112D01*
X007283Y004072D01*
X007263Y004033D01*
X007240Y003996D01*
X007213Y003962D01*
X007184Y003929D01*
X007151Y003900D01*
X007117Y003873D01*
X007080Y003850D01*
X007041Y003830D01*
X007001Y003813D01*
X006959Y003800D01*
X006917Y003791D01*
X006874Y003785D01*
X006830Y003783D01*
X008080Y003783D02*
X009330Y003783D01*
X009330Y004533D01*
X008830Y005033D01*
X008080Y005033D01*
X008080Y005783D01*
X008580Y006283D01*
X009330Y006283D01*
X010080Y005533D02*
X010080Y004783D01*
X010830Y004783D01*
X010080Y004783D02*
X010080Y003783D01*
X011580Y003783D01*
X013080Y003783D02*
X013080Y005783D01*
X013830Y005783D02*
X014580Y005783D01*
X014580Y003783D01*
X012330Y004783D02*
X011830Y004783D01*
X010580Y006033D02*
X010536Y006031D01*
X010493Y006025D01*
X010451Y006016D01*
X010409Y006003D01*
X010369Y005986D01*
X010330Y005966D01*
X010293Y005943D01*
X010259Y005916D01*
X010226Y005887D01*
X010197Y005854D01*
X010170Y005820D01*
X010147Y005783D01*
X010127Y005744D01*
X010110Y005704D01*
X010097Y005662D01*
X010088Y005620D01*
X010082Y005577D01*
X010080Y005533D01*
X010580Y006033D02*
X011580Y006033D01*
X014580Y005783D02*
X015330Y005783D01*
X013080Y015533D02*
X012080Y015533D01*
D18*
X009330Y006283D03*
X007330Y005783D03*
X011830Y004783D03*
X012330Y004783D03*
X011580Y003783D03*
X014580Y003783D03*
X013080Y005783D03*
X032080Y013033D03*
M02*
