G75*
G70*
%OFA0B0*%
%FSLAX24Y24*%
%IPPOS*%
%LPD*%
%AMOC8*
5,1,8,0,0,1.08239X$1,22.5*
%
%ADD10C,0.0520*%
%ADD11C,0.0825*%
%ADD12C,0.0560*%
%ADD13OC8,0.0560*%
%ADD14OC8,0.0520*%
%ADD15C,0.0160*%
%ADD16OC8,0.0436*%
%ADD17C,0.0320*%
D10*
X017580Y005773D02*
X017580Y006293D01*
X018580Y006293D02*
X018580Y005773D01*
X019580Y005773D02*
X019580Y006293D01*
X020580Y006293D02*
X020580Y005773D01*
X021580Y005773D02*
X021580Y006293D01*
X022580Y006293D02*
X022580Y005773D01*
X023580Y005773D02*
X023580Y006293D01*
X024580Y006293D02*
X024580Y005773D01*
X025580Y005773D02*
X025580Y006293D01*
X026580Y006293D02*
X026580Y005773D01*
X027580Y005773D02*
X027580Y006293D01*
X028580Y006293D02*
X028580Y005773D01*
X029580Y005773D02*
X029580Y006293D01*
X030580Y006293D02*
X030580Y005773D01*
X030580Y008773D02*
X030580Y009293D01*
X029580Y009293D02*
X029580Y008773D01*
X028580Y008773D02*
X028580Y009293D01*
X027580Y009293D02*
X027580Y008773D01*
X026580Y008773D02*
X026580Y009293D01*
X025580Y009293D02*
X025580Y008773D01*
X024580Y008773D02*
X024580Y009293D01*
X023580Y009293D02*
X023580Y008773D01*
X022580Y008773D02*
X022580Y009293D01*
X021580Y009293D02*
X021580Y008773D01*
X020580Y008773D02*
X020580Y009293D01*
X019580Y009293D02*
X019580Y008773D01*
X018580Y008773D02*
X018580Y009293D01*
X017580Y009293D02*
X017580Y008773D01*
X017080Y015273D02*
X017080Y015793D01*
X016080Y015793D02*
X016080Y015273D01*
X015080Y015273D02*
X015080Y015793D01*
X014080Y015793D02*
X014080Y015273D01*
X012080Y015273D02*
X012080Y015793D01*
X011080Y015793D02*
X011080Y015273D01*
X010080Y015273D02*
X010080Y015793D01*
X009080Y015793D02*
X009080Y015273D01*
X008080Y015273D02*
X008080Y015793D01*
X007080Y015793D02*
X007080Y015273D01*
X006080Y015273D02*
X006080Y015793D01*
X005080Y015793D02*
X005080Y015273D01*
X005080Y018273D02*
X005080Y018793D01*
X006080Y018793D02*
X006080Y018273D01*
X007080Y018273D02*
X007080Y018793D01*
X008080Y018793D02*
X008080Y018273D01*
X009080Y018273D02*
X009080Y018793D01*
X010080Y018793D02*
X010080Y018273D01*
X011080Y018273D02*
X011080Y018793D01*
X012080Y018793D02*
X012080Y018273D01*
X014080Y018273D02*
X014080Y018793D01*
X015080Y018793D02*
X015080Y018273D01*
X016080Y018273D02*
X016080Y018793D01*
X017080Y018793D02*
X017080Y018273D01*
X018080Y018273D02*
X018080Y018793D01*
X019080Y018793D02*
X019080Y018273D01*
X020080Y018273D02*
X020080Y018793D01*
X021080Y018793D02*
X021080Y018273D01*
X023080Y018273D02*
X023080Y018793D01*
X024080Y018793D02*
X024080Y018273D01*
X025080Y018273D02*
X025080Y018793D01*
X026080Y018793D02*
X026080Y018273D01*
X027080Y018273D02*
X027080Y018793D01*
X028080Y018793D02*
X028080Y018273D01*
X029080Y018273D02*
X029080Y018793D01*
X030080Y018793D02*
X030080Y018273D01*
X032080Y018273D02*
X032080Y018793D01*
X033080Y018793D02*
X033080Y018273D01*
X034080Y018273D02*
X034080Y018793D01*
X035080Y018793D02*
X035080Y018273D01*
X036080Y018273D02*
X036080Y018793D01*
X037080Y018793D02*
X037080Y018273D01*
X038080Y018273D02*
X038080Y018793D01*
X039080Y018793D02*
X039080Y018273D01*
X039080Y015793D02*
X039080Y015273D01*
X038080Y015273D02*
X038080Y015793D01*
X037080Y015793D02*
X037080Y015273D01*
X036080Y015273D02*
X036080Y015793D01*
X035080Y015793D02*
X035080Y015273D01*
X034080Y015273D02*
X034080Y015793D01*
X033080Y015793D02*
X033080Y015273D01*
X032080Y015273D02*
X032080Y015793D01*
X030080Y015793D02*
X030080Y015273D01*
X029080Y015273D02*
X029080Y015793D01*
X028080Y015793D02*
X028080Y015273D01*
X027080Y015273D02*
X027080Y015793D01*
X026080Y015793D02*
X026080Y015273D01*
X025080Y015273D02*
X025080Y015793D01*
X024080Y015793D02*
X024080Y015273D01*
X023080Y015273D02*
X023080Y015793D01*
X021080Y015793D02*
X021080Y015273D01*
X020080Y015273D02*
X020080Y015793D01*
X019080Y015793D02*
X019080Y015273D01*
X018080Y015273D02*
X018080Y015793D01*
D11*
X018580Y020621D02*
X018580Y021446D01*
X016580Y021446D02*
X016580Y020621D01*
X014580Y020621D02*
X014580Y021446D01*
X012580Y021446D02*
X012580Y020621D01*
X010580Y020621D02*
X010580Y021446D01*
X008580Y021446D02*
X008580Y020621D01*
X006580Y020621D02*
X006580Y021446D01*
X020580Y021446D02*
X020580Y020621D01*
X023580Y020621D02*
X023580Y021446D01*
X025580Y021446D02*
X025580Y020621D01*
X027580Y020621D02*
X027580Y021446D01*
X029580Y021446D02*
X029580Y020621D01*
X031580Y020621D02*
X031580Y021446D01*
X033580Y021446D02*
X033580Y020621D01*
X035580Y020621D02*
X035580Y021446D01*
X037580Y021446D02*
X037580Y020621D01*
X004493Y012533D02*
X003668Y012533D01*
X003668Y010533D02*
X004493Y010533D01*
X004493Y008533D02*
X003668Y008533D01*
X003668Y006533D02*
X004493Y006533D01*
D12*
X031800Y006533D02*
X032360Y006533D01*
X032360Y007533D02*
X031800Y007533D01*
X031800Y008533D02*
X032360Y008533D01*
X033800Y008533D02*
X034360Y008533D01*
X035800Y008533D02*
X036360Y008533D01*
X036360Y007533D02*
X035800Y007533D01*
X035800Y006533D02*
X036360Y006533D01*
X034360Y006533D02*
X033800Y006533D01*
X033800Y007533D02*
X034360Y007533D01*
D13*
X034080Y003533D03*
X033080Y003533D03*
X032080Y003533D03*
X031080Y003533D03*
X030080Y003533D03*
X030080Y002533D03*
X031080Y002533D03*
X032080Y002533D03*
X033080Y002533D03*
X034080Y002533D03*
D14*
X026580Y004533D03*
X025580Y004533D03*
X039080Y013033D03*
X039080Y014033D03*
X040080Y018033D03*
X040080Y019033D03*
X031080Y018533D03*
X031080Y019533D03*
X031080Y016533D03*
X031080Y015533D03*
X022080Y015533D03*
X022080Y016533D03*
X022080Y018533D03*
X022080Y019533D03*
X013080Y019533D03*
X013080Y018533D03*
X013080Y016533D03*
X013080Y015533D03*
X011080Y012033D03*
X010080Y012033D03*
X008580Y010033D03*
X008580Y009033D03*
D15*
X005580Y014533D02*
X005580Y001533D01*
X024580Y001533D01*
X024580Y006033D01*
X023580Y006033D02*
X023580Y002033D01*
X006080Y002033D01*
X006080Y014283D01*
X006580Y014783D01*
X006580Y016533D01*
X006080Y017033D01*
X006080Y018533D01*
X011080Y018533D02*
X011080Y017533D01*
X011580Y017033D01*
X011580Y013533D01*
X013580Y011533D01*
X013580Y006533D01*
X017080Y003033D01*
X021580Y003033D01*
X021580Y006033D01*
X020580Y006033D02*
X020580Y003533D01*
X017330Y003533D01*
X014080Y006783D01*
X014080Y013533D01*
X015080Y014533D01*
X015080Y015533D01*
X014080Y015533D02*
X014080Y018533D01*
X015080Y018533D02*
X015080Y017533D01*
X015580Y017033D01*
X015580Y006033D01*
X017580Y004033D01*
X019580Y004033D01*
X019580Y006033D01*
X018580Y006033D02*
X018580Y004533D01*
X017830Y004533D01*
X016080Y006283D01*
X016080Y014533D01*
X019580Y014533D01*
X020080Y015033D01*
X020080Y015533D01*
X020580Y014033D02*
X020580Y017533D01*
X020080Y018033D01*
X020080Y018533D01*
X023080Y018533D02*
X023080Y015533D01*
X024080Y015533D02*
X024080Y013533D01*
X017580Y013533D01*
X017580Y009033D01*
X018580Y009033D02*
X018580Y013033D01*
X024580Y013033D01*
X024580Y017533D01*
X024080Y018033D01*
X024080Y018533D01*
X029080Y018533D02*
X029080Y018033D01*
X029580Y017533D01*
X029580Y012033D01*
X020580Y012033D01*
X020580Y009033D01*
X021580Y009033D02*
X021580Y011533D01*
X033080Y011533D01*
X033080Y015533D01*
X032080Y015533D02*
X032080Y013033D01*
X029080Y012533D02*
X029080Y015533D01*
X032080Y015533D02*
X032080Y018533D01*
X033080Y018533D02*
X033080Y018033D01*
X033580Y017533D01*
X033580Y011033D01*
X022580Y011033D01*
X022580Y009033D01*
X023580Y009033D02*
X023580Y010533D01*
X038080Y010533D01*
X038080Y015533D01*
X038580Y017033D02*
X038080Y017533D01*
X038080Y018533D01*
X038580Y017033D02*
X038580Y010033D01*
X024580Y010033D01*
X024580Y009033D01*
X026580Y007533D02*
X027080Y008033D01*
X031080Y008033D01*
X031080Y008533D01*
X032080Y008533D01*
X034080Y008533D01*
X036080Y008533D01*
X036080Y006533D02*
X036080Y002533D01*
X034080Y002533D01*
X033080Y002533D02*
X032580Y002533D01*
X032580Y005033D01*
X029580Y005033D01*
X029580Y006033D01*
X030580Y006033D02*
X033080Y006033D01*
X033080Y003533D01*
X032080Y003533D02*
X032080Y004533D01*
X028580Y004533D01*
X028580Y006033D01*
X027580Y006033D02*
X027580Y003033D01*
X032080Y003033D01*
X032080Y002533D01*
X026580Y006033D02*
X026580Y007533D01*
X022580Y006033D02*
X022580Y002533D01*
X006580Y002533D01*
X006580Y009783D01*
X011080Y014283D01*
X011080Y015533D01*
X006080Y015533D02*
X006080Y015033D01*
X005580Y014533D01*
X016580Y014033D02*
X020580Y014033D01*
X019580Y012533D02*
X029080Y012533D01*
X019580Y012533D02*
X019580Y009033D01*
X017580Y006033D02*
X016580Y007033D01*
X016580Y014033D01*
D16*
X009330Y006283D03*
X007330Y005783D03*
X011830Y004783D03*
X012330Y004783D03*
X011580Y003783D03*
X014580Y003783D03*
X013080Y005783D03*
X032080Y013033D03*
D17*
X034080Y015533D02*
X034080Y017533D01*
X033580Y018033D01*
X033580Y019033D01*
X031580Y021033D01*
X029580Y021033D02*
X029580Y020033D01*
X028080Y018533D01*
X025580Y019033D02*
X025580Y021033D01*
X023580Y021033D02*
X023580Y020033D01*
X024580Y019033D01*
X024580Y018033D01*
X025080Y017533D01*
X025080Y015533D01*
X027580Y016033D02*
X027580Y021033D01*
X025580Y019033D02*
X025080Y018533D01*
X027580Y016033D02*
X028080Y015533D01*
X034080Y018533D02*
X034080Y019533D01*
X033580Y020033D01*
X033580Y021033D01*
X035580Y021033D02*
X035580Y020033D01*
X036580Y019033D01*
X036580Y016033D01*
X037080Y015533D01*
X037080Y018533D02*
X037580Y019033D01*
X037580Y021033D01*
X020580Y021033D02*
X019080Y019533D01*
X019080Y018533D01*
X016080Y018533D02*
X016080Y020533D01*
X016580Y021033D01*
X014580Y021033D02*
X014580Y020033D01*
X015580Y019033D01*
X015580Y017533D01*
X016080Y017033D01*
X016080Y015533D01*
X018580Y016033D02*
X018580Y021033D01*
X012580Y021033D02*
X012080Y021033D01*
X010580Y019533D01*
X010580Y019033D01*
X010080Y018533D01*
X009580Y019533D02*
X010580Y020533D01*
X010580Y021033D01*
X008580Y021033D02*
X007080Y019533D01*
X007080Y018533D01*
X006580Y018033D02*
X006580Y021033D01*
X009580Y019533D02*
X009580Y016033D01*
X010080Y015533D01*
X007080Y015533D02*
X007080Y017533D01*
X006580Y018033D01*
X018580Y016033D02*
X019080Y015533D01*
X009080Y005783D02*
X007330Y005783D01*
X009080Y005783D02*
X010080Y004783D01*
X011830Y004783D01*
X012330Y004783D02*
X012830Y004783D01*
X013830Y003783D01*
X014580Y003783D01*
M02*
